<svg width="387" height="387" viewBox="0 0 387 387" fill="none" xmlns="http://www.w3.org/2000/svg">
<path d="M223.278 54.2104C232.076 49.5826 242.96 52.9634 247.588 61.7616L332.545 223.278C337.173 232.076 333.792 242.96 324.993 247.588L163.477 332.545C154.679 337.172 143.795 333.792 139.167 324.993L54.2106 163.477C49.5827 154.679 52.9635 143.795 61.7618 139.167L223.278 54.2104Z" fill="#4B0096"/>
<circle cx="124" cy="223" r="89" stroke="#EDD7FF" stroke-width="6"/>
<path d="M207.483 137.653C213.755 136.234 220.308 138.27 224.673 142.992L266.755 188.526C271.12 193.249 272.634 199.941 270.726 206.083L252.334 265.294C250.426 271.435 245.387 276.092 239.115 277.511L178.64 291.188C172.368 292.607 165.815 290.572 161.45 285.849L119.368 240.315C115.003 235.593 113.49 228.9 115.397 222.759L133.79 163.548C135.697 157.406 140.736 152.749 147.009 151.33L207.483 137.653Z" fill="#8717F8"/>
<rect x="52" y="229" width="270" height="104" rx="11" fill="#260056" stroke="#EDD7FF" stroke-width="4"/>
<path d="M155.77 273.168C153.322 273.168 151.258 272.4 149.578 270.864C147.914 269.328 147.082 267.216 147.082 264.528C147.082 262 147.85 259.904 149.386 258.24C150.938 256.576 153.066 255.744 155.77 255.744C157.018 255.744 158.234 256.016 159.418 256.56C160.618 257.104 161.666 257.92 162.562 259.008L160.09 261.12C158.858 259.68 157.418 258.96 155.77 258.96C154.266 258.96 153.026 259.472 152.05 260.496C151.09 261.504 150.61 262.848 150.61 264.528C150.61 266.112 151.09 267.416 152.05 268.44C153.01 269.464 154.25 269.976 155.77 269.976C157.482 269.976 158.922 269.256 160.09 267.816L162.562 269.952C160.834 272.096 158.57 273.168 155.77 273.168ZM172.536 261.288H175.68V273H172.536V271.56H172.488C171.592 272.648 170.432 273.192 169.008 273.192C166.144 273.192 164.712 271.576 164.712 268.344V261.288H167.832V267.504C167.832 268.56 167.992 269.304 168.312 269.736C168.648 270.168 169.192 270.384 169.944 270.384C170.664 270.384 171.272 270.088 171.768 269.496C172.28 268.888 172.536 268.048 172.536 266.976V261.288ZM180.484 259.632C179.956 259.632 179.5 259.448 179.116 259.08C178.732 258.696 178.54 258.24 178.54 257.712C178.54 257.184 178.732 256.736 179.116 256.368C179.5 255.984 179.956 255.792 180.484 255.792C181.028 255.792 181.492 255.984 181.876 256.368C182.26 256.736 182.452 257.184 182.452 257.712C182.452 258.24 182.26 258.696 181.876 259.08C181.492 259.448 181.028 259.632 180.484 259.632ZM178.9 273V261.288H182.044V273H178.9ZM193.398 259.632C192.87 259.632 192.414 259.448 192.03 259.08C191.646 258.696 191.454 258.24 191.454 257.712C191.454 257.184 191.646 256.736 192.03 256.368C192.414 255.984 192.87 255.792 193.398 255.792C193.942 255.792 194.406 255.984 194.79 256.368C195.174 256.736 195.366 257.184 195.366 257.712C195.366 258.24 195.174 258.696 194.79 259.08C194.406 259.448 193.942 259.632 193.398 259.632ZM191.814 273V261.288H194.958V273H191.814ZM208.376 273.192C206.536 273.192 204.952 272.624 203.624 271.488L205.16 269.304C206.12 270.216 207.2 270.672 208.4 270.672C208.848 270.672 209.2 270.584 209.456 270.408C209.712 270.232 209.84 270 209.84 269.712C209.84 269.456 209.688 269.24 209.384 269.064C209.08 268.888 208.52 268.672 207.704 268.416C206.568 268.032 205.68 267.56 205.04 267C204.416 266.424 204.104 265.624 204.104 264.6C204.104 263.56 204.504 262.72 205.304 262.08C206.104 261.424 207.112 261.096 208.328 261.096C209.928 261.096 211.352 261.584 212.6 262.56L211.088 264.864C210.208 264.032 209.272 263.616 208.28 263.616C207.992 263.616 207.728 263.696 207.488 263.856C207.248 264 207.128 264.216 207.128 264.504C207.128 264.728 207.264 264.936 207.536 265.128C207.824 265.304 208.28 265.512 208.904 265.752C209.544 265.992 210.016 266.176 210.32 266.304C210.624 266.416 210.984 266.592 211.4 266.832C211.816 267.056 212.104 267.28 212.264 267.504C212.44 267.712 212.592 267.992 212.72 268.344C212.864 268.696 212.936 269.096 212.936 269.544C212.936 270.632 212.544 271.512 211.76 272.184C210.992 272.856 209.864 273.192 208.376 273.192ZM226.168 267.024C226.168 267.648 226.144 268.024 226.096 268.152H217.864C218.056 268.856 218.416 269.408 218.944 269.808C219.472 270.208 220.112 270.408 220.864 270.408C222 270.424 222.936 269.984 223.672 269.088L225.712 270.984C224.544 272.456 222.856 273.192 220.648 273.192C218.904 273.192 217.464 272.632 216.328 271.512C215.192 270.392 214.624 268.928 214.624 267.12C214.624 265.36 215.168 263.92 216.256 262.8C217.36 261.664 218.752 261.096 220.432 261.096C222.128 261.096 223.504 261.656 224.56 262.776C225.632 263.88 226.168 265.296 226.168 267.024ZM220.528 263.856C219.872 263.856 219.312 264.032 218.848 264.384C218.384 264.736 218.064 265.24 217.888 265.896H223.048C222.696 264.536 221.856 263.856 220.528 263.856ZM133.108 291.288H136.228V303H133.252V301.584H133.18C132.364 302.656 131.196 303.192 129.676 303.192C128.044 303.192 126.7 302.64 125.644 301.536C124.604 300.416 124.084 298.96 124.084 297.168C124.084 295.408 124.604 293.96 125.644 292.824C126.7 291.672 128.02 291.096 129.604 291.096C131.06 291.096 132.204 291.6 133.036 292.608H133.108V291.288ZM130.252 300.384C131.084 300.384 131.788 300.088 132.364 299.496C132.94 298.904 133.228 298.136 133.228 297.192C133.228 296.248 132.948 295.464 132.388 294.84C131.828 294.216 131.124 293.904 130.276 293.904C129.412 293.904 128.692 294.208 128.116 294.816C127.54 295.408 127.252 296.2 127.252 297.192C127.252 298.136 127.532 298.904 128.092 299.496C128.652 300.088 129.372 300.384 130.252 300.384ZM147.783 285.336H150.927V303H147.927V301.584H147.879C147.031 302.656 145.831 303.192 144.279 303.192C142.647 303.192 141.303 302.64 140.247 301.536C139.191 300.416 138.663 298.96 138.663 297.168C138.663 295.408 139.183 293.96 140.223 292.824C141.279 291.672 142.599 291.096 144.183 291.096C145.671 291.096 146.847 291.6 147.711 292.608H147.783V285.336ZM142.695 299.496C143.255 300.088 143.975 300.384 144.855 300.384C145.735 300.384 146.471 300.088 147.063 299.496C147.655 298.904 147.951 298.136 147.951 297.192C147.951 296.248 147.655 295.464 147.063 294.84C146.487 294.216 145.751 293.904 144.855 293.904C143.991 293.904 143.271 294.208 142.695 294.816C142.135 295.408 141.855 296.2 141.855 297.192C141.855 298.136 142.135 298.904 142.695 299.496ZM160.82 291.096C160.948 291.096 161.028 291.104 161.06 291.12V294.528C160.852 294.512 160.58 294.504 160.244 294.504C159.3 294.504 158.564 294.792 158.036 295.368C157.508 295.928 157.244 296.656 157.244 297.552V303H154.1V291.288H157.244V293.016H157.268C158.18 291.736 159.364 291.096 160.82 291.096ZM173.738 297.024C173.738 297.648 173.714 298.024 173.666 298.152H165.434C165.626 298.856 165.986 299.408 166.514 299.808C167.042 300.208 167.682 300.408 168.434 300.408C169.57 300.424 170.506 299.984 171.242 299.088L173.282 300.984C172.114 302.456 170.426 303.192 168.218 303.192C166.474 303.192 165.034 302.632 163.898 301.512C162.762 300.392 162.194 298.928 162.194 297.12C162.194 295.36 162.738 293.92 163.826 292.8C164.93 291.664 166.322 291.096 168.002 291.096C169.698 291.096 171.074 291.656 172.13 292.776C173.202 293.88 173.738 295.296 173.738 297.024ZM168.098 293.856C167.442 293.856 166.882 294.032 166.418 294.384C165.954 294.736 165.634 295.24 165.458 295.896H170.618C170.266 294.536 169.426 293.856 168.098 293.856ZM180.04 303.192C178.2 303.192 176.616 302.624 175.288 301.488L176.824 299.304C177.784 300.216 178.864 300.672 180.064 300.672C180.512 300.672 180.864 300.584 181.12 300.408C181.376 300.232 181.504 300 181.504 299.712C181.504 299.456 181.352 299.24 181.048 299.064C180.744 298.888 180.184 298.672 179.368 298.416C178.232 298.032 177.344 297.56 176.704 297C176.08 296.424 175.768 295.624 175.768 294.6C175.768 293.56 176.168 292.72 176.968 292.08C177.768 291.424 178.776 291.096 179.992 291.096C181.592 291.096 183.016 291.584 184.264 292.56L182.752 294.864C181.872 294.032 180.936 293.616 179.944 293.616C179.656 293.616 179.392 293.696 179.152 293.856C178.912 294 178.792 294.216 178.792 294.504C178.792 294.728 178.928 294.936 179.2 295.128C179.488 295.304 179.944 295.512 180.568 295.752C181.208 295.992 181.68 296.176 181.984 296.304C182.288 296.416 182.648 296.592 183.064 296.832C183.48 297.056 183.768 297.28 183.928 297.504C184.104 297.712 184.256 297.992 184.384 298.344C184.528 298.696 184.6 299.096 184.6 299.544C184.6 300.632 184.208 301.512 183.424 302.184C182.656 302.856 181.528 303.192 180.04 303.192ZM197.832 297.024C197.832 297.648 197.808 298.024 197.76 298.152H189.528C189.72 298.856 190.08 299.408 190.608 299.808C191.136 300.208 191.776 300.408 192.528 300.408C193.664 300.424 194.6 299.984 195.336 299.088L197.376 300.984C196.208 302.456 194.52 303.192 192.312 303.192C190.568 303.192 189.128 302.632 187.992 301.512C186.856 300.392 186.288 298.928 186.288 297.12C186.288 295.36 186.832 293.92 187.92 292.8C189.024 291.664 190.416 291.096 192.096 291.096C193.792 291.096 195.168 291.656 196.224 292.776C197.296 293.88 197.832 295.296 197.832 297.024ZM192.192 293.856C191.536 293.856 190.976 294.032 190.512 294.384C190.048 294.736 189.728 295.24 189.552 295.896H194.712C194.36 294.536 193.52 293.856 192.192 293.856ZM208.718 291.288H211.838V303H208.862V301.584H208.79C207.974 302.656 206.806 303.192 205.286 303.192C203.654 303.192 202.31 302.64 201.254 301.536C200.214 300.416 199.694 298.96 199.694 297.168C199.694 295.408 200.214 293.96 201.254 292.824C202.31 291.672 203.63 291.096 205.214 291.096C206.67 291.096 207.814 291.6 208.646 292.608H208.718V291.288ZM205.862 300.384C206.694 300.384 207.398 300.088 207.974 299.496C208.55 298.904 208.838 298.136 208.838 297.192C208.838 296.248 208.558 295.464 207.998 294.84C207.438 294.216 206.734 293.904 205.886 293.904C205.022 293.904 204.302 294.208 203.726 294.816C203.15 295.408 202.862 296.2 202.862 297.192C202.862 298.136 203.142 298.904 203.702 299.496C204.262 300.088 204.982 300.384 205.862 300.384ZM224.088 293.4L218.352 300.384V300.432H223.968V303H214.224V300.864L219.864 293.88V293.856H214.632V291.288H224.088V293.4ZM231.904 289.776C230.864 289.776 229.976 289.456 229.24 288.816C228.504 288.176 228.088 287.296 227.992 286.176H230.368C230.4 286.608 230.552 286.968 230.824 287.256C231.096 287.544 231.456 287.688 231.904 287.688C232.336 287.688 232.696 287.552 232.984 287.28C233.272 287.008 233.424 286.64 233.44 286.176H235.84C235.76 287.232 235.36 288.096 234.64 288.768C233.936 289.44 233.024 289.776 231.904 289.776ZM234.616 291.288H237.736V303H234.76V301.584H234.688C233.872 302.656 232.704 303.192 231.184 303.192C229.552 303.192 228.208 302.64 227.152 301.536C226.112 300.416 225.592 298.96 225.592 297.168C225.592 295.408 226.112 293.96 227.152 292.824C228.208 291.672 229.528 291.096 231.112 291.096C232.568 291.096 233.712 291.6 234.544 292.608H234.616V291.288ZM231.76 300.384C232.592 300.384 233.296 300.088 233.872 299.496C234.448 298.904 234.736 298.136 234.736 297.192C234.736 296.248 234.456 295.464 233.896 294.84C233.336 294.216 232.632 293.904 231.784 293.904C230.92 293.904 230.2 294.208 229.624 294.816C229.048 295.408 228.76 296.2 228.76 297.192C228.76 298.136 229.04 298.904 229.6 299.496C230.16 300.088 230.88 300.384 231.76 300.384ZM241.985 297.456L241.961 296.256C241.961 296.016 241.993 295.776 242.057 295.536C242.121 295.28 242.185 295.072 242.249 294.912C242.313 294.752 242.433 294.552 242.609 294.312C242.801 294.056 242.937 293.888 243.017 293.808C243.097 293.712 243.265 293.528 243.521 293.256C243.793 292.968 243.953 292.792 244.001 292.728C245.025 291.672 245.537 290.76 245.537 289.992C245.537 289.4 245.361 288.944 245.009 288.624C244.657 288.288 244.193 288.12 243.617 288.12C242.641 288.12 241.833 288.552 241.193 289.416L238.961 287.328C239.505 286.656 240.209 286.12 241.073 285.72C241.953 285.32 242.889 285.12 243.881 285.12C245.321 285.12 246.521 285.528 247.481 286.344C248.457 287.144 248.945 288.296 248.945 289.8C248.945 290.648 248.753 291.392 248.369 292.032C248.001 292.672 247.489 293.312 246.833 293.952C246.753 294.032 246.593 294.176 246.353 294.384C246.129 294.592 245.969 294.736 245.873 294.816C245.793 294.896 245.665 295.024 245.489 295.2C245.329 295.376 245.217 295.52 245.153 295.632C245.089 295.744 245.025 295.872 244.961 296.016C244.897 296.16 244.857 296.304 244.841 296.448L244.769 297.456H241.985ZM243.425 303.192C242.881 303.192 242.417 303.008 242.033 302.64C241.665 302.272 241.481 301.824 241.481 301.296C241.481 300.768 241.665 300.32 242.033 299.952C242.417 299.568 242.881 299.376 243.425 299.376C243.953 299.376 244.409 299.568 244.793 299.952C245.177 300.32 245.369 300.768 245.369 301.296C245.369 301.824 245.177 302.272 244.793 302.64C244.409 303.008 243.953 303.192 243.425 303.192Z" fill="white"/>
</svg>
