<svg width="90" height="90" viewBox="0 0 90 90" fill="none" xmlns="http://www.w3.org/2000/svg">
<path d="M32.6252 3.21788C33.7371 0.885311 36.7357 0.203261 38.7471 1.82545L49.4441 10.4527C50.5255 11.3249 51.9819 11.5734 53.2914 11.1094L66.2444 6.51875C68.68 5.65558 71.2827 7.29368 71.5579 9.863L73.0214 23.5273C73.1693 24.9087 74.0234 26.1143 75.2775 26.7121L87.6828 32.6252C90.0153 33.7371 90.6974 36.7357 89.0752 38.7471L80.4479 49.4441C79.5758 50.5255 79.3272 51.982 79.7913 53.2914L84.3819 66.2444C85.2451 68.68 83.607 71.2827 81.0377 71.5579L67.3734 73.0214C65.992 73.1694 64.7863 74.0235 64.1886 75.2775L58.2754 87.6828C57.1636 90.0153 54.1649 90.6974 52.1535 89.0752L41.4565 80.4479C40.3752 79.5758 38.9187 79.3272 37.6092 79.7913L24.6562 84.3819C22.2206 85.2451 19.618 83.607 19.3428 81.0377L17.8792 67.3734C17.7313 65.992 16.8772 64.7863 15.6231 64.1886L3.21788 58.2754C0.885305 57.1636 0.203255 54.1649 1.82545 52.1535L10.4527 41.4566C11.3248 40.3752 11.5734 38.9187 11.1094 37.6092L6.51875 24.6562C5.65557 22.2206 7.29367 19.618 9.86299 19.3428L23.5273 17.8792C24.9086 17.7313 26.1143 16.8772 26.7121 15.6231L32.6252 3.21788Z" fill="#B366FF"/>
</svg>
