<svg width="11" height="10" viewBox="0 0 11 10" fill="none" xmlns="http://www.w3.org/2000/svg">
<path d="M8.70833 0H2.29167C1.6841 0.000721753 1.10163 0.240401 0.672017 0.666464C0.242404 1.09253 0.000727768 1.67018 0 2.27273L0 7.72727C0.000727768 8.32982 0.242404 8.90747 0.672017 9.33354C1.10163 9.7596 1.6841 9.99928 2.29167 10H8.70833C9.3159 9.99928 9.89837 9.7596 10.328 9.33354C10.7576 8.90747 10.9993 8.32982 11 7.72727V2.27273C10.9993 1.67018 10.7576 1.09253 10.328 0.666464C9.89837 0.240401 9.3159 0.000721753 8.70833 0ZM2.29167 0.909091H8.70833C8.98278 0.909626 9.25078 0.991598 9.47785 1.14446C9.70493 1.29732 9.88068 1.51407 9.9825 1.76682L6.47258 5.24818C6.21428 5.50332 5.86457 5.64658 5.5 5.64658C5.13543 5.64658 4.78572 5.50332 4.52742 5.24818L1.0175 1.76682C1.11932 1.51407 1.29507 1.29732 1.52215 1.14446C1.74922 0.991598 2.01722 0.909626 2.29167 0.909091ZM8.70833 9.09091H2.29167C1.92699 9.09091 1.57726 8.94724 1.31939 8.69151C1.06153 8.43578 0.916667 8.08893 0.916667 7.72727V2.95455L3.87933 5.89091C4.30954 6.31648 4.89237 6.55547 5.5 6.55547C6.10763 6.55547 6.69046 6.31648 7.12067 5.89091L10.0833 2.95455V7.72727C10.0833 8.08893 9.93847 8.43578 9.68061 8.69151C9.42274 8.94724 9.07301 9.09091 8.70833 9.09091Z" fill="white"/>
</svg>
