<svg width="10" height="10" viewBox="0 0 10 10" fill="none" xmlns="http://www.w3.org/2000/svg">
<path d="M5.40919 0.418019C5.40919 0.30733 5.45316 0.201175 5.53143 0.122906C5.6097 0.0446374 5.71585 0.000666498 5.82654 0.000666498C6.93304 0.00188166 7.99387 0.441981 8.77628 1.2244C9.55869 2.00683 9.99879 3.06767 10 4.17419C10 4.28488 9.95603 4.39103 9.87776 4.4693C9.79949 4.54757 9.69334 4.59154 9.58265 4.59154C9.47197 4.59154 9.36581 4.54757 9.28755 4.4693C9.20928 4.39103 9.16531 4.28488 9.16531 4.17419C9.16431 3.28898 8.81223 2.44032 8.18631 1.81439C7.56038 1.18845 6.71173 0.836365 5.82654 0.835371C5.71585 0.835371 5.6097 0.7914 5.53143 0.713131C5.45316 0.634863 5.40919 0.528707 5.40919 0.418019ZM5.82654 2.50478C6.26929 2.50478 6.6939 2.68066 7.00697 2.99374C7.32004 3.30681 7.49592 3.73143 7.49592 4.17419C7.49592 4.28488 7.53989 4.39103 7.61816 4.4693C7.69643 4.54757 7.80258 4.59154 7.91327 4.59154C8.02396 4.59154 8.13011 4.54757 8.20838 4.4693C8.28664 4.39103 8.33062 4.28488 8.33062 4.17419C8.32995 3.51026 8.06592 2.87371 7.59646 2.40425C7.12699 1.93478 6.49046 1.67074 5.82654 1.67008C5.71585 1.67008 5.6097 1.71405 5.53143 1.79232C5.45316 1.87058 5.40919 1.97674 5.40919 2.08743C5.40919 2.19812 5.45316 2.30427 5.53143 2.38254C5.6097 2.46081 5.71585 2.50478 5.82654 2.50478ZM9.62147 6.98673C9.86332 7.22925 9.99914 7.55779 9.99914 7.90031C9.99914 8.24282 9.86332 8.57136 9.62147 8.81389L9.24168 9.2517C5.82362 12.5242 -2.49409 4.20841 0.72782 0.779446L1.20777 0.362094C1.45057 0.12699 1.77616 -0.00306919 2.11412 5.5011e-05C2.45208 0.00317921 2.77521 0.139235 3.01362 0.378788C3.02656 0.391726 3.79991 1.39629 3.79991 1.39629C4.02937 1.63737 4.15711 1.9576 4.15657 2.29043C4.15603 2.62326 4.02724 2.94307 3.79698 3.18339L3.3137 3.79106C3.58115 4.44092 3.97438 5.03153 4.47079 5.52895C4.9672 6.02637 5.55701 6.4208 6.20632 6.68957L6.81774 6.20336C7.05809 5.97328 7.37784 5.84464 7.71056 5.84417C8.04329 5.84371 8.3634 5.97145 8.60439 6.20085C8.60439 6.20085 9.60853 6.97379 9.62147 6.98673ZM9.0472 7.59356C9.0472 7.59356 8.04849 6.82521 8.03555 6.81227C7.94957 6.72702 7.8334 6.67919 7.71232 6.67919C7.59124 6.67919 7.47506 6.72702 7.38908 6.81227C7.37781 6.82396 6.53603 7.49464 6.53603 7.49464C6.4793 7.5398 6.41179 7.56939 6.34014 7.58052C6.2685 7.59164 6.19519 7.58391 6.12744 7.55808C5.28627 7.24489 4.52222 6.75457 3.88706 6.12034C3.2519 5.4861 2.76046 4.72277 2.44603 3.88204C2.41815 3.81337 2.40907 3.73851 2.4197 3.66516C2.43034 3.59181 2.46031 3.52262 2.50655 3.46469C2.50655 3.46469 3.17722 2.62247 3.18849 2.61162C3.27374 2.52564 3.32158 2.40946 3.32158 2.28838C3.32158 2.1673 3.27374 2.05112 3.18849 1.96514C3.17556 1.95262 2.40722 0.953064 2.40722 0.953064C2.31995 0.874814 2.20606 0.832907 2.08889 0.835933C1.97172 0.838959 1.86014 0.88669 1.77703 0.969341L1.29708 1.38669C-1.05759 4.21801 6.1504 11.0263 8.63152 8.68159L9.01172 8.24337C9.10082 8.16085 9.15433 8.04691 9.16095 7.92564C9.16757 7.80438 9.12678 7.68529 9.0472 7.59356Z" fill="white"/>
</svg>
