<svg width="16" height="9" viewBox="0 0 16 9" fill="none" xmlns="http://www.w3.org/2000/svg">
<path d="M14.7092 1.28866C14.6163 1.19719 14.5057 1.12459 14.3839 1.07505C14.262 1.02551 14.1313 1 13.9993 1C13.8673 1 13.7366 1.02551 13.6148 1.07505C13.4929 1.12459 13.3824 1.19719 13.2894 1.28866L8.70992 5.7581C8.61697 5.84956 8.50638 5.92216 8.38453 5.9717C8.26269 6.02125 8.132 6.04676 8 6.04676C7.868 6.04676 7.73731 6.02125 7.61547 5.9717C7.49362 5.92216 7.38303 5.84956 7.29008 5.7581L2.7106 1.28866C2.61765 1.19719 2.50706 1.12459 2.38521 1.07505C2.26337 1.02551 2.13268 1 2.00068 1C1.86868 1 1.73799 1.02551 1.61615 1.07505C1.4943 1.12459 1.38371 1.19719 1.29076 1.28866C1.10453 1.4715 1 1.71883 1 1.97664C1 2.23445 1.10453 2.48178 1.29076 2.66462L5.88024 7.14382C6.44268 7.69206 7.20509 8 8 8C8.79491 8 9.55732 7.69206 10.1198 7.14382L14.7092 2.66462C14.8955 2.48178 15 2.23445 15 1.97664C15 1.71883 14.8955 1.4715 14.7092 1.28866Z" fill="#00103C" stroke="#00103C" stroke-width="0.5"/>
</svg>
