<svg width="9" height="15" viewBox="0 0 9 15" fill="none" xmlns="http://www.w3.org/2000/svg">
<path d="M1.28866 0.845936C1.19719 0.938889 1.1246 1.04947 1.07505 1.17132C1.02551 1.29317 1 1.42386 1 1.55585C1 1.68785 1.02551 1.81854 1.07505 1.94039C1.12459 2.06223 1.19719 2.17282 1.28866 2.26577L5.7581 6.84526C5.84956 6.93821 5.92216 7.0488 5.9717 7.17064C6.02125 7.29249 6.04675 7.42318 6.04675 7.55518C6.04675 7.68717 6.02125 7.81786 5.9717 7.93971C5.92216 8.06156 5.84956 8.17214 5.7581 8.2651L1.28866 12.8446C1.19719 12.9375 1.12459 13.0481 1.07505 13.17C1.02551 13.2918 1 13.4225 1 13.5545C1 13.6865 1.02551 13.8172 1.07505 13.939C1.12459 14.0609 1.19719 14.1715 1.28866 14.2644C1.4715 14.4506 1.71883 14.5552 1.97664 14.5552C2.23445 14.5552 2.48178 14.4506 2.66462 14.2644L7.14382 9.67494C7.69206 9.1125 8 8.35009 8 7.55518C8 6.76026 7.69206 5.99785 7.14382 5.43542L2.66462 0.845936C2.48178 0.659706 2.23445 0.555175 1.97664 0.555175C1.71883 0.555175 1.4715 0.659706 1.28866 0.845936Z" fill="#5600AB" stroke="#5600AB" stroke-width="0.5"/>
</svg>
