<svg width="11" height="19" viewBox="0 0 11 19" fill="none" xmlns="http://www.w3.org/2000/svg">
<path d="M9.62887 18.1813C9.74647 18.0618 9.83981 17.9196 9.90351 17.763C9.9672 17.6063 10 17.4383 10 17.2686C10 17.0989 9.9672 16.9308 9.90351 16.7742C9.83981 16.6175 9.74647 16.4753 9.62887 16.3558L3.88245 10.4679C3.76485 10.3484 3.67151 10.2062 3.60781 10.0496C3.54411 9.89292 3.51132 9.72489 3.51132 9.55518C3.51132 9.38547 3.54411 9.21743 3.60781 9.06077C3.67151 8.90412 3.76485 8.76193 3.88245 8.64242L9.62887 2.75452C9.74647 2.63501 9.83981 2.49282 9.90351 2.33616C9.96721 2.1795 10 2.01147 10 1.84176C10 1.67205 9.96721 1.50402 9.90351 1.34736C9.83981 1.1907 9.74647 1.04852 9.62887 0.929009C9.39379 0.689571 9.07579 0.555176 8.74432 0.555176C8.41285 0.555176 8.09485 0.689571 7.85977 0.929009L2.10081 6.82977C1.39593 7.5529 1 8.53315 1 9.55518C1 10.5772 1.39593 11.5574 2.1008 12.2806L7.85977 18.1813C8.09485 18.4208 8.41285 18.5552 8.74432 18.5552C9.07579 18.5552 9.39379 18.4208 9.62887 18.1813Z" fill="#0E0E0E" stroke="#0E0E0E" stroke-width="0.5"/>
</svg>
