<svg width="18" height="18" viewBox="0 0 18 18" fill="none" xmlns="http://www.w3.org/2000/svg">
<path d="M17.0348 3.05776C16.8238 2.80458 16.5597 2.60097 16.2612 2.46137C15.9627 2.32176 15.6371 2.2496 15.3075 2.25H3.18151L3.15001 1.98675C3.08554 1.43957 2.82254 0.935051 2.41087 0.568859C1.9992 0.202668 1.46747 0.000256346 0.916502 0L0.750001 0C0.551089 0 0.360323 0.0790178 0.21967 0.21967C0.0790178 0.360323 0 0.551089 0 0.750001C0 0.948914 0.0790178 1.13968 0.21967 1.28033C0.360323 1.42098 0.551089 1.5 0.750001 1.5H0.916502C1.1002 1.50003 1.27751 1.56747 1.41478 1.68954C1.55206 1.81161 1.63976 1.97982 1.66125 2.16225L2.69325 10.9373C2.80039 11.8499 3.23886 12.6914 3.92544 13.302C4.61201 13.9127 5.4989 14.25 6.41776 14.25H14.25C14.4489 14.25 14.6397 14.171 14.7804 14.0304C14.921 13.8897 15 13.6989 15 13.5C15 13.3011 14.921 13.1103 14.7804 12.9697C14.6397 12.829 14.4489 12.75 14.25 12.75H6.41776C5.95355 12.7487 5.50111 12.6039 5.12246 12.3353C4.74381 12.0668 4.45749 11.6877 4.30276 11.25H13.2428C14.122 11.2501 14.9733 10.9412 15.6479 10.3773C16.3225 9.8135 16.7776 9.03054 16.9335 8.16526L17.5223 4.89976C17.581 4.57576 17.5678 4.24281 17.4836 3.92448C17.3993 3.60616 17.2461 3.31026 17.0348 3.05776ZM16.05 4.63351L15.4605 7.89901C15.3669 8.41876 15.0934 8.88901 14.6879 9.22741C14.2825 9.56582 13.7709 9.75082 13.2428 9.75002H4.06426L3.35851 3.75001H15.3075C15.4177 3.74935 15.5267 3.77297 15.6267 3.8192C15.7267 3.86542 15.8153 3.93312 15.8862 4.01746C15.9571 4.10181 16.0085 4.20074 16.0368 4.30721C16.0651 4.41368 16.0696 4.52509 16.05 4.63351Z" fill="#000"/>
<path d="M5.25 18C6.07843 18 6.75001 17.3284 6.75001 16.5C6.75001 15.6716 6.07843 15 5.25 15C4.42157 15 3.75 15.6716 3.75 16.5C3.75 17.3284 4.42157 18 5.25 18Z" fill="#000"/>
<path d="M12.75 18C13.5784 18 14.25 17.3284 14.25 16.5C14.25 15.6716 13.5784 15 12.75 15C11.9216 15 11.25 15.6716 11.25 16.5C11.25 17.3284 11.9216 18 12.75 18Z" fill="#000"/>
</svg>
