<svg width="21" height="21" viewBox="0 0 21 21" fill="none" xmlns="http://www.w3.org/2000/svg">
<g clip-path="url(#clip0_34_136)">
<path d="M20.125 19.25H4.375C3.67881 19.25 3.01113 18.9734 2.51884 18.4812C2.02656 17.9889 1.75 17.3212 1.75 16.625V0.875C1.75 0.642936 1.65781 0.420376 1.49372 0.256282C1.32962 0.0921872 1.10706 0 0.875 0C0.642936 0 0.420376 0.0921872 0.256282 0.256282C0.0921872 0.420376 0 0.642936 0 0.875L0 16.625C0.00138938 17.7849 0.462772 18.8969 1.28294 19.7171C2.10311 20.5372 3.2151 20.9986 4.375 21H20.125C20.3571 21 20.5796 20.9078 20.7437 20.7437C20.9078 20.5796 21 20.3571 21 20.125C21 19.8929 20.9078 19.6704 20.7437 19.5063C20.5796 19.3422 20.3571 19.25 20.125 19.25Z" fill="black"/>
<path d="M5.25 17.5C5.48206 17.5 5.70462 17.4078 5.86872 17.2437C6.03281 17.0796 6.125 16.8571 6.125 16.625V10.5C6.125 10.2679 6.03281 10.0454 5.86872 9.88128C5.70462 9.71719 5.48206 9.625 5.25 9.625C5.01794 9.625 4.79538 9.71719 4.63128 9.88128C4.46719 10.0454 4.375 10.2679 4.375 10.5V16.625C4.375 16.8571 4.46719 17.0796 4.63128 17.2437C4.79538 17.4078 5.01794 17.5 5.25 17.5Z" fill="black"/>
<path d="M8.75 8.75V16.625C8.75 16.8571 8.84219 17.0796 9.00628 17.2437C9.17038 17.4078 9.39294 17.5 9.625 17.5C9.85706 17.5 10.0796 17.4078 10.2437 17.2437C10.4078 17.0796 10.5 16.8571 10.5 16.625V8.75C10.5 8.51794 10.4078 8.29538 10.2437 8.13128C10.0796 7.96719 9.85706 7.875 9.625 7.875C9.39294 7.875 9.17038 7.96719 9.00628 8.13128C8.84219 8.29538 8.75 8.51794 8.75 8.75Z" fill="black"/>
<path d="M13.125 11.375V16.625C13.125 16.8571 13.2172 17.0796 13.3813 17.2437C13.5454 17.4078 13.7679 17.5 14 17.5C14.2321 17.5 14.4546 17.4078 14.6187 17.2437C14.7828 17.0796 14.875 16.8571 14.875 16.625V11.375C14.875 11.1429 14.7828 10.9204 14.6187 10.7563C14.4546 10.5922 14.2321 10.5 14 10.5C13.7679 10.5 13.5454 10.5922 13.3813 10.7563C13.2172 10.9204 13.125 11.1429 13.125 11.375Z" fill="black"/>
<path d="M17.5 7.875V16.625C17.5 16.8571 17.5922 17.0796 17.7563 17.2437C17.9204 17.4078 18.1429 17.5 18.375 17.5C18.6071 17.5 18.8296 17.4078 18.9937 17.2437C19.1578 17.0796 19.25 16.8571 19.25 16.625V7.875C19.25 7.64294 19.1578 7.42038 18.9937 7.25628C18.8296 7.09219 18.6071 7 18.375 7C18.1429 7 17.9204 7.09219 17.7563 7.25628C17.5922 7.42038 17.5 7.64294 17.5 7.875Z" fill="black"/>
<path d="M5.24981 7.87499C5.48186 7.87494 5.70438 7.78272 5.86844 7.61862L9.00619 4.48087C9.17296 4.32199 9.39447 4.23337 9.62481 4.23337C9.85515 4.23337 10.0767 4.32199 10.2434 4.48087L12.1439 6.38137C12.6362 6.87348 13.3038 7.14993 13.9998 7.14993C14.6959 7.14993 15.3634 6.87348 15.8557 6.38137L20.7434 1.49362C20.9028 1.32859 20.991 1.10756 20.989 0.878139C20.987 0.648717 20.895 0.429256 20.7328 0.267024C20.5705 0.104792 20.3511 0.0127689 20.1217 0.0107753C19.8922 0.00878165 19.6712 0.0969768 19.5062 0.256365L14.6184 5.14324C14.4544 5.30728 14.2318 5.39943 13.9998 5.39943C13.7678 5.39943 13.5453 5.30728 13.3812 5.14324L11.4807 3.24362C10.9884 2.7515 10.3209 2.47505 9.62481 2.47505C8.92876 2.47505 8.2612 2.7515 7.76894 3.24362L4.63119 6.38137C4.50886 6.50374 4.42555 6.65963 4.3918 6.82934C4.35806 6.99905 4.37538 7.17495 4.4416 7.33481C4.50781 7.49467 4.61993 7.63132 4.76379 7.72747C4.90765 7.82362 5.07678 7.87495 5.24981 7.87499Z" fill="black"/>
</g>
<defs>
<clipPath id="clip0_34_136">
<rect width="21" height="21" fill="black"/>
</clipPath>
</defs>
</svg>

