<svg width="37" height="27" viewBox="0 0 37 27" fill="none" xmlns="http://www.w3.org/2000/svg">
<path d="M33.2783 0.304297C32.5195 0.542773 32.4906 0.564453 22.8359 10.2191L13.333 19.7148L9.03315 15.415C5.03686 11.4332 4.69721 11.108 4.24916 10.8984C3.10014 10.3637 1.87885 10.5299 0.968304 11.3537C0.245648 12.0041 -0.108454 13.0447 0.0649836 13.9842C0.245648 14.9525 0.130023 14.8297 6.12807 20.8061C11.3746 26.0381 11.6997 26.3488 12.1406 26.5439C12.7042 26.7896 13.4775 26.8619 13.9978 26.7246C14.8794 26.4861 14.5037 26.8402 25.7699 15.574C37.4335 3.8959 36.7687 4.61133 36.9494 3.57793C37.1951 2.13984 36.2917 0.745117 34.8392 0.304297C34.4345 0.181445 33.6685 0.181445 33.2783 0.304297Z" fill="#fff"/>
</svg>
