<svg width="25" height="25" viewBox="0 0 25 25" fill="none" xmlns="http://www.w3.org/2000/svg">
<g clip-path="url(#clip0_16_9384)">
<path d="M24.9998 21.875C24.9998 22.7038 24.6705 23.4987 24.0845 24.0847C23.4984 24.6708 22.7036 25 21.8748 25H16.6664C16.3902 25 16.1252 24.8903 15.9299 24.6949C15.7345 24.4996 15.6248 24.2346 15.6248 23.9583C15.6248 23.6821 15.7345 23.4171 15.9299 23.2218C16.1252 23.0264 16.3902 22.9167 16.6664 22.9167H21.8748C22.151 22.9167 22.416 22.8069 22.6113 22.6116C22.8067 22.4162 22.9164 22.1513 22.9164 21.875C22.9226 21.7347 22.8991 21.5947 22.8475 21.464C22.796 21.3334 22.7174 21.2151 22.6171 21.1168C22.5168 21.0186 22.3969 20.9425 22.2652 20.8937C22.1335 20.8448 21.993 20.8243 21.8529 20.8333H17.7081C17.4318 20.8333 17.1669 20.7236 16.9715 20.5282C16.7762 20.3329 16.6664 20.0679 16.6664 19.7917C16.6664 19.5154 16.7762 19.2504 16.9715 19.0551C17.1669 18.8597 17.4318 18.75 17.7081 18.75H20.8331V11.4583H16.6664V17.7083C16.6664 17.9846 16.5567 18.2496 16.3613 18.4449C16.166 18.6403 15.901 18.75 15.6248 18.75C15.3485 18.75 15.0835 18.6403 14.8882 18.4449C14.6928 18.2496 14.5831 17.9846 14.5831 17.7083V11.1781C14.2665 10.9954 14.0037 10.7325 13.8208 10.416C13.638 10.0995 13.5416 9.74052 13.5414 9.375V8.33333C13.5414 8.05707 13.6512 7.79211 13.8465 7.59676C14.0419 7.40141 14.3068 7.29167 14.5831 7.29167C14.8594 7.29167 15.1243 7.40141 15.3197 7.59676C15.515 7.79211 15.6248 8.05707 15.6248 8.33333V9.375H17.7081V8.33333C17.7081 8.05707 17.8178 7.79211 18.0132 7.59676C18.2085 7.40141 18.4735 7.29167 18.7498 7.29167C19.026 7.29167 19.291 7.40141 19.4863 7.59676C19.6817 7.79211 19.7914 8.05707 19.7914 8.33333V9.375H21.8748V8.33333C21.8748 8.05707 21.9845 7.79211 22.1799 7.59676C22.3752 7.40141 22.6402 7.29167 22.9164 7.29167C23.1927 7.29167 23.4576 7.40141 23.653 7.59676C23.8484 7.79211 23.9581 8.05707 23.9581 8.33333V9.375C23.9579 9.74052 23.8616 10.0995 23.6787 10.416C23.4959 10.7325 23.233 10.9954 22.9164 11.1781V18.9323C23.5307 19.1388 24.0634 19.5351 24.4379 20.064C24.8123 20.5929 25.0091 21.227 24.9998 21.875ZM14.5831 21.875C14.5831 22.7038 14.2539 23.4987 13.6678 24.0847C13.0818 24.6708 12.2869 25 11.4581 25H3.12476C2.36603 24.9995 1.6334 24.7229 1.06358 24.2219C0.493752 23.7209 0.125657 23.0298 0.0279698 22.2773C-0.0697174 21.5249 0.109676 20.7627 0.532679 20.1328C0.955682 19.5029 1.5934 19.0484 2.32684 18.8542C3.27896 15.771 3.88683 12.5919 4.13934 9.375C3.93735 9.37043 3.74103 9.30721 3.57433 9.19305C3.40762 9.07889 3.27772 8.9187 3.20043 8.73202C3.12315 8.54533 3.10184 8.3402 3.13908 8.14161C3.17632 7.94302 3.27051 7.75955 3.41018 7.61354C3.41018 7.61354 2.36434 5.9875 2.34351 5.94479C2.14938 5.53222 2.06255 5.07732 2.09107 4.62225C2.11959 4.16718 2.26254 3.72668 2.50667 3.34158C2.7508 2.95648 3.0882 2.63925 3.4876 2.4193C3.887 2.19934 4.33547 2.08378 4.79143 2.08333H6.26018V1.04167C6.26018 0.765399 6.36993 0.500448 6.56528 0.305097C6.76063 0.109747 7.02558 0 7.30185 0C7.57811 0 7.84306 0.109747 8.03841 0.305097C8.23376 0.500448 8.34351 0.765399 8.34351 1.04167V2.08333H9.79143C10.2476 2.08343 10.6963 2.19873 11.096 2.41854C11.4957 2.63835 11.8333 2.95555 12.0777 3.3407C12.3221 3.72586 12.4652 4.16649 12.4938 4.62173C12.5225 5.07697 12.4356 5.53206 12.2414 5.94479C12.2216 5.9875 11.1696 7.61146 11.1696 7.61146C11.3097 7.75712 11.4044 7.9404 11.4422 8.13896C11.48 8.33752 11.4592 8.54278 11.3823 8.72972C11.3055 8.91666 11.1759 9.07721 11.0094 9.19178C10.8429 9.30636 10.6466 9.37002 10.4446 9.375C10.7005 12.5915 11.3083 15.7702 12.2571 18.8542C12.9237 19.0305 13.5134 19.4224 13.9341 19.9688C14.3549 20.5152 14.583 21.1854 14.5831 21.875ZM6.22476 9.375C6.00361 12.5523 5.436 15.696 4.53205 18.75H10.0529C9.15062 15.6955 8.58271 12.5521 8.35914 9.375H6.22476ZM4.20809 5.00729L5.66643 7.25729L5.6883 7.29167H8.89664L8.91747 7.25729L10.3758 5.00729C10.4105 4.91301 10.4219 4.81176 10.4091 4.71212C10.3963 4.61248 10.3597 4.5174 10.3024 4.43491C10.245 4.35243 10.1686 4.28499 10.0797 4.23829C9.99077 4.1916 9.89188 4.16703 9.79143 4.16667H4.79143C4.68609 4.16553 4.58223 4.19159 4.4899 4.24231C4.39757 4.29304 4.31988 4.36673 4.26434 4.45625C4.2128 4.53741 4.18088 4.62947 4.17111 4.72512C4.16135 4.82078 4.17401 4.91739 4.20809 5.00729ZM12.4998 21.875C12.4998 21.5987 12.39 21.3338 12.1947 21.1384C11.9993 20.9431 11.7344 20.8333 11.4581 20.8333H3.12476C2.84849 20.8333 2.58354 20.9431 2.38819 21.1384C2.19284 21.3338 2.08309 21.5987 2.08309 21.875C2.08309 22.1513 2.19284 22.4162 2.38819 22.6116C2.58354 22.8069 2.84849 22.9167 3.12476 22.9167H11.4581C11.7344 22.9167 11.9993 22.8069 12.1947 22.6116C12.39 22.4162 12.4998 22.1513 12.4998 21.875Z" fill="black"/>
</g>
<defs>
<clipPath id="clip0_16_9384">
<rect width="25" height="25" fill="white"/>
</clipPath>
</defs>
</svg>
