<svg width="182" height="240" viewBox="0 0 182 240" fill="none" xmlns="http://www.w3.org/2000/svg">
<path fill-rule="evenodd" clip-rule="evenodd" d="M108.52 172.842L108.617 172.939C113.807 178.14 111.178 187.016 103.996 188.565C93.8243 190.76 82.9931 190.63 72.2542 187.746C36.0259 178.013 14.7056 140.866 24.5702 104.674C34.4349 68.4818 71.375 47.495 107.357 57.1753C118.354 60.1341 127.986 65.6419 135.785 72.8909C141.138 77.8675 138.94 86.7839 131.878 88.6683L131.745 88.7035C128.665 89.5257 125.38 88.7071 123.042 86.539C117.405 81.3102 110.448 77.3376 102.507 75.201C76.5662 68.2223 49.8837 83.4577 42.6662 109.27C35.3698 135.363 50.5422 162.318 76.6414 169.594C84.5247 171.791 92.4855 171.931 99.9601 170.336C103.058 169.675 106.283 170.602 108.52 172.844V172.842Z" fill="#7000FF"/>
<path d="M155.075 140.019C151.785 152.246 145.346 162.784 136.864 170.993C133.202 174.538 127.37 174.478 123.771 170.872C120.099 167.193 120.127 161.21 123.862 157.595C130.004 151.652 134.668 144.023 137.049 135.17C139.389 126.477 139.232 117.701 137.019 109.602C135.657 104.617 138.63 99.4788 143.623 98.1461C148.569 96.8268 153.673 99.731 155.025 104.669C158.091 115.865 158.309 128.001 155.075 140.02V140.019Z" fill="#BA63FF"/>
<path d="M54.2804 109.129C57.1737 100.823 62.1661 93.8496 68.4584 88.5929C71.1577 86.3374 75.1751 86.6903 77.473 89.352C79.8255 92.078 79.5224 96.2191 76.76 98.5279C72.209 102.332 68.5978 107.378 66.5049 113.386C64.4483 119.29 64.1184 125.379 65.2498 131.099C65.9422 134.602 63.6176 137.994 60.1095 138.663L60.0949 138.666C56.5905 139.334 53.2206 137.035 52.533 133.533C50.9857 125.649 51.4465 117.262 54.2804 109.127V109.129Z" fill="#8717F8"/>
<path d="M121.922 198.129H62.0159C57.06 198.129 53.0425 202.146 53.0425 207.102C53.0425 212.058 57.06 216.076 62.0159 216.076H121.922C126.878 216.076 130.895 212.058 130.895 207.102C130.895 202.146 126.878 198.129 121.922 198.129Z" fill="#BA63FF"/>
<path d="M36.9912 53.7517L19.5175 32.9127C16.3333 29.1151 10.6734 28.618 6.87592 31.8022C3.07839 34.9865 2.58122 40.6463 5.76547 44.4438L23.2391 65.2829C26.4234 69.0804 32.0832 69.5776 35.8807 66.3933C39.6783 63.2091 40.1754 57.5492 36.9912 53.7517Z" fill="#7000FF"/>
<path d="M158.242 65.2795L175.715 44.4405C178.9 40.643 178.402 34.9831 174.605 31.7989C170.807 28.6146 165.148 29.1118 161.963 32.9093L144.49 53.7483C141.305 57.5459 141.803 63.2057 145.6 66.39C149.398 69.5742 155.057 69.0771 158.242 65.2795Z" fill="#7000FF"/>
<path d="M98.7598 36.1689V8.9734C98.7598 4.01753 94.7422 0 89.7864 0C84.8305 0 80.813 4.01753 80.813 8.9734V36.1689C80.813 41.1247 84.8305 45.1423 89.7864 45.1423C94.7422 45.1423 98.7598 41.1247 98.7598 36.1689Z" fill="#7000FF"/>
<path d="M64.1297 224.443H120.457C121.3 224.443 121.984 225.127 121.984 225.97C121.984 233.226 116.093 239.116 108.838 239.116H75.7515C68.4952 239.116 62.6055 233.225 62.6055 225.97C62.6055 225.127 63.2894 224.443 64.1322 224.443H64.1297Z" fill="#8717F8"/>
</svg>
