<svg width="14" height="16" viewBox="0 0 14 16" fill="none" xmlns="http://www.w3.org/2000/svg">
<path d="M12.9997 2.66667H10.933C10.7783 1.91428 10.3689 1.23823 9.77384 0.752479C9.1788 0.266727 8.43448 0.000969683 7.66634 0L6.33301 0C5.56487 0.000969683 4.82055 0.266727 4.22551 0.752479C3.63046 1.23823 3.22107 1.91428 3.06634 2.66667H0.999675C0.822864 2.66667 0.653294 2.7369 0.52827 2.86193C0.403246 2.98695 0.333008 3.15652 0.333008 3.33333C0.333008 3.51014 0.403246 3.67971 0.52827 3.80474C0.653294 3.92976 0.822864 4 0.999675 4H1.66634V12.6667C1.6674 13.5504 2.01893 14.3976 2.64382 15.0225C3.26871 15.6474 4.11594 15.9989 4.99967 16H8.99968C9.88341 15.9989 10.7306 15.6474 11.3555 15.0225C11.9804 14.3976 12.332 13.5504 12.333 12.6667V4H12.9997C13.1765 4 13.3461 3.92976 13.4711 3.80474C13.5961 3.67971 13.6663 3.51014 13.6663 3.33333C13.6663 3.15652 13.5961 2.98695 13.4711 2.86193C13.3461 2.7369 13.1765 2.66667 12.9997 2.66667ZM6.33301 1.33333H7.66634C8.07986 1.33384 8.48309 1.46225 8.82075 1.70096C9.15841 1.93967 9.41395 2.27699 9.55234 2.66667H4.44701C4.5854 2.27699 4.84094 1.93967 5.1786 1.70096C5.51626 1.46225 5.91949 1.33384 6.33301 1.33333ZM10.9997 12.6667C10.9997 13.1971 10.789 13.7058 10.4139 14.0809C10.0388 14.456 9.53011 14.6667 8.99968 14.6667H4.99967C4.46924 14.6667 3.96053 14.456 3.58546 14.0809C3.21039 13.7058 2.99967 13.1971 2.99967 12.6667V4H10.9997V12.6667Z" fill="#FF0F0F"/>
</svg>
