<svg width="14" height="16" viewBox="0 0 14 16" fill="none" xmlns="http://www.w3.org/2000/svg">
<path d="M12.9987 2.66667H10.932C10.7773 1.91428 10.3679 1.23823 9.77287 0.752479C9.17782 0.266727 8.4335 0.000969683 7.66537 0L6.33203 0C5.5639 0.000969683 4.81958 0.266727 4.22453 0.752479C3.62949 1.23823 3.2201 1.91428 3.06536 2.66667H0.998698C0.821887 2.66667 0.652318 2.7369 0.527293 2.86193C0.402269 2.98695 0.332031 3.15652 0.332031 3.33333C0.332031 3.51014 0.402269 3.67971 0.527293 3.80474C0.652318 3.92976 0.821887 4 0.998698 4H1.66536V12.6667C1.66642 13.5504 2.01795 14.3976 2.64284 15.0225C3.26774 15.6474 4.11497 15.9989 4.9987 16H8.9987C9.88243 15.9989 10.7297 15.6474 11.3546 15.0225C11.9794 14.3976 12.331 13.5504 12.332 12.6667V4H12.9987C13.1755 4 13.3451 3.92976 13.4701 3.80474C13.5951 3.67971 13.6654 3.51014 13.6654 3.33333C13.6654 3.15652 13.5951 2.98695 13.4701 2.86193C13.3451 2.7369 13.1755 2.66667 12.9987 2.66667V2.66667ZM6.33203 1.33333H7.66537C8.07888 1.33384 8.48212 1.46225 8.81977 1.70096C9.15743 1.93967 9.41298 2.27699 9.55137 2.66667H4.44603C4.58442 2.27699 4.83997 1.93967 5.17762 1.70096C5.51528 1.46225 5.91852 1.33384 6.33203 1.33333V1.33333ZM10.9987 12.6667C10.9987 13.1971 10.788 13.7058 10.4129 14.0809C10.0378 14.456 9.52913 14.6667 8.9987 14.6667H4.9987C4.46827 14.6667 3.95956 14.456 3.58448 14.0809C3.20941 13.7058 2.9987 13.1971 2.9987 12.6667V4H10.9987V12.6667Z" fill="#FF0F0F"/>
<path d="M5.66667 12C5.84348 12 6.01305 11.9297 6.13807 11.8047C6.2631 11.6797 6.33333 11.5101 6.33333 11.3333V7.33329C6.33333 7.15648 6.2631 6.98691 6.13807 6.86189C6.01305 6.73686 5.84348 6.66663 5.66667 6.66663C5.48986 6.66663 5.32029 6.73686 5.19526 6.86189C5.07024 6.98691 5 7.15648 5 7.33329V11.3333C5 11.5101 5.07024 11.6797 5.19526 11.8047C5.32029 11.9297 5.48986 12 5.66667 12Z" fill="#FF0F0F"/>
<path d="M8.33268 12C8.50949 12 8.67906 11.9297 8.80409 11.8047C8.92911 11.6797 8.99935 11.5101 8.99935 11.3333V7.33329C8.99935 7.15648 8.92911 6.98691 8.80409 6.86189C8.67906 6.73686 8.50949 6.66663 8.33268 6.66663C8.15587 6.66663 7.9863 6.73686 7.86128 6.86189C7.73625 6.98691 7.66602 7.15648 7.66602 7.33329V11.3333C7.66602 11.5101 7.73625 11.6797 7.86128 11.8047C7.9863 11.9297 8.15587 12 8.33268 12Z" fill="#FF0F0F"/>
</svg>
