<svg width="23" height="23" viewBox="0 0 23 23" fill="none" xmlns="http://www.w3.org/2000/svg">
<path d="M22.8283 10.7143C21.9025 8.7063 20.5463 6.92649 18.856 5.50095L21.7617 2.59528L20.4057 1.23828L17.2499 4.3912C15.5032 3.38085 13.5177 2.857 11.4999 2.87416C4.31238 2.87416 1.01284 8.87428 0.171418 10.7143C0.0584675 10.9609 0 11.2289 0 11.5001C0 11.7713 0.0584675 12.0394 0.171418 12.2859C1.0973 14.2939 2.45342 16.0737 4.14371 17.4993L1.239 20.4049L2.59408 21.76L5.74988 18.6071C7.49657 19.6175 9.48209 20.1413 11.4999 20.1242C18.6874 20.1242 21.9869 14.124 22.8283 12.284C22.9411 12.0377 22.9994 11.77 22.9994 11.4992C22.9994 11.2283 22.9411 10.9606 22.8283 10.7143ZM5.74988 11.4992C5.74806 10.4437 6.0373 9.40808 6.58579 8.50628C7.13428 7.60448 7.92079 6.87136 8.85887 6.38752C9.79694 5.90367 10.8503 5.68783 11.903 5.76372C12.9558 5.83962 13.9673 6.2043 14.8263 6.8177L13.4348 8.2092C12.8506 7.85691 12.182 7.66916 11.4999 7.66582C10.4832 7.66582 9.50819 8.06969 8.7893 8.78858C8.07041 9.50747 7.66654 10.4825 7.66654 11.4992C7.66988 12.1813 7.85763 12.8499 8.20992 13.434L6.81842 14.8255C6.12359 13.8555 5.74993 12.6923 5.74988 11.4992ZM11.4999 17.2492C10.3067 17.2491 9.14349 16.8754 8.1735 16.1806L9.565 14.7891C10.1492 15.1414 10.8177 15.3292 11.4999 15.3325C12.5165 15.3325 13.4916 14.9286 14.2105 14.2097C14.9293 13.4908 15.3332 12.5158 15.3332 11.4992C15.3299 10.817 15.1421 10.1484 14.7898 9.56428L16.1813 8.17278C16.7947 9.03176 17.1594 10.0432 17.2353 11.096C17.3112 12.1488 17.0954 13.2021 16.6115 14.1402C16.1277 15.0782 15.3946 15.8647 14.4928 16.4132C13.591 16.9617 12.5554 17.251 11.4999 17.2492Z" fill="black"/>
</svg>
