<svg width="14" height="14" viewBox="0 0 14 14" fill="none" xmlns="http://www.w3.org/2000/svg">
<g clip-path="url(#clip0_228_231)">
<path d="M14 7.0426C14 10.5362 11.4368 13.4324 8.09083 13.958V9.0796H9.71775L10.0275 7.06127H8.09083V5.75169C8.09083 5.19927 8.3615 4.66144 9.22833 4.66144H10.1086V2.94294C10.1086 2.94294 9.30942 2.80644 8.54583 2.80644C6.951 2.80644 5.90917 3.77302 5.90917 5.52244V7.06069H4.13642V9.07902H5.90917V13.9574C2.56375 13.4313 0 10.5356 0 7.0426C0 3.17685 3.13425 0.0426025 7 0.0426025C10.8657 0.0426025 14 3.17627 14 7.0426Z" fill="white"/>
</g>
<defs>
<clipPath id="clip0_228_231">
<rect width="14" height="14" fill="white"/>
</clipPath>
</defs>
</svg>
