<svg width="26" height="26" viewBox="0 0 26 26" fill="none" xmlns="http://www.w3.org/2000/svg">
<g clip-path="url(#clip0_34_132)">
<path d="M12.1771 26.0001C11.8221 25.9988 11.4717 25.9204 11.1501 25.7704C10.6247 25.5364 10.2027 25.1188 9.96335 24.5958C9.724 24.0728 9.68372 23.4805 9.85007 22.9299L11.5412 17.3334H7.55665C7.04901 17.334 6.54828 17.2157 6.09459 16.9879C5.64091 16.7602 5.24688 16.4293 4.9441 16.0218C4.64132 15.6144 4.4382 15.1416 4.35102 14.6415C4.26384 14.1414 4.29502 13.6279 4.44207 13.142L7.71807 2.30864C7.91776 1.63857 8.32938 1.05135 8.89116 0.635093C9.45294 0.218839 10.1346 -0.00398843 10.8337 5.40468e-05H14.8345C15.2892 0.000434451 15.7371 0.110907 16.1399 0.322031C16.5426 0.533155 16.8883 0.838653 17.1473 1.21242C17.4063 1.58618 17.5709 2.0171 17.6272 2.46834C17.6834 2.91958 17.6296 3.37773 17.4702 3.80364L15.647 8.66672H18.4171C19.0075 8.66668 19.5869 8.8275 20.0928 9.13191C20.5988 9.43633 21.0123 9.87283 21.2888 10.3945C21.5654 10.9162 21.6946 11.5034 21.6625 12.093C21.6305 12.6826 21.4384 13.2524 21.107 13.7411L14.1737 24.8994C13.9593 25.2351 13.6643 25.5117 13.3155 25.7039C12.9667 25.8962 12.5753 25.998 12.1771 26.0001ZM10.8337 2.16672C10.6011 2.16649 10.3745 2.24117 10.1876 2.37969C10.0007 2.51822 9.86337 2.71324 9.7959 2.93589L6.5199 13.7692C6.47086 13.9311 6.46039 14.1022 6.48934 14.2688C6.51829 14.4355 6.58586 14.593 6.68663 14.7288C6.7874 14.8647 6.91858 14.975 7.06966 15.0511C7.22074 15.1271 7.38752 15.1667 7.55665 15.1667H13.0004C13.1695 15.1667 13.3363 15.2063 13.4874 15.2824C13.6385 15.3584 13.7697 15.4688 13.8704 15.6046C13.9712 15.7404 14.0388 15.898 14.0677 16.0646C14.0967 16.2313 14.0862 16.4024 14.0372 16.5642L11.9279 23.5431C11.9182 23.5687 11.9138 23.5962 11.9152 23.6236C11.9166 23.651 11.9237 23.6779 11.9361 23.7024C11.9484 23.727 11.9657 23.7487 11.9868 23.7662C12.008 23.7837 12.0326 23.7966 12.059 23.8041C12.0829 23.8195 12.1098 23.8297 12.138 23.834C12.1661 23.8383 12.1948 23.8367 12.2222 23.8292C12.2497 23.8218 12.2753 23.8087 12.2974 23.7907C12.3194 23.7728 12.3375 23.7504 12.3504 23.7251L19.2837 12.5667C19.405 12.4023 19.4773 12.2069 19.4922 12.0031C19.5072 11.7994 19.4642 11.5955 19.3682 11.4151C19.2793 11.2394 19.1433 11.0919 18.9753 10.9892C18.8073 10.8864 18.614 10.8325 18.4171 10.8334H14.0837C13.9086 10.8335 13.7361 10.7912 13.581 10.71C13.4258 10.6289 13.2927 10.5113 13.1929 10.3675C13.0931 10.2236 13.0297 10.0577 13.008 9.88391C12.9864 9.71016 13.0072 9.53376 13.0687 9.3698L15.4412 3.04314C15.4776 2.94505 15.4898 2.83961 15.4768 2.73578C15.4638 2.63195 15.4259 2.5328 15.3663 2.44676C15.3068 2.36072 15.2273 2.29033 15.1347 2.24158C15.0421 2.19282 14.9391 2.16714 14.8345 2.16672H10.8337Z" fill="black"/>
</g>
<defs>
<clipPath id="clip0_34_132">
<rect width="26" height="26" fill="black"/>
</clipPath>
</defs>
</svg>
