<svg width="38" height="39" viewBox="0 0 38 39" fill="none" xmlns="http://www.w3.org/2000/svg">
<path d="M0.870498 23.4223C-0.290166 22.2595 -0.290166 20.3761 0.870498 19.2133L18.6197 1.42728C19.7803 0.264474 21.6603 0.264474 22.8209 1.42728C23.9816 2.59009 23.9816 4.4735 22.8209 5.63631L5.07178 23.4223C3.91111 24.5851 2.03116 24.5851 0.870498 23.4223Z" fill="#626262"/>
<path d="M13.1351 25.449C11.9745 24.2862 11.9745 22.4027 13.1351 21.2399L20.6427 13.7185C21.8033 12.5557 23.6833 12.5557 24.844 13.7185C26.0046 14.8813 26.0046 16.7648 24.844 17.9276L17.3364 25.449C16.1758 26.6118 14.2958 26.6118 13.1351 25.449Z" fill="#414141"/>
<path d="M15.1093 37.6831C13.9486 36.5203 13.9486 34.6369 15.1093 33.4741L32.8584 15.6922C34.0191 14.5294 35.8991 14.5294 37.0597 15.6922C38.2204 16.855 38.2204 18.7384 37.0597 19.9012L19.3105 37.6831C18.1499 38.8459 16.2699 38.8459 15.1093 37.6831Z" fill="#434343"/>
</svg>
