<svg width="14" height="14" viewBox="0 0 14 14" fill="none" xmlns="http://www.w3.org/2000/svg">
<g clip-path="url(#clip0_228_224)">
<path d="M7 1.26117C8.869 1.26117 9.09067 1.26817 9.82858 1.302C10.5916 1.337 11.3773 1.51083 11.9333 2.06675C12.4944 2.62792 12.663 3.40608 12.698 4.17142C12.7318 4.90933 12.7388 5.131 12.7388 7C12.7388 8.869 12.7318 9.09067 12.698 9.82858C12.6636 10.5875 12.4857 11.3808 11.9333 11.9333C11.3721 12.4944 10.5945 12.663 9.82858 12.698C9.09067 12.7318 8.869 12.7388 7 12.7388C5.131 12.7388 4.90933 12.7318 4.17142 12.698C3.41833 12.6636 2.6145 12.4816 2.06675 11.9333C1.5085 11.375 1.337 10.5893 1.302 9.82858C1.26817 9.09067 1.26117 8.869 1.26117 7C1.26117 5.131 1.26817 4.90933 1.302 4.17142C1.33642 3.41542 1.51608 2.61742 2.06675 2.06675C2.62675 1.50675 3.40783 1.337 4.17142 1.302C4.90933 1.26817 5.131 1.26117 7 1.26117ZM7 0C5.09892 0 4.86033 0.00816667 4.11367 0.042C3.03158 0.0915833 1.95708 0.392583 1.17483 1.17483C0.389667 1.96 0.0915833 3.03217 0.042 4.11367C0.00816667 4.86033 0 5.09892 0 7C0 8.90108 0.00816667 9.13967 0.042 9.88633C0.0915833 10.9672 0.39375 12.0447 1.17483 12.8252C1.95942 13.6097 3.03333 13.9084 4.11367 13.958C4.86033 13.9918 5.09892 14 7 14C8.90108 14 9.13967 13.9918 9.88633 13.958C10.9678 13.9084 12.0435 13.6068 12.8252 12.8252C13.6109 12.0394 13.9084 10.9678 13.958 9.88633C13.9918 9.13967 14 8.90108 14 7C14 5.09892 13.9918 4.86033 13.958 4.11367C13.9084 3.03158 13.6068 1.9565 12.8252 1.17483C12.0417 0.391417 10.9649 0.091 9.88633 0.042C9.13967 0.00816667 8.90108 0 7 0Z" fill="white"/>
<path d="M6.99977 3.40552C5.01469 3.40552 3.40527 5.01493 3.40527 7.00002C3.40527 8.9851 5.01469 10.5945 6.99977 10.5945C8.98486 10.5945 10.5943 8.9851 10.5943 7.00002C10.5943 5.01493 8.98486 3.40552 6.99977 3.40552ZM6.99977 9.33335C5.71119 9.33335 4.66644 8.2886 4.66644 7.00002C4.66644 5.71143 5.71119 4.66668 6.99977 4.66668C8.28836 4.66668 9.33311 5.71143 9.33311 7.00002C9.33311 8.2886 8.28836 9.33335 6.99977 9.33335Z" fill="white"/>
<path d="M10.737 4.10322C11.2009 4.10322 11.577 3.72714 11.577 3.26322C11.577 2.7993 11.2009 2.42322 10.737 2.42322C10.2731 2.42322 9.89697 2.7993 9.89697 3.26322C9.89697 3.72714 10.2731 4.10322 10.737 4.10322Z" fill="white"/>
</g>
<defs>
<clipPath id="clip0_228_224">
<rect width="14" height="14" fill="white"/>
</clipPath>
</defs>
</svg>
