<svg width="14" height="14" viewBox="0 0 14 14" fill="none" xmlns="http://www.w3.org/2000/svg">
<g clip-path="url(#clip0_228_234)">
<path d="M8.07632 10.0724L6.17349 11.9752C5.62103 12.5129 4.87908 12.8115 4.10817 12.8063C3.33726 12.8012 2.59938 12.4927 2.05417 11.9476C1.50897 11.4026 1.20028 10.6648 1.19489 9.89386C1.18951 9.12295 1.48787 8.38092 2.02541 7.82831L3.92824 5.92372C4.03762 5.81427 4.09904 5.66584 4.09898 5.5111C4.09893 5.35636 4.03741 5.20798 3.92795 5.0986C3.81849 4.98922 3.67007 4.9278 3.51533 4.92786C3.36058 4.92791 3.2122 4.98943 3.10282 5.09889L1.20057 7.00347C0.431898 7.77254 0.000214912 8.81545 0.000488411 9.9028C0.00076191 10.9901 0.43297 12.0328 1.20203 12.8015C1.97109 13.5702 3.01401 14.0019 4.10136 14.0016C5.1887 14.0013 6.2314 13.5691 7.00007 12.8001L8.90291 10.8972C9.00917 10.7872 9.06796 10.6399 9.06663 10.4869C9.0653 10.334 9.00396 10.1877 8.8958 10.0795C8.78765 9.97134 8.64134 9.90999 8.48839 9.90867C8.33544 9.90734 8.18809 9.96613 8.07807 10.0724H8.07632Z" fill="#000"/>
<path d="M12.8006 1.20226C12.421 0.820073 11.9694 0.51701 11.4718 0.310637C10.9743 0.104264 10.4407 -0.00131627 9.90203 1.43738e-05C9.36365 -0.0014158 8.83033 0.103893 8.33291 0.309853C7.83548 0.515812 7.38382 0.818335 7.00403 1.19993L5.09828 3.10335C4.98882 3.21273 4.9273 3.36111 4.92725 3.51585C4.92719 3.67059 4.98861 3.81902 5.09799 3.92847C5.20737 4.03793 5.35575 4.09945 5.51049 4.09951C5.66523 4.09956 5.81366 4.03814 5.92311 3.92876L7.8277 2.02593C8.09927 1.75273 8.42234 1.53611 8.7782 1.38862C9.13406 1.24112 9.51565 1.16569 9.90086 1.16668C10.4809 1.16687 11.0478 1.33902 11.5299 1.66135C12.0121 1.98368 12.3879 2.44173 12.6098 2.97759C12.8317 3.51346 12.8897 4.10308 12.7765 4.67192C12.6634 5.24076 12.3841 5.76328 11.974 6.17343L10.0712 8.07627C9.96174 8.18572 9.90025 8.33418 9.90025 8.48897C9.90025 8.64377 9.96174 8.79222 10.0712 8.90168C10.1807 9.01114 10.3291 9.07263 10.4839 9.07263C10.6387 9.07263 10.7872 9.01114 10.8966 8.90168L12.7994 7.00001C13.5671 6.23065 13.9984 5.18824 13.9986 4.10138C13.9988 3.01452 13.568 1.97193 12.8006 1.20226Z" fill="#000"/>
<path d="M8.33775 4.83758L4.83775 8.33758C4.78204 8.39139 4.7376 8.45576 4.70703 8.52692C4.67645 8.59809 4.66036 8.67464 4.65969 8.75209C4.65902 8.82955 4.67378 8.90636 4.70311 8.97805C4.73244 9.04974 4.77575 9.11487 4.83052 9.16964C4.88529 9.22441 4.95042 9.26773 5.02211 9.29706C5.0938 9.32639 5.17062 9.34115 5.24807 9.34047C5.32552 9.3398 5.40207 9.32371 5.47324 9.29314C5.54441 9.26256 5.60878 9.21812 5.66259 9.16241L9.16259 5.66241C9.26885 5.55239 9.32764 5.40504 9.32631 5.25209C9.32498 5.09914 9.26364 4.95284 9.15548 4.84468C9.04733 4.73653 8.90102 4.67518 8.74807 4.67385C8.59512 4.67252 8.44777 4.73132 8.33775 4.83758Z" fill="#000"/>
</g>
<defs>
<clipPath id="clip0_228_234">
<rect width="14" height="14" fill="#000"/>
</clipPath>
</defs>
</svg>
