<svg width="158" height="55" viewBox="0 0 158 55" fill="none" xmlns="http://www.w3.org/2000/svg">
<rect x="3.89722" y="8.91699" width="36.6872" height="36.6872" rx="6" fill="#0CFF00"/>
<path d="M15.2051 45.8656C5.83989 51.4459 -0.660454 37.946 4.08121 34.7139L11.6282 30.4641C13.1465 34.4227 15.4266 37.003 18.4687 38.2048C21.2031 39.285 22.962 38.8339 23.7452 36.8515C24.1368 35.8602 24.0646 34.9426 23.5287 34.0987C23.0063 33.2205 21.8273 32.0039 19.9916 30.4489C18.567 29.2539 17.3988 28.1601 16.4869 27.1676C15.6091 26.1886 14.7648 25.0252 13.9537 23.6774C13.1562 22.2954 12.7234 20.8402 12.6555 19.3118C12.5876 17.7833 12.8912 16.1646 13.5663 14.4556C14.7547 11.4477 16.899 9.3707 19.9993 8.2246C23.1473 7.05782 28.8806 4.70432 32.2231 5.9458C36.851 7.73459 40.4444 10.9917 43.0033 15.717L33.1328 22.5412C31.1457 19.0691 29.1096 16.9212 27.0246 16.0975C25.9992 15.6924 25.0776 15.6247 24.2598 15.8943C23.4762 16.1775 22.9156 16.7463 22.578 17.6008C22.2332 18.3735 22.3117 19.175 22.8135 20.0055C23.3494 20.8495 24.5045 22.0764 26.279 23.6863C27.2107 24.5285 27.8034 25.0788 28.057 25.3371C28.3241 25.5611 28.8381 26.0605 29.5989 26.8353C30.4074 27.5894 30.9079 28.123 31.1003 28.4361C31.3404 28.7285 31.7145 29.232 32.2226 29.9464C32.7783 30.6401 33.1151 31.1881 33.2328 31.5902C33.3506 31.9924 33.5236 32.5546 33.7519 33.2771C33.9936 33.9653 34.0816 34.5928 34.0158 35.1595C33.9842 35.7398 33.9017 36.3987 33.7683 37.1363C33.635 37.8739 33.413 38.6358 33.1024 39.422C32.4543 41.0627 31.5867 42.4586 30.4996 43.6097C29.4261 44.7267 28.2694 45.554 27.0297 46.0916C25.8034 46.595 24.4705 46.9181 23.0312 47.0607C21.6395 47.1827 20.2982 47.127 19.0074 46.8936C17.703 46.6944 16.4356 46.3518 15.2051 45.8656Z" fill="white"/>
<path d="M60.0416 38.8095C57.6236 38.8095 55.557 38.1957 53.8569 36.968C52.1567 35.7402 50.9847 34.2346 50.3398 32.4517L54.282 31.2676C54.719 32.4166 55.5024 33.4022 56.5243 34.0888C57.5796 34.8196 58.8397 35.1848 60.2905 35.1848C61.4778 35.1848 62.4451 34.9218 63.1925 34.3956C63.9399 33.8695 64.3058 33.2557 64.3058 32.5394C64.3083 32.2676 64.2535 31.9984 64.145 31.7491C64.0364 31.4998 63.8765 31.2761 63.6757 31.0924C63.2508 30.683 62.5328 30.3177 61.5213 30.0106L56.1574 28.33C54.6921 27.8767 53.5342 27.1897 52.6695 26.2835C51.8048 25.3773 51.3799 24.2806 51.3946 22.9801C51.38 21.3283 52.098 19.9104 53.5338 18.7414C54.9696 17.5723 56.7735 16.9873 58.9283 16.9873C61.112 16.9873 63.0171 17.4989 64.6438 18.5221C66.27 19.5453 67.3843 20.817 67.9851 22.3517L64.16 23.462C63.7205 22.5995 63.0313 21.9126 62.1081 21.3865C61.1558 20.8529 60.0787 20.5805 58.9866 20.5972C57.9902 20.5972 57.1841 20.8165 56.554 21.2549C55.9239 21.6932 55.6159 22.2345 55.6159 22.8627C55.6159 23.7836 56.2901 24.4411 57.6242 24.8361L62.8412 26.5168C64.673 27.072 66.0801 27.7737 67.0472 28.6216C68.0144 29.4694 68.4981 30.6825 68.4981 32.2611C68.4981 34.0883 67.7213 35.6228 66.1681 36.8799C64.6149 38.137 62.5919 38.7653 60.1154 38.7653L60.0416 38.8095Z" fill="#0E0E0E"/>
<path d="M78.7581 38.7663C76.4132 38.7663 74.4788 38.0062 72.9399 36.4714C71.401 34.9367 70.6393 33.0367 70.6393 30.7567C70.6393 28.4767 71.4157 26.5767 72.9546 25.0566C74.4936 23.5365 76.4279 22.7764 78.7728 22.7764C81.1178 22.7764 83.0521 23.5362 84.5907 25.0566C86.1293 26.5771 86.8917 28.4768 86.8917 30.7567C86.8917 33.0366 86.1302 34.9372 84.5907 36.4714C83.0513 38.0057 81.1175 38.7663 78.7872 38.7663H78.7581ZM81.8359 33.9281C82.6277 33.0949 83.0235 32.0427 83.0235 30.7714C83.0235 29.5 82.6277 28.4478 81.8359 27.6146C81.0445 26.7815 80.0188 26.3723 78.7581 26.3723C77.4974 26.3723 76.4719 26.7815 75.6803 27.6146C74.8887 28.4478 74.4927 29.5001 74.4927 30.7714C74.4927 32.0427 74.8885 33.0952 75.6803 33.9281C76.472 34.761 77.4974 35.1704 78.7581 35.1704C80.0188 35.1704 81.0441 34.7613 81.8359 33.9281Z" fill="#0E0E0E"/>
<path d="M96.9616 38.8096C94.6316 38.8096 92.7116 38.0349 91.1879 36.5001C89.6643 34.9654 88.9016 33.0507 88.9016 30.7706C88.9016 28.4904 89.6638 26.5906 91.1879 25.0703C92.7121 23.5499 94.6322 22.79 96.9328 22.79C98.8822 22.79 100.524 23.3016 101.857 24.3249C103.191 25.3481 104.026 26.4881 104.363 27.7596L100.67 28.8121C100.494 28.1251 100.07 27.5406 99.395 27.0433C98.7203 26.5461 97.9141 26.2981 96.9616 26.2981C95.7453 26.2981 94.7486 26.7368 93.9866 27.5989C93.2245 28.461 92.8435 29.5139 92.8435 30.7557C92.8215 31.915 93.2343 33.0408 94.0012 33.9124C94.778 34.804 95.7747 35.2425 96.9917 35.2425C97.9295 35.2425 98.7355 35.0085 99.4241 34.5262C100.113 34.0439 100.538 33.474 100.714 32.816L104.407 33.8392C104.07 35.14 103.249 36.2803 101.93 37.274C100.611 38.2677 98.9845 38.7653 97.0354 38.7653L96.9616 38.8096Z" fill="#0E0E0E"/>
<path d="M109.288 21.095C108.978 21.1028 108.67 21.0471 108.383 20.9313C108.096 20.8156 107.835 20.6423 107.617 20.4222C107.395 20.2061 107.219 19.9469 107.1 19.6604C106.982 19.374 106.924 19.0665 106.929 18.7567C106.924 18.4533 106.982 18.1522 107.101 17.8728C107.22 17.5934 107.396 17.3418 107.617 17.1343C108.071 16.7117 108.668 16.4766 109.288 16.4766C109.908 16.4766 110.506 16.7117 110.959 17.1343C111.181 17.3418 111.357 17.5934 111.475 17.8728C111.594 18.1522 111.653 18.4533 111.648 18.7567C111.655 19.0647 111.597 19.3706 111.478 19.655C111.359 19.9394 111.183 20.196 110.959 20.4085C110.739 20.6237 110.477 20.7928 110.19 20.9058C109.903 21.0187 109.597 21.0733 109.288 21.0661L109.288 21.095ZM107.236 23.2285H111.222V38.372H107.236L107.236 23.2285Z" fill="#0E0E0E"/>
<path d="M121.761 38.7809C119.636 38.7809 117.862 38.0207 116.426 36.486C114.99 34.9513 114.271 33.0513 114.271 30.7852C114.271 28.4904 114.99 26.5758 116.426 25.0556C117.862 23.5355 119.65 22.7754 121.775 22.7754C123.856 22.7754 125.483 23.5208 126.655 25.0264V23.2H130.656V38.3425H126.655V36.486C125.483 38.0062 123.856 38.7663 121.775 38.7663L121.761 38.7809ZM122.449 35.2145C123.023 35.2263 123.592 35.1194 124.122 34.9005C124.652 34.6817 125.13 34.3556 125.527 33.943C126.363 33.0953 126.773 32.0281 126.773 30.7273C126.773 29.4558 126.363 28.4035 125.527 27.5706C125.127 27.1626 124.648 26.8406 124.119 26.6245C123.589 26.4083 123.021 26.3025 122.449 26.3136C121.203 26.3136 120.178 26.7228 119.372 27.556C118.565 28.3891 118.17 29.456 118.17 30.7568C118.17 32.0725 118.565 33.1539 119.372 33.9871C120.178 34.8203 121.203 35.244 122.449 35.244V35.2145Z" fill="#0E0E0E"/>
<path d="M138.499 16.4902H134.542V38.3414H138.499V16.4902Z" fill="#0E0E0E"/>
<path d="M157.888 23.1992L148.758 44.6266H144.684L147.439 38.0057L140.566 23.1992H144.918L149.417 33.4307L153.653 23.1992H157.888Z" fill="#0E0E0E"/>
</svg>
