<svg width="1000" height="239" viewBox="0 0 1000 239" fill="none" xmlns="http://www.w3.org/2000/svg">
<path d="M128.896 181.429C123.831 194.286 112.403 197.208 94.6104 190.195C74.8702 182.403 60.065 165.649 50.1948 139.935L1.23377 167.533C0.779221 167.857 0.389611 168.117 0 168.571V38.9611C0 17.4675 17.4675 0 38.9611 0H94.6104C79.7403 7.92208 69.1559 19.8701 62.7922 35.974C58.4416 47.0779 56.4286 57.5974 56.8832 67.5325C57.3377 77.4676 60.1299 86.8832 65.3247 95.8442C70.5845 104.61 76.1039 112.143 81.7533 118.507C87.6624 124.935 95.2598 132.078 104.546 139.805C116.429 149.935 124.091 157.857 127.468 163.507C130.974 169.026 131.429 175 128.896 181.429Z" fill="#0CFF00"/>
<path d="M238.248 55V199.286C238.248 220.779 220.78 238.247 199.286 238.247H156.494C162.209 234.935 167.663 230.585 172.793 225.26C179.806 217.792 185.455 208.766 189.676 198.117C191.689 192.987 193.118 188.052 193.962 183.247C194.871 178.442 195.39 174.156 195.585 170.39C196.04 166.753 195.455 162.662 193.897 158.182C192.403 153.507 191.299 149.87 190.52 147.273C189.741 144.61 187.533 141.039 183.962 136.558C180.65 131.948 178.248 128.636 176.689 126.753C175.39 124.74 172.144 121.234 166.949 116.364C161.949 111.364 158.637 108.117 156.884 106.623C155.26 104.935 151.429 101.364 145.39 95.9091C133.832 85.4546 126.364 77.4676 122.858 72.013C119.611 66.6234 119.092 61.4286 121.299 56.4286C123.507 50.8442 127.144 47.1429 132.273 45.3247C137.533 43.5714 143.572 44.026 150.196 46.6234C163.767 52.013 176.949 65.9091 189.871 88.5065L238.248 55Z" fill="#0CFF00"/>
<path d="M128.896 181.429C123.831 194.286 112.403 197.208 94.6104 190.195C74.8702 182.403 60.065 165.649 50.1948 139.935L1.23377 167.533C0.779221 167.857 0.389611 168.117 0 168.571V38.9611C0 17.4675 17.4675 0 38.9611 0H94.6104C79.7403 7.92208 69.1559 19.8701 62.7922 35.974C58.4416 47.0779 56.4286 57.5974 56.8832 67.5325C57.3377 77.4676 60.1299 86.8832 65.3247 95.8442C70.5845 104.61 76.1039 112.143 81.7533 118.507C87.6624 124.935 95.2598 132.078 104.546 139.805C116.429 149.935 124.091 157.857 127.468 163.507C130.974 169.026 131.429 175 128.896 181.429Z" fill="#0CFF00"/>
<path d="M238.248 55V199.286C238.248 220.779 220.78 238.247 199.286 238.247H156.494C162.209 234.935 167.663 230.585 172.793 225.26C179.806 217.792 185.455 208.766 189.676 198.117C191.689 192.987 193.118 188.052 193.962 183.247C194.871 178.442 195.39 174.156 195.585 170.39C196.04 166.753 195.455 162.662 193.897 158.182C192.403 153.507 191.299 149.87 190.52 147.273C189.741 144.61 187.533 141.039 183.962 136.558C180.65 131.948 178.248 128.636 176.689 126.753C175.39 124.74 172.144 121.234 166.949 116.364C161.949 111.364 158.637 108.117 156.884 106.623C155.26 104.935 151.429 101.364 145.39 95.9091C133.832 85.4546 126.364 77.4676 122.858 72.013C119.611 66.6234 119.092 61.4286 121.299 56.4286C123.507 50.8442 127.144 47.1429 132.273 45.3247C137.533 43.5714 143.572 44.026 150.196 46.6234C163.767 52.013 176.949 65.9091 189.871 88.5065L238.248 55Z" fill="#0CFF00"/>
<path d="M364.612 194.156C348.898 194.156 335.521 190.195 324.482 182.208C313.443 174.221 305.846 164.481 301.625 152.857L327.209 145.195C330.067 152.663 335.132 159.026 341.755 163.507C348.638 168.247 356.82 170.65 366.235 170.65C373.963 170.65 380.196 168.961 385.067 165.52C389.937 162.078 392.274 158.117 392.274 153.442C392.274 151.689 391.95 149.935 391.235 148.312C390.521 146.689 389.482 145.26 388.183 144.026C385.456 141.364 380.781 139.026 374.222 137.013L339.417 126.104C329.872 123.182 322.404 118.702 316.755 112.792C311.106 106.883 308.378 99.8055 308.508 91.3639C308.443 80.6496 313.054 71.4288 322.404 63.8314C331.755 56.234 343.443 52.4678 357.404 52.4678C371.365 52.4678 383.963 55.7795 394.547 62.4028C405.132 69.0262 412.339 77.273 416.235 87.273L391.365 94.4808C388.508 88.8964 384.028 84.4158 378.054 80.9743C371.885 77.5327 364.872 75.7145 357.794 75.8444C351.3 75.8444 346.106 77.273 342.015 80.1301C337.924 82.9873 335.911 86.4938 335.911 90.5847C335.911 96.5587 340.261 100.844 348.963 103.377L382.859 114.286C394.742 117.922 403.898 122.468 410.196 127.922C416.495 133.442 419.612 141.299 419.612 151.559C419.612 163.442 414.547 173.377 404.482 181.559C394.417 189.741 381.235 193.831 365.196 193.831L364.742 194.091L364.612 194.156Z" fill="white"/>
<path d="M486.106 193.832C470.846 193.832 458.314 188.897 448.314 178.962C438.314 169.027 433.379 156.689 433.379 141.884C433.379 127.078 438.444 114.741 448.444 104.871C458.444 95.0005 470.976 90.0654 486.236 90.0654C501.496 90.0654 514.028 95.0005 524.028 104.871C534.028 114.741 538.963 127.078 538.963 141.884C538.963 156.689 534.028 169.027 524.028 178.962C514.028 188.897 501.496 193.832 486.366 193.832H486.171H486.106ZM506.106 162.403C511.236 157.014 513.833 150.13 513.833 141.884C513.833 133.637 511.236 126.819 506.106 121.364C500.976 115.975 494.288 113.312 486.106 113.312C477.924 113.312 471.236 115.975 466.106 121.364C460.976 126.754 458.379 133.637 458.379 141.884C458.379 150.13 460.976 156.949 466.106 162.403C471.236 167.793 477.924 170.455 486.106 170.455C494.288 170.455 500.976 167.793 506.106 162.403Z" fill="white"/>
<path d="M604.349 194.155C589.22 194.155 576.752 189.155 566.882 179.155C557.012 169.22 552.012 156.752 552.012 141.947C552.012 127.142 556.947 114.804 566.882 104.934C576.752 95.064 589.22 90.1289 604.155 90.1289C616.817 90.1289 627.466 93.4406 636.103 100.064C644.739 106.687 650.194 114.09 652.401 122.337L628.44 129.155C627.271 124.674 624.544 120.908 620.129 117.661C615.778 114.415 610.518 112.791 604.349 112.791C596.427 112.791 589.999 115.648 584.999 121.233C580.064 126.817 577.596 133.635 577.596 141.752C577.466 149.285 580.129 156.622 585.129 162.272C590.194 168.051 596.622 170.908 604.544 170.908C610.648 170.908 615.843 169.415 620.323 166.233C624.804 163.116 627.531 159.415 628.7 155.129L652.661 161.752C650.453 170.194 645.129 177.596 636.557 184.025C627.986 190.454 617.401 193.7 604.804 193.7L604.349 193.96V194.155Z" fill="white"/>
<path d="M684.418 79.0913C682.405 79.0913 680.392 78.7667 678.509 78.0524C676.626 77.2731 674.938 76.1693 673.509 74.7407C672.08 73.3121 670.912 71.6238 670.132 69.8056C669.353 67.9225 668.964 65.9744 669.028 63.9615C669.028 62.0134 669.353 60.0653 670.132 58.2472C670.912 56.429 672.08 54.8056 673.509 53.442C676.431 50.7147 680.327 49.1562 684.353 49.1562C688.379 49.1562 692.275 50.7147 695.197 53.442C696.626 54.8056 697.795 56.429 698.574 58.2472C699.353 60.0653 699.743 62.0134 699.678 63.9615C699.678 65.9744 699.353 67.9225 698.574 69.8056C697.795 71.6238 696.691 73.3121 695.197 74.6757C693.769 76.1043 692.08 77.1433 690.197 77.9225C688.314 78.6368 686.366 79.0264 684.353 78.9615V79.1563L684.418 79.0913ZM671.106 92.9225H697.015V191.234H671.106V92.9225Z" fill="white"/>
<path d="M765.388 193.963C751.622 193.963 740.063 189.028 730.777 179.092C721.427 169.157 716.816 156.82 716.816 142.079C716.816 127.339 721.492 114.742 730.777 104.872C740.128 95.0015 751.687 90.0664 765.518 90.0664C779.349 90.0664 789.609 94.9365 797.206 104.677V92.7937H823.18V191.105H797.206V179.027C789.609 188.898 779.024 193.833 765.518 193.833H765.453L765.388 193.963ZM769.868 170.781C773.57 170.846 777.271 170.131 780.713 168.768C784.154 167.339 787.271 165.261 789.803 162.534C795.258 157.015 797.92 150.131 797.92 141.625C797.92 133.118 795.258 126.56 789.803 121.105C787.206 118.443 784.089 116.365 780.648 114.937C777.206 113.508 773.505 112.859 769.803 112.924C761.752 112.924 755.063 115.586 749.803 120.976C744.544 126.365 742.011 133.313 742.011 141.755C742.011 150.196 744.609 157.339 749.803 162.729C755.063 168.118 761.687 170.911 769.803 170.911V170.716L769.868 170.781Z" fill="white"/>
<path d="M874.093 49.2207H848.379V191.104H874.093V49.2207Z" fill="white"/>
<path d="M999.934 92.793L940.649 231.949H914.22L932.077 188.962L887.467 92.793H915.714L944.934 159.222L972.467 92.793H999.999H999.934Z" fill="white"/>
</svg>
