<svg width="158" height="49" viewBox="0 0 158 49" fill="none" xmlns="http://www.w3.org/2000/svg">
<path d="M24.2599 2.51282C21.4009 2.51282 18.5697 3.08159 15.9282 4.18648C13.2868 5.29149 10.8868 6.91101 8.86501 8.95267C6.84336 10.9945 5.23972 13.4182 4.14554 16.0858C3.05148 18.7534 2.48828 21.6126 2.48828 24.5C2.48828 27.3874 3.05148 30.2466 4.14554 32.9142C5.23972 35.5818 6.84336 38.0055 8.86501 40.0473C10.8868 42.089 13.2868 43.7085 15.9282 44.8135C18.5697 45.9184 21.4009 46.4872 24.2599 46.4872V35.4936C22.8303 35.4936 21.4148 35.2093 20.0941 34.6567C18.7734 34.1042 17.5733 33.2945 16.5625 32.2737C15.5516 31.2528 14.7498 30.0409 14.2028 28.7071C13.6556 27.3733 13.3741 25.9437 13.3741 24.5C13.3741 23.0563 13.6556 21.6267 14.2028 20.2929C14.7498 18.9591 15.5516 17.7472 16.5625 16.7263C17.5733 15.7055 18.7734 14.8957 20.0941 14.3433C21.4148 13.7907 22.8303 13.5064 24.2599 13.5064V2.51282Z" fill="#8717F8"/>
<path d="M24.2601 31.8291C28.2682 31.8291 31.5173 28.5478 31.5173 24.5C31.5173 20.4523 28.2682 17.171 24.2601 17.171C20.252 17.171 17.0029 20.4523 17.0029 24.5C17.0029 28.5478 20.252 31.8291 24.2601 31.8291Z" fill="#8717F8"/>
<path d="M2.48828 24.5C2.48828 27.3874 3.05148 30.2466 4.14554 32.9142C5.23972 35.5818 6.84336 38.0055 8.86501 40.0473C10.8868 42.089 13.2868 43.7085 15.9282 44.8135C18.5697 45.9184 21.4009 46.4872 24.2599 46.4872C27.119 46.4872 29.9502 45.9184 32.5916 44.8135C35.2331 43.7085 37.6331 42.089 39.6549 40.0473C41.6765 38.0055 43.2801 35.5818 44.3743 32.9142C45.4684 30.2466 46.0316 27.3874 46.0316 24.5H35.1458C35.1458 25.9437 34.8642 27.3733 34.3171 28.7071C33.77 30.0409 32.9682 31.2528 31.9574 32.2737C30.9466 33.2945 29.7465 34.1043 28.4258 34.6567C27.1051 35.2093 25.6895 35.4936 24.2599 35.4936C22.8303 35.4936 21.4148 35.2093 20.0941 34.6567C18.7734 34.1043 17.5733 33.2945 16.5625 32.2737C15.5516 31.2528 14.7498 30.0409 14.2028 28.7071C13.6556 27.3733 13.3741 25.9437 13.3741 24.5H2.48828Z" fill="#5BD0F4"/>
<path d="M31.5174 24.5C31.5174 22.5562 30.7528 20.6921 29.3919 19.3176C28.0308 17.9431 26.185 17.1709 24.2602 17.1709C22.3355 17.1709 20.4896 17.9431 19.1286 19.3176C17.7676 20.6921 17.0029 22.5562 17.0029 24.5H24.2602H31.5174Z" fill="#5BD0F4"/>
<path d="M57.4023 16.2391H54.6982V31.4103H57.4023V16.2391Z" fill="#8717F8"/>
<path d="M59.168 26.0353C59.168 29.5463 61.5716 31.7136 64.7477 31.7136C67.9239 31.7136 70.3275 29.5463 70.3275 26.0353C70.3275 22.5242 67.9239 20.3569 64.7477 20.3569C61.5716 20.3569 59.168 22.5242 59.168 26.0353ZM61.872 26.0353C61.872 23.9547 63.0738 22.741 64.7477 22.741C66.4217 22.741 67.6235 23.9547 67.6235 26.0353C67.6235 28.1159 66.4217 29.3296 64.7477 29.3296C63.0738 29.3296 61.872 28.1159 61.872 26.0353Z" fill="#8717F8"/>
<path d="M79.9905 20.6604V22.1124H79.7759C79.1321 21.1805 78.102 20.3569 76.2564 20.3569C73.724 20.3569 71.4492 22.5242 71.4492 25.8619C71.4492 29.1995 73.724 31.3669 76.2564 31.3669C78.102 31.3669 79.1321 30.5215 79.733 29.6764H79.9476V30.7167C79.9476 32.7973 78.7458 33.7509 76.9861 33.7509C75.2263 33.7509 74.3249 32.7973 73.9601 31.5619L71.5351 32.6239C72.093 34.2493 73.724 36.0482 77.029 36.0482C80.4198 36.0482 82.6517 34.2493 82.6517 30.7816V20.6604H79.9905ZM77.0719 29.0262C75.398 29.0262 74.1533 27.8125 74.1533 25.8619C74.1533 23.9113 75.398 22.6976 77.0719 22.6976C78.7458 22.6976 79.9905 23.9113 79.9905 25.8619C79.9905 27.8125 78.7458 29.0262 77.0719 29.0262Z" fill="#8717F8"/>
<path d="M84.4004 26.0353C84.4004 29.5463 86.804 31.7136 89.9802 31.7136C93.1563 31.7136 95.5598 29.5463 95.5598 26.0353C95.5598 22.5242 93.1563 20.3569 89.9802 20.3569C86.804 20.3569 84.4004 22.5242 84.4004 26.0353ZM87.1044 26.0353C87.1044 23.9547 88.3062 22.741 89.9802 22.741C91.6541 22.741 92.8559 23.9547 92.8559 26.0353C92.8559 28.1159 91.6541 29.3296 89.9802 29.3296C88.3062 29.3296 87.1044 28.1159 87.1044 26.0353Z" fill="#8717F8"/>
<path d="M97.6826 17.5395C97.6826 18.6449 98.5199 19.4034 99.5936 19.4034C100.666 19.4034 101.503 18.6449 101.503 17.5395C101.503 16.4343 100.666 15.6757 99.5936 15.6757C98.5199 15.6757 97.6826 16.4343 97.6826 17.5395ZM100.945 20.6605H98.2412V31.4103H100.945V20.6605Z" fill="#5BD0F4"/>
<path d="M103.354 35.7448H106.059V30.0231H106.273C106.874 30.89 107.904 31.7136 109.75 31.7136C112.282 31.7136 114.558 29.5463 114.558 26.0353C114.558 22.5242 112.282 20.3569 109.75 20.3569C107.904 20.3569 106.874 21.1805 106.231 22.1125H106.016V20.6604H103.354V35.7448ZM108.934 29.3729C107.261 29.3729 106.016 28.1592 106.016 26.0353C106.016 23.9113 107.261 22.6976 108.934 22.6976C110.609 22.6976 111.853 23.9113 111.853 26.0353C111.853 28.1592 110.609 29.3729 108.934 29.3729Z" fill="#5BD0F4"/>
<path d="M116.135 23.673C116.135 25.7969 117.894 26.5772 120.126 27.0106L120.685 27.1189C122.015 27.379 122.615 27.7042 122.615 28.3977C122.615 29.0912 122.015 29.633 120.77 29.633C119.525 29.633 118.517 29.1129 118.237 27.5524L115.748 28.2026C116.114 30.4566 117.98 31.7136 120.77 31.7136C123.474 31.7136 125.234 30.435 125.234 28.181C125.234 25.9269 123.432 25.3201 121.028 24.8433L120.469 24.7349C119.353 24.5182 118.753 24.2147 118.753 23.4996C118.753 22.8494 119.311 22.4375 120.341 22.4375C121.371 22.4375 122.1 22.871 122.358 24.0414L124.805 23.2829C124.29 21.549 122.724 20.3569 120.341 20.3569C117.808 20.3569 116.135 21.549 116.135 23.673Z" fill="#5BD0F4"/>
<path d="M137.38 31.4102V20.6604H134.677V26.2087C134.677 28.2026 133.711 29.373 132.058 29.373C130.599 29.373 129.784 28.5711 129.784 26.9456V20.6604H127.079V27.0756C127.079 29.7415 128.732 31.5836 131.222 31.5836C133.174 31.5836 134.076 30.7167 134.505 29.8064H134.719V31.4102H137.38Z" fill="#5BD0F4"/>
<path d="M139.779 20.6604V31.4103H142.484V24.9951C142.484 23.5213 143.171 22.6977 144.415 22.6977C145.488 22.6977 146.132 23.3046 146.132 24.4749V31.4103H148.836V24.9951C148.836 23.5213 149.523 22.6977 150.767 22.6977C151.841 22.6977 152.484 23.3046 152.484 24.4749V31.4103H155.189V24.3449C155.189 21.7441 153.6 20.4871 151.626 20.4871C149.888 20.4871 149.094 21.2673 148.579 22.1776H148.364C147.87 21.159 146.99 20.4871 145.445 20.4871C143.9 20.4871 143.062 21.1806 142.656 22.0042H142.44V20.6604H139.779Z" fill="#5BD0F4"/>
</svg>
