<svg width="158" height="55" viewBox="0 0 158 55" fill="none" xmlns="http://www.w3.org/2000/svg">
<rect x="3.89697" y="8.91724" width="36.6872" height="36.6872" rx="6" fill="#0CFF00"/>
<path d="M15.2048 45.8656C5.83964 51.4459 -0.660698 37.946 4.08097 34.7139L11.6279 30.4641C13.1462 34.4227 15.4264 37.003 18.4685 38.2048C21.2029 39.285 22.9617 38.8339 23.7449 36.8515C24.1365 35.8602 24.0644 34.9426 23.5285 34.0987C23.006 33.2205 21.827 32.0039 19.9914 30.4489C18.5668 29.2539 17.3985 28.1601 16.4866 27.1676C15.6089 26.1886 14.7645 25.0252 13.9535 23.6774C13.1559 22.2954 12.7232 20.8402 12.6552 19.3118C12.5873 17.7833 12.8909 16.1646 13.5661 14.4556C14.7544 11.4477 16.8987 9.3707 19.999 8.2246C23.147 7.05782 28.8804 4.70432 32.2229 5.9458C36.8508 7.73459 40.4442 10.9917 43.0031 15.717L33.1326 22.5412C31.1455 19.0691 29.1094 16.9212 27.0244 16.0975C25.999 15.6924 25.0774 15.6247 24.2596 15.8943C23.4759 16.1775 22.9153 16.7463 22.5777 17.6008C22.233 18.3735 22.3115 19.175 22.8132 20.0055C23.3491 20.8495 24.5043 22.0764 26.2787 23.6863C27.2105 24.5285 27.8031 25.0788 28.0568 25.3371C28.3239 25.5611 28.8378 26.0605 29.5987 26.8353C30.4072 27.5894 30.9077 28.123 31.1001 28.4361C31.3402 28.7285 31.7143 29.232 32.2223 29.9464C32.7781 30.6401 33.1148 31.1881 33.2326 31.5902C33.3503 31.9924 33.5233 32.5546 33.7516 33.2771C33.9934 33.9653 34.0814 34.5928 34.0156 35.1595C33.9839 35.7398 33.9014 36.3987 33.7681 37.1363C33.6347 37.8739 33.4128 38.6358 33.1022 39.422C32.454 41.0627 31.5864 42.4586 30.4994 43.6097C29.4259 44.7267 28.2692 45.554 27.0294 46.0916C25.8031 46.595 24.4703 46.9181 23.0309 47.0607C21.6392 47.1827 20.298 47.127 19.0071 46.8936C17.7028 46.6944 16.4353 46.3518 15.2048 45.8656Z" fill="#0E0E0E"/>
<path d="M60.0416 38.8103C57.6236 38.8103 55.557 38.1964 53.8569 36.9687C52.1567 35.7409 50.9847 34.2353 50.3398 32.4524L54.282 31.2683C54.719 32.4173 55.5024 33.403 56.5243 34.0895C57.5796 34.8204 58.8397 35.1856 60.2905 35.1856C61.4778 35.1856 62.4451 34.9225 63.1925 34.3963C63.9399 33.8702 64.3058 33.2564 64.3058 32.5401C64.3083 32.2684 64.2535 31.9991 64.145 31.7499C64.0364 31.5006 63.8765 31.2768 63.6757 31.0932C63.2508 30.6838 62.5328 30.3185 61.5213 30.0114L56.1574 28.3307C54.6921 27.8774 53.5342 27.1905 52.6695 26.2843C51.8048 25.3781 51.3799 24.2814 51.3946 22.9808C51.38 21.3291 52.098 19.9112 53.5338 18.7421C54.9696 17.573 56.7735 16.988 58.9283 16.988C61.112 16.988 63.0171 17.4996 64.6438 18.5229C66.27 19.5461 67.3843 20.8177 67.9851 22.3524L64.16 23.4627C63.7205 22.6003 63.0313 21.9133 62.1081 21.3872C61.1558 20.8536 60.0787 20.5813 58.9866 20.5979C57.9902 20.5979 57.1841 20.8173 56.554 21.2556C55.9239 21.694 55.6159 22.2353 55.6159 22.8635C55.6159 23.7844 56.2901 24.4418 57.6242 24.8369L62.8412 26.5175C64.673 27.0727 66.0801 27.7745 67.0472 28.6223C68.0144 29.4702 68.4981 30.6832 68.4981 32.2618C68.4981 34.089 67.7213 35.6235 66.1681 36.8806C64.6149 38.1378 62.5919 38.7661 60.1154 38.7661L60.0416 38.8103Z" fill="white"/>
<path d="M78.758 38.7668C76.413 38.7668 74.4787 38.0066 72.9398 36.4719C71.4009 34.9372 70.6392 33.0372 70.6392 30.7572C70.6392 28.4771 71.4156 26.5772 72.9545 25.0571C74.4934 23.537 76.4278 22.7769 78.7727 22.7769C81.1177 22.7769 83.052 23.5366 84.5906 25.0571C86.1292 26.5776 86.8915 28.4772 86.8915 30.7572C86.8915 33.0371 86.1301 34.9377 84.5906 36.4719C83.0511 38.0062 81.1173 38.7668 78.7871 38.7668H78.758ZM81.8358 33.9286C82.6275 33.0954 83.0234 32.0432 83.0234 30.7719C83.0234 29.5005 82.6275 28.4483 81.8358 27.6151C81.0444 26.782 80.0187 26.3728 78.758 26.3728C77.4973 26.3728 76.4718 26.782 75.6802 27.6151C74.8885 28.4483 74.4926 29.5006 74.4926 30.7719C74.4926 32.0432 74.8884 33.0956 75.6802 33.9286C76.4719 34.7615 77.4973 35.1709 78.758 35.1709C80.0187 35.1709 81.044 34.7617 81.8358 33.9286Z" fill="white"/>
<path d="M96.9619 38.8103C94.6319 38.8103 92.7118 38.0356 91.1882 36.5009C89.6645 34.9662 88.9019 33.0514 88.9019 30.7713C88.9019 28.4912 89.664 26.5914 91.1882 25.071C92.7124 23.5507 94.6324 22.7908 96.933 22.7908C98.8824 22.7908 100.524 23.3024 101.857 24.3256C103.191 25.3488 104.026 26.4888 104.363 27.7603L100.67 28.8128C100.494 28.1259 100.07 27.5413 99.3952 27.0441C98.7206 26.5468 97.9143 26.2989 96.9619 26.2989C95.7456 26.2989 94.7489 26.7376 93.9868 27.5997C93.2248 28.4618 92.8438 29.5146 92.8438 30.7564C92.8217 31.9158 93.2346 33.0416 94.0015 33.9131C94.7782 34.8047 95.7749 35.2432 96.992 35.2432C97.9297 35.2432 98.7358 35.0093 99.4243 34.5269C100.113 34.0446 100.538 33.4748 100.714 32.8168L104.407 33.84C104.07 35.1408 103.249 36.281 101.93 37.2747C100.612 38.2684 98.9847 38.766 97.0356 38.766L96.9619 38.8103Z" fill="white"/>
<path d="M109.288 21.0955C108.978 21.1032 108.67 21.0475 108.383 20.9318C108.095 20.8161 107.835 20.6428 107.617 20.4227C107.395 20.2066 107.219 19.9473 107.1 19.6609C106.982 19.3745 106.923 19.067 106.929 18.7572C106.924 18.4538 106.982 18.1527 107.101 17.8733C107.219 17.5939 107.395 17.3423 107.617 17.1348C108.07 16.7122 108.668 16.4771 109.288 16.4771C109.908 16.4771 110.506 16.7122 110.959 17.1348C111.181 17.3423 111.357 17.5939 111.475 17.8733C111.594 18.1527 111.653 18.4538 111.648 18.7572C111.654 19.0652 111.596 19.3711 111.478 19.6555C111.359 19.9398 111.182 20.1965 110.959 20.4089C110.739 20.6242 110.477 20.7933 110.19 20.9063C109.903 21.0192 109.597 21.0737 109.288 21.0666L109.288 21.0955ZM107.236 23.229H111.222V38.3725H107.236L107.236 23.229Z" fill="white"/>
<path d="M121.761 38.7811C119.636 38.7811 117.862 38.021 116.426 36.4863C114.99 34.9516 114.271 33.0515 114.271 30.7854C114.271 28.4906 114.99 26.576 116.426 25.0559C117.862 23.5358 119.65 22.7756 121.775 22.7756C123.856 22.7756 125.483 23.5211 126.655 25.0266V23.2003H130.656V38.3428H126.656V36.4863C125.483 38.0064 123.856 38.7665 121.775 38.7665L121.761 38.7811ZM122.449 35.2148C123.023 35.2265 123.592 35.1196 124.122 34.9008C124.652 34.6819 125.13 34.3559 125.527 33.9433C126.363 33.0955 126.773 32.0283 126.773 30.7275C126.773 29.456 126.363 28.4038 125.527 27.5708C125.127 27.1629 124.648 26.8409 124.119 26.6247C123.589 26.4085 123.021 26.3028 122.449 26.3139C121.204 26.3139 120.178 26.7231 119.372 27.5562C118.565 28.3894 118.17 29.4562 118.17 30.757C118.17 32.0727 118.566 33.1542 119.372 33.9873C120.178 34.8205 121.203 35.2443 122.449 35.2443V35.2148Z" fill="white"/>
<path d="M138.499 16.4912H134.542V38.3424H138.499V16.4912Z" fill="white"/>
<path d="M157.888 23.2002L148.758 44.6276H144.684L147.439 38.0067L140.566 23.2002H144.919L149.418 33.4317L153.653 23.2002H157.888Z" fill="white"/>
</svg>
