<svg width="198" height="36" viewBox="0 0 198 36" fill="none" xmlns="http://www.w3.org/2000/svg">
<g clip-path="url(#clip0_165_1257)">
<path d="M111.13 26.5714H115.365V10.7417H111.13V26.5714ZM111.13 8.27312H115.365V4.50854H111.13V8.27312Z" fill="black"/>
<path d="M118.095 31.7554H122.33V24.7817H122.392C123.294 26.1394 124.759 27.0343 127 27.0343C131.111 27.0343 133.914 23.7943 133.914 18.672C133.914 13.7348 131.205 10.3097 126.969 10.3097C124.789 10.3097 123.295 11.328 122.267 12.7166H122.174V10.7417H118.095V31.7554ZM126.097 23.5474C123.575 23.5474 122.236 21.6652 122.236 18.7954C122.236 15.9566 123.294 13.704 125.942 13.704C128.558 13.704 129.616 15.8023 129.616 18.7954C129.616 21.7886 128.246 23.5474 126.097 23.5474Z" fill="black"/>
<path d="M142.361 27.0343C146.347 27.0343 149.087 25.1212 149.087 21.9428C149.087 18.24 146.129 17.4994 143.451 16.944C141.177 16.4812 139.06 16.3577 139.06 15C139.06 13.8583 140.15 13.2412 141.8 13.2412C143.607 13.2412 144.697 13.8583 144.883 15.5554H148.713C148.403 12.3772 146.067 10.3097 141.863 10.3097C138.219 10.3097 135.355 11.9452 135.355 15.3703C135.355 18.8263 138.157 19.5977 141.022 20.1532C143.202 20.5852 145.225 20.7394 145.225 22.2514C145.225 23.3623 144.167 24.072 142.299 24.072C140.399 24.072 139.091 23.2697 138.811 21.4492H134.888C135.137 24.8126 137.721 27.0343 142.361 27.0343Z" fill="black"/>
<path d="M165.166 26.5714V10.7417H160.931V19.8754C160.931 21.9737 159.717 23.4548 157.724 23.4548C155.918 23.4548 155.077 22.4366 155.077 20.5852V10.7417H150.873V21.2948C150.873 24.7508 152.866 27.0034 156.416 27.0034C158.659 27.0034 159.904 26.1703 160.994 24.72H161.087V26.5714H165.166Z" fill="black"/>
<path d="M167.906 26.5714H172.141V17.376C172.141 15.2777 173.294 13.92 175.007 13.92C176.564 13.92 177.467 14.8457 177.467 16.6354V26.5714H181.702V17.376C181.702 15.2777 182.792 13.92 184.566 13.92C186.124 13.92 187.027 14.8457 187.027 16.6354V26.5714H191.262V15.9257C191.262 12.4697 189.362 10.3097 185.999 10.3097C183.975 10.3097 182.293 11.3588 181.203 13.0868H181.141C180.363 11.4206 178.744 10.3097 176.719 10.3097C174.508 10.3097 172.952 11.4206 172.08 12.8708H171.986V10.7417H167.906V26.5714Z" fill="black"/>
<path d="M0.749023 26.5714H4.98409V4.50854H0.749023V26.5714Z" fill="black"/>
<path d="M15.3388 27.0343C20.2901 27.0343 23.6843 23.3932 23.6843 18.672C23.6843 13.9508 20.2901 10.3097 15.3388 10.3097C10.3874 10.3097 6.99316 13.9508 6.99316 18.672C6.99316 23.3932 10.3874 27.0343 15.3388 27.0343ZM15.3388 23.8252C12.723 23.8252 11.2905 21.7577 11.2905 18.672C11.2905 15.5863 12.723 13.488 15.3388 13.488C17.9234 13.488 19.387 15.5863 19.387 18.672C19.387 21.7577 17.9234 23.8252 15.3388 23.8252Z" fill="black"/>
<path d="M32.6912 31.9714C35.0578 31.9714 37.1131 31.416 38.4521 30.1817C39.6354 29.1017 40.3517 27.5897 40.3517 25.368V10.7417H36.2724V12.408H36.21C35.2447 11.0812 33.7811 10.3097 31.7881 10.3097C27.7399 10.3097 24.875 13.3337 24.875 18.0548C24.875 22.8377 28.3627 25.6148 31.9127 25.6148C33.9368 25.6148 35.1513 24.8126 36.0854 23.7634H36.1789V25.4914C36.1789 27.6514 35.0267 28.7932 32.6289 28.7932C30.667 28.7932 29.764 28.0217 29.4215 27.0343H25.2175C25.6535 30.12 28.3316 31.9714 32.6912 31.9714ZM32.6289 22.2514C30.4491 22.2514 29.0167 20.6777 29.0167 17.9932C29.0167 15.3394 30.4491 13.6732 32.5977 13.6732C35.1513 13.6732 36.3969 15.648 36.3969 17.9623C36.3969 20.3074 35.307 22.2514 32.6289 22.2514Z" fill="black"/>
<path d="M50.6454 27.0343C55.5967 27.0343 58.991 23.3932 58.991 18.672C58.991 13.9508 55.5967 10.3097 50.6454 10.3097C45.6941 10.3097 42.2998 13.9508 42.2998 18.672C42.2998 23.3932 45.6941 27.0343 50.6454 27.0343ZM50.6454 23.8252C48.0296 23.8252 46.5972 21.7577 46.5972 18.672C46.5972 15.5863 48.0296 13.488 50.6454 13.488C53.23 13.488 54.6937 15.5863 54.6937 18.672C54.6937 21.7577 53.23 23.8252 50.6454 23.8252Z" fill="black"/>
<path d="M192.8 8.14289C192.8 7.43281 193.381 6.85718 194.098 6.85718H196.693C197.409 6.85718 197.991 7.43281 197.991 8.14289C197.991 8.85297 197.409 9.42861 196.693 9.42861H194.098C193.381 9.42861 192.8 8.85297 192.8 8.14289Z" fill="black"/>
<path fill-rule="evenodd" clip-rule="evenodd" d="M84.6749 0C94.7069 0 102.84 8.05888 102.84 18C102.84 27.9411 94.7069 36 84.6749 36C74.6426 36 66.5098 27.9411 66.5098 18C66.5098 8.05888 74.6426 0 84.6749 0ZM84.0183 1.34693C81.946 1.63592 79.9727 3.28597 78.4409 6.04566C77.9966 6.84615 77.5957 7.73051 77.2464 8.6854C79.3292 8.16675 81.6172 7.86098 84.0183 7.81368V1.34693ZM75.711 9.11772C76.1456 7.76662 76.677 6.52356 77.2903 5.41858C78.0496 4.05053 78.9508 2.86915 79.9661 1.96179C74.4449 3.55071 70.093 7.86311 68.4895 13.3341C69.4052 12.328 70.5974 11.435 71.978 10.6826C73.0932 10.0749 74.3476 9.54819 75.711 9.11772ZM75.2748 10.639C74.7514 12.7029 74.4428 14.9701 74.3951 17.3494H67.869C68.1606 15.2959 69.8258 13.3405 72.6109 11.8228C73.4187 11.3825 74.3111 10.9852 75.2748 10.639ZM75.7085 17.3494C75.7627 14.7528 76.14 12.3151 76.7642 10.1612C78.9378 9.5427 81.3979 9.16884 84.0183 9.11511V11.9257C83.0408 14.4056 81.047 16.3811 78.5443 17.3494H75.7085ZM74.3951 18.6506H67.869C68.1606 20.7041 69.8258 22.6594 72.6109 24.1772C73.4187 24.6175 74.3111 25.0148 75.2748 25.361C74.7514 23.2971 74.4428 21.0299 74.3951 18.6506ZM76.7642 25.8388C76.14 23.6849 75.7627 21.2472 75.7085 18.6506H78.5443C81.047 19.6189 83.0408 21.5944 84.0183 24.0743V26.8849C81.3979 26.8312 78.9378 26.4573 76.7642 25.8388ZM75.711 26.8823C74.3476 26.4518 73.0932 25.9251 71.978 25.3174C70.5974 24.565 69.4052 23.672 68.4895 22.6659C70.093 28.1369 74.4449 32.4493 79.9661 34.0382C78.9508 33.1308 78.0496 31.9495 77.2903 30.5814C76.677 29.4764 76.1456 28.2334 75.711 26.8823ZM84.0183 34.6531C81.946 34.3641 79.9727 32.714 78.4409 29.9543C77.9966 29.1539 77.5957 28.2694 77.2464 27.3146C79.3292 27.8332 81.6172 28.139 84.0183 28.1863V34.6531ZM89.3836 34.0382C90.3989 33.1308 91.3 31.9495 92.0593 30.5814C92.6724 29.4764 93.2046 28.2334 93.6388 26.8823C95.0021 26.4518 96.2564 25.9251 97.3717 25.3174C98.7523 24.565 99.9448 23.672 100.86 22.6659C99.2563 28.1369 94.9049 32.4493 89.3836 34.0382ZM92.1038 27.3146C91.7541 28.2694 91.3527 29.1539 90.9085 29.9543C89.377 32.714 87.4038 34.3641 85.3314 34.6531V28.1863C87.7326 28.139 90.0205 27.8332 92.1038 27.3146ZM94.0747 25.361C95.0384 25.0148 95.9312 24.6175 96.7386 24.1772C99.5243 22.6595 101.189 20.7041 101.481 18.6506H94.9548C94.9067 21.0299 94.5979 23.2971 94.0747 25.361ZM93.6415 18.6506C93.587 21.2472 93.2101 23.6849 92.5852 25.8388C90.4119 26.4573 87.9518 26.8312 85.3314 26.8849V24.0763C86.3087 21.5956 88.3029 19.6192 90.8063 18.6506H93.6415ZM94.9548 17.3494H101.481C101.189 15.2959 99.5243 13.3405 96.7386 11.8228C95.9312 11.3825 95.0384 10.9852 94.0747 10.639C94.5979 12.7029 94.9067 14.9701 94.9548 17.3494ZM92.5852 10.1612C93.2101 12.3151 93.587 14.7528 93.6415 17.3494H90.8064C88.3029 16.3808 86.3087 14.4044 85.3314 11.9236V9.11511C87.9518 9.16884 90.4119 9.5427 92.5852 10.1612ZM93.6388 9.11772C95.0021 9.54819 96.2564 10.0749 97.3717 10.6826C98.7523 11.435 99.9448 12.328 100.86 13.3341C99.2563 7.86311 94.9049 3.55071 89.3836 1.96179C90.3989 2.86915 91.3 4.05053 92.0593 5.41858C92.6724 6.52356 93.2046 7.76662 93.6388 9.11772ZM85.3314 1.34693C87.4038 1.63592 89.377 3.28597 90.9085 6.04566C91.3527 6.84616 91.7541 7.73051 92.1038 8.6854C90.0205 8.16675 87.7326 7.86098 85.3314 7.81368V1.34693Z" fill="black"/>
</g>
<defs>
<clipPath id="clip0_165_1257">
<rect width="198" height="36" fill="white"/>
</clipPath>
</defs>
</svg>
