<svg width="165" height="43" viewBox="0 0 165 43" fill="none" xmlns="http://www.w3.org/2000/svg">
<path d="M13.5206 39.0042L9.63184 32.2755L15.3389 22.4277L18.9654 28.7032L40.3738 28.6918L34.299 39.0972L13.5206 39.0042Z" fill="#FFAD64"/>
<path d="M44.1965 22.0103L40.3078 28.7389L28.9173 28.7256L32.5442 22.4502L21.8301 3.93445L33.8879 3.9873L44.1965 22.0103Z" fill="#ADD4D3"/>
<path d="M14.1192 3.89856H21.8968L27.5803 13.76L20.3267 13.7596L9.63255 32.2869L3.64941 21.8287L14.1192 3.89856Z" fill="#FB8351"/>
<path fill-rule="evenodd" clip-rule="evenodd" d="M22.8456 2.34061L22.8224 2.30042H13.2009L1.80273 21.8206L9.62701 35.4969L9.63661 35.4803L12.5945 40.5984L35.2155 40.6995L43.1596 27.092H43.1067L46.0413 22.0143L34.8185 2.39308L22.8456 2.34061ZM30.2883 15.3581H30.3483L24.6925 5.54519L32.9569 5.5814L42.3514 22.006L39.411 27.0941L31.705 27.0982L34.3917 22.4495L30.2883 15.3581ZM20.8862 5.49682L24.7427 12.1616L19.4032 12.1614L10.2617 27.9985L9.63819 29.0745L5.49749 21.8368L15.0388 5.49682H20.8862ZM17.1784 22.4144L21.2515 15.3579L26.5925 15.3581L30.6964 22.4505L28.0091 27.1002L19.8888 27.1047L17.1784 22.4144ZM11.4828 32.2819L13.0324 29.5973L15.3367 25.6209L18.0419 30.3021L26.161 30.2976L26.1478 30.3203L37.563 30.3338L33.3824 37.4949L14.4466 37.4102L11.4828 32.2819Z" fill="#333237"/>
<path d="M104.315 13.9975C105.411 13.9975 106.301 13.1081 106.301 11.9908C106.301 10.8735 105.411 10.007 104.315 10.007C103.197 10.007 102.307 10.8735 102.307 11.9908C102.307 13.1081 103.197 13.9975 104.315 13.9975ZM102.535 27.1776H106.073V15.7761H102.535V27.1776Z" fill="#FB8351"/>
<path d="M108.133 32.6504H111.602V26.0375C112.264 26.9041 113.771 27.4969 115.346 27.4969C118.747 27.4969 120.801 24.8974 120.711 21.2945C120.619 17.6231 118.496 15.4113 115.323 15.4113C113.702 15.4113 112.173 16.1181 111.534 17.1671L111.351 15.7762H108.133V32.6504ZM111.671 21.4769C111.671 19.7667 112.812 18.6266 114.456 18.6266C116.122 18.6266 117.172 19.7895 117.172 21.4769C117.172 23.1643 116.122 24.3273 114.456 24.3273C112.812 24.3273 111.671 23.1871 111.671 21.4769Z" fill="#FB8351"/>
<path d="M121.085 23.5748C121.176 25.8779 123.003 27.4741 125.878 27.4741C128.64 27.4741 130.558 26.0147 130.558 23.6659C130.558 21.9785 129.554 20.8613 127.681 20.4051L125.65 19.9034C124.919 19.721 124.463 19.5387 124.463 18.9457C124.463 18.3529 124.942 17.9652 125.65 17.9652C126.449 17.9652 126.974 18.4897 126.951 19.265H130.124C130.033 16.8934 128.229 15.4113 125.718 15.4113C123.185 15.4113 121.291 16.9163 121.291 19.1966C121.291 20.7244 122.135 21.9785 124.395 22.5715L126.403 23.096C126.996 23.2555 127.247 23.5292 127.247 23.9168C127.247 24.4869 126.722 24.8518 125.833 24.8518C124.806 24.8518 124.258 24.3729 124.258 23.5748H121.085Z" fill="#FB8351"/>
<path d="M135.939 27.474C137.33 27.474 138.723 26.8356 139.431 25.9007L139.659 27.1776H142.969V15.7761H139.454V21.7049C139.454 23.4151 138.952 24.3501 137.33 24.3501C136.075 24.3501 135.254 23.78 135.254 21.6592V15.7761H131.738V22.9362C131.738 25.6499 133.245 27.474 135.939 27.474Z" fill="#FB8351"/>
<path d="M148.543 27.1776V20.9524C148.543 19.037 149.57 18.4897 150.574 18.4897C151.693 18.4897 152.424 19.1737 152.424 20.5876V27.1776H155.892V20.9524C155.892 19.0142 156.897 18.4669 157.901 18.4669C159.02 18.4669 159.774 19.1509 159.774 20.5876V27.1776H163.197V19.721C163.197 17.1214 161.828 15.3884 158.883 15.3884C157.24 15.3884 155.892 16.1866 155.299 17.4179C154.614 16.1866 153.428 15.3884 151.533 15.3884C150.278 15.3884 149.113 15.9585 148.429 16.8706L148.292 15.7761H145.005V27.1776H148.543Z" fill="#FB8351"/>
<path d="M56.1048 10.3051H52.3613V27.1793H62.7244V23.8729H56.1048V10.3051Z" fill="#333237"/>
<path d="M63.082 21.4558C63.082 25.0586 65.5017 27.453 69.1538 27.453C72.7832 27.453 75.2027 25.0586 75.2027 21.4558C75.2027 17.8529 72.7832 15.4357 69.1538 15.4357C65.5017 15.4357 63.082 17.8529 63.082 21.4558ZM66.6201 21.433C66.6201 19.7226 67.6244 18.5826 69.1538 18.5826C70.6603 18.5826 71.6647 19.7226 71.6647 21.433C71.6647 23.166 70.6603 24.3061 69.1538 24.3061C67.6244 24.3061 66.6201 23.166 66.6201 21.433Z" fill="#333237"/>
<path d="M75.7682 21.2733C75.7682 24.7166 78.0053 27.0424 81.1781 27.0424C82.7074 27.0424 84.0314 26.4952 84.6933 25.6059V27.1793C84.6933 28.7527 83.7118 29.8016 81.977 29.8016C80.4248 29.8016 79.3519 29.0719 79.2834 27.7721H75.7227C76.0421 30.8962 78.4618 32.9941 81.7716 32.9941C85.6748 32.9941 88.14 30.4629 88.14 26.4496V15.7777H84.9672L84.7846 16.9408C84.1454 16.0058 82.7988 15.3901 81.2466 15.3901C78.0508 15.3901 75.7682 17.7844 75.7682 21.2733ZM79.3291 21.1821C79.3291 19.5402 80.4248 18.4458 81.8171 18.4458C83.4378 18.4458 84.6248 19.5174 84.6248 21.1821C84.6248 22.8467 83.4607 23.9868 81.84 23.9868C80.4476 23.9868 79.3291 22.8467 79.3291 21.1821Z" fill="#333237"/>
<path d="M89.1641 21.4558C89.1641 25.0586 91.5836 27.453 95.2358 27.453C98.8651 27.453 101.285 25.0586 101.285 21.4558C101.285 17.8529 98.8651 15.4357 95.2358 15.4357C91.5836 15.4357 89.1641 17.8529 89.1641 21.4558ZM92.7021 21.433C92.7021 19.7226 93.7065 18.5826 95.2358 18.5826C96.7423 18.5826 97.7467 19.7226 97.7467 21.433C97.7467 23.166 96.7423 24.3061 95.2358 24.3061C93.7065 24.3061 92.7021 23.166 92.7021 21.433Z" fill="#333237"/>
</svg>
