<svg width="1039" height="240" viewBox="0 0 1039 240" fill="none" xmlns="http://www.w3.org/2000/svg">
<path d="M227 131.136C227 121.482 228.573 112.914 231.718 105.43C234.918 97.8916 239.256 91.5465 244.734 86.3944C250.211 81.2424 256.638 77.3106 264.013 74.599C271.443 71.8332 279.415 70.4503 287.929 70.4503C292.485 70.4503 296.606 70.7486 300.294 71.3451C303.982 71.8874 307.236 72.5924 310.056 73.4602C312.876 74.3279 315.289 75.2769 317.296 76.3073C319.302 77.2835 320.902 78.1783 322.095 78.9918C324.644 80.8899 326.461 82.8694 327.546 84.9302C328.685 86.9368 329.254 89.0518 329.254 91.2753C329.254 93.3903 328.847 95.3969 328.034 97.295C327.22 99.1931 326.217 100.901 325.024 102.42C323.885 103.884 322.719 105.159 321.526 106.243C320.387 107.274 319.411 108.006 318.597 108.44C317.513 107.355 316.103 106.053 314.367 104.535C312.632 103.016 310.544 101.661 308.104 100.468C305.663 99.2202 302.87 98.1627 299.725 97.295C296.579 96.4273 293.054 95.9935 289.15 95.9935C284.269 95.9935 279.822 96.8069 275.809 98.4339C271.795 100.007 268.325 102.339 265.396 105.43C262.468 108.467 260.19 112.155 258.563 116.493C256.936 120.777 256.122 125.658 256.122 131.136C256.122 136.667 257.017 141.548 258.807 145.778C260.597 150.008 263.037 153.533 266.128 156.353C269.274 159.173 272.961 161.316 277.192 162.78C281.476 164.19 286.113 164.895 291.102 164.895C297.339 164.895 302.708 164.136 307.209 162.617C311.71 161.044 315.127 159.418 317.459 157.736L329.986 179.293H330.312C329.064 180.161 327.302 181.246 325.024 182.547C322.746 183.795 319.872 185.042 316.401 186.289C312.984 187.482 308.944 188.513 304.28 189.381C299.616 190.303 294.356 190.763 288.499 190.763C280.147 190.763 272.256 189.516 264.827 187.021C257.397 184.527 250.862 180.785 245.222 175.796C239.636 170.752 235.189 164.515 231.881 157.086C228.627 149.656 227 141.006 227 131.136Z" fill="#340570"/>
<path d="M332.043 145.29C332.043 138.837 333.263 132.898 335.703 127.475C338.144 121.998 341.479 117.279 345.709 113.321C349.993 109.307 354.956 106.162 360.596 103.884C366.29 101.606 372.418 100.468 378.98 100.468C385.434 100.468 391.508 101.606 397.202 103.884C402.951 106.162 407.967 109.307 412.251 113.321C416.536 117.279 419.898 121.998 422.339 127.475C424.779 132.898 425.999 138.837 425.999 145.29C425.999 151.744 424.779 157.682 422.339 163.105C419.898 168.528 416.536 173.247 412.251 177.26C407.967 181.273 402.951 184.418 397.202 186.696C391.508 188.974 385.434 190.113 378.98 190.113C372.418 190.113 366.29 188.974 360.596 186.696C354.956 184.418 349.993 181.273 345.709 177.26C341.479 173.247 338.144 168.528 335.703 163.105C333.263 157.682 332.043 151.744 332.043 145.29ZM359.538 145.29C359.538 148.273 359.999 151.039 360.921 153.588C361.843 156.136 363.199 158.333 364.988 160.177C366.778 162.021 368.839 163.485 371.171 164.57C373.503 165.6 376.106 166.115 378.98 166.115C381.746 166.115 384.322 165.6 386.708 164.57C389.094 163.485 391.182 162.021 392.972 160.177C394.762 158.333 396.117 156.136 397.039 153.588C398.016 151.039 398.504 148.273 398.504 145.29C398.504 142.307 398.016 139.542 397.039 136.993C396.117 134.39 394.762 132.193 392.972 130.404C391.182 128.56 389.094 127.122 386.708 126.092C384.322 125.007 381.746 124.465 378.98 124.465C376.106 124.465 373.503 125.007 371.171 126.092C368.839 127.122 366.778 128.56 364.988 130.404C363.199 132.193 361.843 134.362 360.921 136.911C359.999 139.46 359.538 142.253 359.538 145.29Z" fill="#340570"/>
<path d="M435.946 187.754V136.261C435.946 130.512 437.058 125.387 439.282 120.886C441.505 116.385 444.542 112.643 448.393 109.66C452.297 106.623 456.798 104.345 461.896 102.827C467.048 101.254 472.553 100.468 478.41 100.468C484.158 100.468 489.609 101.254 494.761 102.827C499.967 104.345 504.468 106.623 508.264 109.66C512.115 112.643 515.152 116.385 517.375 120.886C519.599 125.387 520.711 130.512 520.711 136.261V187.754H493.947V142.443C493.947 136.532 492.591 132.166 489.88 129.346C487.222 126.526 483.399 125.116 478.41 125.116C467.943 125.116 462.737 130.892 462.791 142.443V187.754H435.946Z" fill="#340570"/>
<path d="M531.471 179.131L540.989 161.804C541.857 162.454 543.321 163.268 545.382 164.244C547.443 165.166 549.883 166.034 552.703 166.847C555.577 167.661 558.804 168.393 562.383 169.044C566.017 169.64 569.813 169.938 573.772 169.938C578.328 169.938 581.771 169.532 584.103 168.718C586.435 167.851 587.601 166.359 587.601 164.244C587.601 162.021 586.625 160.502 584.673 159.689C582.775 158.875 579.765 158.17 575.643 157.574L566.939 156.597C562.6 156.055 558.424 155.269 554.411 154.238C550.452 153.154 546.927 151.581 543.836 149.52C540.799 147.459 538.386 144.829 536.596 141.629C534.861 138.376 533.993 134.308 533.993 129.427C533.993 125.306 534.725 121.51 536.189 118.039C537.708 114.514 540.067 111.45 543.267 108.846C546.521 106.243 550.642 104.21 555.632 102.745C560.621 101.227 566.559 100.468 573.447 100.468C580.443 100.468 586.462 100.929 591.506 101.85C596.604 102.718 600.969 104.074 604.603 105.918C606.718 107.003 608.399 108.358 609.646 109.985C610.948 111.612 611.599 113.592 611.599 115.924C611.599 117.713 611.246 119.313 610.541 120.723C609.836 122.079 608.996 123.272 608.019 124.302C607.097 125.279 606.203 126.065 605.335 126.662C604.521 127.204 604.006 127.529 603.789 127.638C603.464 127.312 602.542 126.716 601.023 125.848C599.559 124.926 597.553 124.058 595.004 123.245C592.509 122.377 589.499 121.618 585.974 120.967C582.503 120.262 578.544 119.91 574.097 119.91C569.108 119.91 565.637 120.506 563.685 121.699C561.787 122.838 560.838 124.357 560.838 126.255C560.838 128.153 561.705 129.509 563.441 130.322C565.231 131.081 567.915 131.732 571.494 132.275L586.625 134.471C590.421 135.013 594.055 135.827 597.526 136.911C601.051 137.942 604.169 139.46 606.881 141.467C609.592 143.473 611.734 146.022 613.307 149.113C614.934 152.205 615.747 155.974 615.747 160.421C615.747 169.749 612.195 177.043 605.091 182.303C597.987 187.51 588.171 190.113 575.643 190.113C569.081 190.113 563.278 189.652 558.235 188.73C553.191 187.862 548.825 186.859 545.138 185.72C541.504 184.527 538.549 183.307 536.271 182.059C533.993 180.758 532.393 179.782 531.471 179.131Z" fill="#340570"/>
<path d="M624.637 153.1V114.622C624.637 110.284 625.912 107.247 628.46 105.511C631.009 103.721 634.399 102.827 638.629 102.827C641.612 102.827 644.323 103.179 646.764 103.884C649.204 104.589 650.75 105.05 651.4 105.267V148.137C651.4 159.689 656.634 165.464 667.101 165.464C677.567 165.464 682.774 159.689 682.719 148.137V114.622C682.719 110.284 683.994 107.247 686.543 105.511C689.146 103.721 692.535 102.827 696.711 102.827C699.694 102.827 702.405 103.179 704.846 103.884C707.341 104.589 708.913 105.05 709.564 105.267V153.1C709.564 159.336 708.479 164.759 706.31 169.369C704.141 173.979 701.158 177.802 697.362 180.839C693.62 183.876 689.119 186.181 683.858 187.754C678.652 189.326 673.066 190.113 667.101 190.113C661.081 190.113 655.468 189.326 650.262 187.754C645.055 186.181 640.554 183.876 636.758 180.839C633.016 177.802 630.06 173.979 627.891 169.369C625.722 164.759 624.637 159.336 624.637 153.1Z" fill="#340570"/>
<path d="M726.263 187.754V76.7954C726.263 72.4569 727.538 69.4199 730.086 67.6845C732.635 65.8948 736.025 65 740.255 65C743.238 65 745.949 65.3525 748.39 66.0575C750.83 66.7625 752.403 67.2235 753.108 67.4404V187.754H726.263Z" fill="#340570"/>
<path d="M769.807 159.77V89.6483C769.807 85.3098 771.081 82.2457 773.63 80.4561C776.179 78.6664 779.569 77.7716 783.799 77.7716C786.781 77.7716 789.493 78.1512 791.933 78.9104C794.374 79.6155 795.919 80.0764 796.57 80.2934V102.827H815.768C820.758 102.827 824.31 103.83 826.425 105.837C828.54 107.789 829.597 110.772 829.597 114.785C829.597 117.659 829.136 120.344 828.214 122.838C827.347 125.333 826.696 126.987 826.262 127.8H796.57V153.913C796.57 156.462 796.95 158.496 797.709 160.014C798.523 161.533 799.499 162.726 800.638 163.593C801.831 164.461 803.159 165.058 804.624 165.383C806.142 165.654 807.688 165.79 809.26 165.79C812.352 165.79 815.172 165.329 817.721 164.407C820.324 163.431 822.168 162.617 823.252 161.966L833.746 180.27C832.77 181.137 831.333 182.141 829.435 183.279C827.537 184.364 825.259 185.422 822.602 186.452C819.944 187.428 816.934 188.269 813.572 188.974C810.264 189.733 806.766 190.113 803.078 190.113C792.611 190.113 784.449 187.374 778.592 181.897C772.735 176.365 769.807 168.989 769.807 159.77Z" fill="#340570"/>
<path d="M840.602 79.968C840.602 75.7379 842.012 72.1857 844.832 69.3114C847.706 66.4371 851.259 65 855.489 65C859.719 65 863.271 66.4371 866.145 69.3114C869.02 72.1857 870.457 75.7379 870.457 79.968C870.457 84.198 869.02 87.7231 866.145 90.5432C863.271 93.3632 859.719 94.7732 855.489 94.7732C851.259 94.7732 847.706 93.3632 844.832 90.5432C842.012 87.7231 840.602 84.198 840.602 79.968ZM842.148 187.754V114.622C842.148 110.284 843.422 107.247 845.971 105.511C848.52 103.721 851.909 102.827 856.14 102.827C859.122 102.827 861.834 103.179 864.274 103.884C866.715 104.589 868.287 105.05 868.992 105.267V187.754H842.148Z" fill="#340570"/>
<path d="M886.505 187.754V100.142C886.505 94.014 887.346 88.7264 889.027 84.2794C890.762 79.8324 893.176 76.1989 896.267 73.3788C899.412 70.5588 903.181 68.4708 907.574 67.115C911.967 65.705 916.821 65 922.135 65C926.799 65 930.867 65.3525 934.337 66.0575C937.862 66.7625 940.899 67.9014 943.448 69.4741C944.804 70.2334 946.079 71.3722 947.272 72.8907C948.519 74.4092 949.143 76.3887 949.143 78.8291C949.143 81.378 948.383 83.7371 946.865 85.9063C945.401 88.0756 943.774 89.5941 941.984 90.4618C940.628 89.2145 938.54 88.1299 935.72 87.2079C932.9 86.286 929.999 85.825 927.016 85.825C922.786 85.825 919.451 86.9368 917.01 89.1603C914.57 91.3838 913.35 94.6919 913.35 99.0847V102.827H931.816C936.805 102.827 940.357 103.83 942.472 105.837C944.587 107.789 945.645 110.772 945.645 114.785C945.645 117.659 945.184 120.344 944.262 122.838C943.394 125.333 942.743 126.987 942.309 127.8H913.35V187.754H886.505Z" fill="#340570"/>
<path d="M953.965 153.75V114.622C953.965 110.284 955.239 107.247 957.788 105.511C960.337 103.721 963.727 102.827 967.957 102.827C970.939 102.827 973.651 103.179 976.091 103.884C978.532 104.589 980.078 105.05 980.728 105.267V148.3C980.728 153.615 981.976 157.438 984.47 159.77C987.019 162.102 990.951 163.268 996.266 163.268C1001.26 163.268 1005.13 161.831 1007.9 158.957C1010.66 156.028 1012.05 151.581 1012.05 145.616V114.622C1012.05 110.284 1013.32 107.247 1015.87 105.511C1018.47 103.721 1021.86 102.827 1026.04 102.827C1029.02 102.827 1031.73 103.179 1034.17 103.884C1036.67 104.589 1038.24 105.05 1038.89 105.267V175.958C1038.89 184.418 1037.78 191.604 1035.56 197.515C1033.33 203.427 1030.16 208.253 1026.04 211.995C1021.97 215.737 1017.09 218.449 1011.4 220.13C1005.76 221.865 999.438 222.733 992.442 222.733C987.562 222.733 983.06 222.462 978.939 221.92C974.817 221.377 971.184 220.727 968.038 219.967C964.947 219.262 962.452 218.557 960.554 217.852C958.71 217.201 957.626 216.768 957.3 216.551L963.727 196.946C964.16 197.163 965.137 197.515 966.655 198.003C968.174 198.492 970.045 198.98 972.268 199.468C974.492 200.01 977.013 200.471 979.833 200.851C982.654 201.23 985.582 201.42 988.619 201.42C997.188 201.42 1003.34 199.576 1007.08 195.888C1010.88 192.255 1012.78 186.208 1012.78 177.748C1010.66 180.297 1007.44 182.33 1003.1 183.849C998.76 185.367 994.422 186.127 990.083 186.127C984.986 186.127 980.24 185.476 975.847 184.174C971.455 182.873 967.604 180.893 964.296 178.236C961.042 175.579 958.493 172.243 956.649 168.23C954.86 164.163 953.965 159.336 953.965 153.75Z" fill="#340570"/>
<path fill-rule="evenodd" clip-rule="evenodd" d="M108.52 172.842L108.617 172.939C113.807 178.14 111.178 187.016 103.996 188.565C93.8243 190.76 82.9931 190.63 72.2542 187.746C36.0259 178.013 14.7056 140.866 24.5702 104.674C34.4349 68.4818 71.375 47.495 107.357 57.1753C118.354 60.1341 127.986 65.6419 135.785 72.8909C141.138 77.8675 138.94 86.7839 131.878 88.6683L131.745 88.7035C128.665 89.5257 125.38 88.7071 123.042 86.539C117.405 81.3102 110.448 77.3376 102.507 75.201C76.5662 68.2223 49.8837 83.4577 42.6662 109.27C35.3698 135.363 50.5422 162.318 76.6414 169.594C84.5247 171.791 92.4855 171.931 99.9601 170.336C103.058 169.675 106.283 170.602 108.52 172.844V172.842Z" fill="#7000FF"/>
<path d="M155.075 140.019C151.785 152.246 145.346 162.783 136.864 170.993C133.202 174.537 127.37 174.478 123.771 170.872C120.099 167.193 120.127 161.209 123.862 157.595C130.004 151.652 134.668 144.023 137.049 135.17C139.389 126.476 139.232 117.701 137.019 109.602C135.657 104.616 138.63 99.4785 143.623 98.1459C148.569 96.8265 153.673 99.7308 155.025 104.669C158.091 115.865 158.309 128.001 155.075 140.02V140.019Z" fill="#BA63FF"/>
<path d="M54.2804 109.129C57.1737 100.824 62.1661 93.8499 68.4584 88.5931C71.1577 86.3377 75.1751 86.6905 77.473 89.3522C79.8255 92.0782 79.5224 96.2193 76.76 98.5281C72.209 102.332 68.5978 107.378 66.5049 113.386C64.4483 119.291 64.1184 125.379 65.2498 131.099C65.9422 134.602 63.6176 137.994 60.1095 138.663L60.0949 138.666C56.5905 139.334 53.2206 137.035 52.533 133.533C50.9857 125.65 51.4465 117.262 54.2804 109.128V109.129Z" fill="#8717F8"/>
<path d="M121.922 198.129H62.0159C57.06 198.129 53.0425 202.146 53.0425 207.102C53.0425 212.058 57.06 216.076 62.0159 216.076H121.922C126.878 216.076 130.895 212.058 130.895 207.102C130.895 202.146 126.878 198.129 121.922 198.129Z" fill="#BA63FF"/>
<path d="M36.9912 53.7517L19.5175 32.9127C16.3333 29.1151 10.6734 28.618 6.87592 31.8022C3.07839 34.9865 2.58122 40.6463 5.76547 44.4438L23.2391 65.2829C26.4234 69.0804 32.0832 69.5776 35.8807 66.3933C39.6783 63.2091 40.1754 57.5492 36.9912 53.7517Z" fill="#7000FF"/>
<path d="M158.242 65.2795L175.715 44.4405C178.9 40.643 178.402 34.9831 174.605 31.7989C170.807 28.6146 165.148 29.1118 161.963 32.9093L144.49 53.7483C141.305 57.5459 141.803 63.2057 145.6 66.39C149.398 69.5742 155.057 69.0771 158.242 65.2795Z" fill="#7000FF"/>
<path d="M98.7598 36.1689V8.9734C98.7598 4.01753 94.7422 0 89.7864 0C84.8305 0 80.813 4.01753 80.813 8.9734V36.1689C80.813 41.1247 84.8305 45.1423 89.7864 45.1423C94.7422 45.1423 98.7598 41.1247 98.7598 36.1689Z" fill="#7000FF"/>
<path d="M64.1297 224.443H120.457C121.3 224.443 121.984 225.127 121.984 225.97C121.984 233.226 116.093 239.116 108.838 239.116H75.7515C68.4952 239.116 62.6055 233.225 62.6055 225.97C62.6055 225.127 63.2894 224.443 64.1322 224.443H64.1297Z" fill="#8717F8"/>
</svg>
