<svg width="38" height="31" viewBox="0 0 38 31" fill="none" xmlns="http://www.w3.org/2000/svg">
<path d="M30.0833 0H7.91667C5.81781 0.00223744 3.80563 0.745243 2.32151 2.06604C0.837396 3.38683 0.00251411 5.17757 0 7.04545L0 23.9545C0.00251411 25.8224 0.837396 27.6132 2.32151 28.934C3.80563 30.2548 5.81781 30.9978 7.91667 31H30.0833C32.1822 30.9978 34.1944 30.2548 35.6785 28.934C37.1626 27.6132 37.9975 25.8224 38 23.9545V7.04545C37.9975 5.17757 37.1626 3.38683 35.6785 2.06604C34.1944 0.745243 32.1822 0.00223744 30.0833 0ZM7.91667 2.81818H30.0833C31.0314 2.81984 31.9572 3.07395 32.7417 3.54781C33.5261 4.02168 34.1333 4.69361 34.485 5.47714L22.3598 16.2694C21.4675 17.0603 20.2594 17.5044 19 17.5044C17.7406 17.5044 16.5325 17.0603 15.6402 16.2694L3.515 5.47714C3.86674 4.69361 4.47389 4.02168 5.25833 3.54781C6.04276 3.07395 6.96859 2.81984 7.91667 2.81818ZM30.0833 28.1818H7.91667C6.65689 28.1818 5.44871 27.7364 4.55791 26.9437C3.66711 26.1509 3.16667 25.0757 3.16667 23.9545V9.15909L13.4013 18.2618C14.8875 19.5811 16.9009 20.322 19 20.322C21.0991 20.322 23.1125 19.5811 24.5987 18.2618L34.8333 9.15909V23.9545C34.8333 25.0757 34.3329 26.1509 33.4421 26.9437C32.5513 27.7364 31.3431 28.1818 30.0833 28.1818Z" fill="#00103C"/>
</svg>
