<svg width="29" height="29" viewBox="0 0 29 29" fill="none" xmlns="http://www.w3.org/2000/svg">
<g clip-path="url(#clip0_2232_1803)">
<path d="M14.5 14.5C15.9339 14.5 17.3356 14.0748 18.5279 13.2782C19.7201 12.4815 20.6494 11.3492 21.1981 10.0245C21.7469 8.69969 21.8904 7.24196 21.6107 5.8356C21.3309 4.42924 20.6405 3.13741 19.6265 2.12348C18.6126 1.10955 17.3208 0.419053 15.9144 0.13931C14.508 -0.140433 13.0503 0.00314132 11.7255 0.551877C10.4008 1.10061 9.26849 2.02986 8.47185 3.22212C7.67521 4.41437 7.25 5.81609 7.25 7.25C7.25192 9.17223 8.01637 11.0152 9.3756 12.3744C10.7348 13.7336 12.5778 14.4981 14.5 14.5ZM14.5 2.41667C15.4559 2.41667 16.3904 2.70014 17.1853 3.23123C17.9801 3.76233 18.5996 4.51719 18.9654 5.40037C19.3312 6.28354 19.427 7.25536 19.2405 8.19294C19.054 9.13051 18.5936 9.99173 17.9177 10.6677C17.2417 11.3436 16.3805 11.804 15.4429 11.9905C14.5054 12.177 13.5335 12.0812 12.6504 11.7154C11.7672 11.3496 11.0123 10.7301 10.4812 9.93526C9.95014 9.14042 9.66667 8.20595 9.66667 7.25C9.66667 5.96812 10.1759 4.73875 11.0823 3.83232C11.9887 2.92589 13.2181 2.41667 14.5 2.41667Z" fill="black"/>
<path d="M14.5 16.917C11.6168 16.9202 8.85251 18.067 6.81375 20.1057C4.77498 22.1445 3.6282 24.9087 3.625 27.792C3.625 28.1125 3.75231 28.4198 3.97891 28.6464C4.20552 28.873 4.51286 29.0003 4.83333 29.0003C5.1538 29.0003 5.46115 28.873 5.68775 28.6464C5.91436 28.4198 6.04167 28.1125 6.04167 27.792C6.04167 25.5487 6.93281 23.3973 8.51906 21.811C10.1053 20.2248 12.2567 19.3337 14.5 19.3337C16.7433 19.3337 18.8947 20.2248 20.4809 21.811C22.0672 23.3973 22.9583 25.5487 22.9583 27.792C22.9583 28.1125 23.0856 28.4198 23.3122 28.6464C23.5389 28.873 23.8462 29.0003 24.1667 29.0003C24.4871 29.0003 24.7945 28.873 25.0211 28.6464C25.2477 28.4198 25.375 28.1125 25.375 27.792C25.3718 24.9087 24.225 22.1445 22.1863 20.1057C20.1475 18.067 17.3832 16.9202 14.5 16.917Z" fill="black"/>
</g>
<defs>
<clipPath id="clip0_2232_1803">
<rect width="29" height="29" fill="black"/>
</clipPath>
</defs>
</svg>
