<svg width="35" height="35" viewBox="0 0 35 35" fill="none" xmlns="http://www.w3.org/2000/svg">
<path d="M18.9322 1.46307C18.9322 1.07566 19.0861 0.704112 19.36 0.430171C19.6339 0.156231 20.0055 0.00233274 20.3929 0.00233274C24.2656 0.00658581 27.9785 1.54693 30.717 4.28542C33.4554 7.0239 34.9957 10.7369 35 14.6097C35 14.9971 34.8461 15.3686 34.5722 15.6426C34.2982 15.9165 33.9267 16.0704 33.5393 16.0704C33.1519 16.0704 32.7803 15.9165 32.5064 15.6426C32.2325 15.3686 32.0786 14.9971 32.0786 14.6097C32.0751 11.5114 30.8428 8.54112 28.6521 6.35035C26.4613 4.15958 23.4911 2.92728 20.3929 2.9238C20.0055 2.9238 19.6339 2.7699 19.36 2.49596C19.0861 2.22202 18.9322 1.85048 18.9322 1.46307ZM20.3929 8.76673C21.9425 8.76673 23.4287 9.38232 24.5244 10.4781C25.6201 11.5738 26.2357 13.06 26.2357 14.6097C26.2357 14.9971 26.3896 15.3686 26.6636 15.6426C26.9375 15.9165 27.309 16.0704 27.6964 16.0704C28.0838 16.0704 28.4554 15.9165 28.7293 15.6426C29.0033 15.3686 29.1572 14.9971 29.1572 14.6097C29.1548 12.2859 28.2307 10.058 26.5876 8.41486C24.9445 6.77172 22.7166 5.84758 20.3929 5.84526C20.0055 5.84526 19.6339 5.99916 19.36 6.2731C19.0861 6.54704 18.9322 6.91859 18.9322 7.306C18.9322 7.69341 19.0861 8.06495 19.36 8.33889C19.6339 8.61283 20.0055 8.76673 20.3929 8.76673ZM33.6751 24.4535C34.5216 25.3024 34.997 26.4523 34.997 27.6511C34.997 28.8499 34.5216 29.9998 33.6751 30.8486L32.3459 32.3809C20.3827 43.8345 -8.72933 14.7294 2.54737 2.72806L4.22719 1.26733C5.07698 0.444463 6.21658 -0.0107422 7.39942 0.000192539C8.58226 0.0111272 9.71325 0.487323 10.5477 1.32576C10.593 1.37104 13.2997 4.88702 13.2997 4.88702C14.1028 5.73078 14.5499 6.85161 14.548 8.0165C14.5461 9.1814 14.0953 10.3008 13.2894 11.1419L11.5979 13.2687C12.534 15.5432 13.9103 17.6104 15.6478 19.3513C17.3852 21.0923 19.4495 22.4728 21.7221 23.4135L23.8621 21.7117C24.7033 20.9065 25.8224 20.4562 26.987 20.4546C28.1515 20.453 29.2719 20.9001 30.1154 21.703C30.1154 21.703 33.6299 24.4083 33.6751 24.4535ZM31.6652 26.5774C31.6652 26.5774 28.1697 23.8882 28.1244 23.843C27.8235 23.5446 27.4169 23.3772 26.9931 23.3772C26.5693 23.3772 26.1627 23.5446 25.8618 23.843C25.8223 23.8839 22.8761 26.2312 22.8761 26.2312C22.6776 26.3893 22.4413 26.4929 22.1905 26.5318C21.9397 26.5707 21.6832 26.5437 21.4461 26.4533C18.5019 25.3571 15.8278 23.641 13.6047 21.4212C11.3817 19.2014 9.66162 16.5297 8.56112 13.5871C8.46354 13.3468 8.43173 13.0848 8.46895 12.8281C8.50618 12.5713 8.6111 12.3292 8.77292 12.1264C8.77292 12.1264 11.1203 9.17866 11.1597 9.14068C11.4581 8.83975 11.6255 8.43312 11.6255 8.00934C11.6255 7.58556 11.4581 7.17893 11.1597 6.878C11.1144 6.83418 8.42527 3.33573 8.42527 3.33573C8.11984 3.06185 7.72121 2.91517 7.31111 2.92577C6.90101 2.93636 6.51049 3.10341 6.2196 3.39269L4.53978 4.85343C-3.70156 14.763 21.5264 38.592 30.2103 30.3856L31.541 28.8518C31.8529 28.563 32.0402 28.1642 32.0633 27.7397C32.0865 27.3153 31.9437 26.8985 31.6652 26.5774Z" fill="#0E0E0E"/>
</svg>
