<svg width="154" height="155" viewBox="0 0 154 155" fill="none" xmlns="http://www.w3.org/2000/svg">
<path d="M94.0614 1.15451C99.4797 0.348763 104.97 2.05417 108.978 5.78796L147.406 41.5855C151.415 45.3193 153.504 50.6751 153.084 56.1368L149.056 108.501C148.636 113.962 145.752 118.936 141.22 122.012L97.7686 151.512C93.2365 154.588 87.55 155.434 82.3187 153.809L32.164 138.23C26.9327 136.605 22.726 132.686 20.7348 127.583L1.64408 78.6574C-0.347138 73.5543 0.0937971 67.8221 2.84207 63.0836L29.191 17.653C31.9393 12.9145 36.6958 9.6853 42.1141 8.87955L94.0614 1.15451Z" fill="#515151"/>
</svg>
