<svg width="154" height="155" viewBox="0 0 154 155" fill="none" xmlns="http://www.w3.org/2000/svg">
<path d="M94.0614 0.709682C99.4797 -0.0960616 104.97 1.60934 108.978 5.34313L147.406 41.1407C151.415 44.8745 153.504 50.2303 153.084 55.692L149.056 108.056C148.636 113.518 145.752 118.491 141.22 121.568L97.7686 151.067C93.2365 154.144 87.55 154.989 82.3187 153.364L32.164 137.785C26.9327 136.16 22.726 132.242 20.7348 127.139L1.64408 78.2126C-0.347138 73.1095 0.0937971 67.3773 2.84207 62.6388L29.191 17.2082C31.9393 12.4697 36.6958 9.24047 42.1141 8.43473L94.0614 0.709682Z" fill="#8717F8"/>
</svg>
