<svg width="25" height="25" viewBox="0 0 25 25" fill="none" xmlns="http://www.w3.org/2000/svg">
<g clip-path="url(#clip0_16_9161)">
<path d="M18.7501 8.85396C18.7501 9.54463 18.4758 10.207 17.9874 10.6954C17.499 11.1838 16.8366 11.4581 16.146 11.4581C15.4553 11.4581 14.7929 11.1838 14.3045 10.6954C13.8162 10.207 13.5418 9.54463 13.5418 8.85396C13.5418 8.16329 13.8162 7.50092 14.3045 7.01254C14.7929 6.52416 15.4553 6.2498 16.146 6.2498C16.8366 6.2498 17.499 6.52416 17.9874 7.01254C18.4758 7.50092 18.7501 8.16329 18.7501 8.85396ZM18.7439 16.006C18.6867 17.6611 18.2735 19.2844 17.5324 20.7654C16.8496 22.0566 15.8244 23.1349 14.5692 23.8818C13.314 24.6288 11.8773 25.0156 10.4168 24.9998H9.37513V19.2706C9.37047 18.3051 8.98487 17.3805 8.30215 16.6978C7.61943 16.0151 6.6948 15.6295 5.7293 15.6248H0.000130214V14.5831C-0.0156389 13.1226 0.371166 11.6859 1.11811 10.4307C1.86506 9.17551 2.94328 8.15029 4.23451 7.4675C5.71551 6.72646 7.33881 6.31326 8.99388 6.25605C10.5114 4.29588 12.4603 2.71181 14.6892 1.62681C16.9181 0.541804 19.3671 -0.0149393 21.846 -0.000203202C22.2585 -0.00280968 22.6674 0.076029 23.0494 0.231792C23.4313 0.387556 23.7788 0.617181 24.0718 0.907501C24.3648 1.19782 24.5977 1.54313 24.757 1.92362C24.9163 2.30411 24.9989 2.7123 25.0001 3.1248C25.0178 5.60835 24.4625 8.06253 23.3774 10.2966C22.2924 12.5307 20.7068 14.4844 18.7439 16.006ZM2.17096 13.5415H4.52721C5.3008 11.8185 6.20954 10.1595 7.24492 8.58001C6.52577 8.74732 5.82892 8.99906 5.16888 9.33C4.37507 9.74918 3.69045 10.3484 3.16985 11.0798C2.64926 11.8111 2.30716 12.6542 2.17096 13.5415ZM16.4199 17.755C14.8404 18.7904 13.1814 19.6991 11.4585 20.4727V22.829C12.3458 22.6928 13.1888 22.3507 13.9202 21.8301C14.6515 21.3095 15.2507 20.6249 15.6699 19.831C16.0009 19.171 16.2526 18.4742 16.4199 17.755ZM22.9168 3.09563C22.9092 2.82445 22.7961 2.56693 22.6016 2.37784C22.407 2.18876 22.1464 2.08302 21.8751 2.08313C16.5001 2.23626 12.8647 4.29563 9.35638 9.18938C8.37737 10.599 7.51645 12.087 6.78242 13.6383C7.91984 13.8502 8.96647 14.4014 9.78457 15.2195C10.6027 16.0376 11.1539 17.0843 11.3658 18.2217C12.9171 17.4876 14.4051 16.6267 15.8147 15.6477C20.7043 12.1352 22.7637 8.4998 22.9168 3.09563ZM6.37721 18.6238C6.95926 19.2118 7.28576 20.0057 7.28576 20.8331C7.28576 21.6605 6.95926 22.4545 6.37721 23.0425C5.43242 23.9863 2.6043 24.5685 1.43138 24.7758L-0.0332031 25.0331L0.224089 23.5685C0.432422 22.3956 1.01367 19.5675 1.95742 18.6227C2.55299 18.0547 3.34449 17.7378 4.16753 17.738C4.99057 17.7382 5.78191 18.0554 6.37721 18.6238ZM5.20846 20.8331C5.20883 20.6963 5.18205 20.5607 5.12966 20.4343C5.07727 20.3079 5.00031 20.1931 4.90326 20.0967C4.70791 19.9014 4.44301 19.7917 4.1668 19.7917C3.89058 19.7917 3.62568 19.9014 3.43034 20.0967C3.0332 20.8136 2.75427 21.5899 2.6043 22.3956C3.41035 22.245 4.18693 21.9658 4.9043 21.5685C5.00104 21.4721 5.07773 21.3575 5.12994 21.2313C5.18214 21.105 5.20883 20.9697 5.20846 20.8331Z" fill="black"/>
</g>
<defs>
<clipPath id="clip0_16_9161">
<rect width="25" height="25" fill="white"/>
</clipPath>
</defs>
</svg>
