<svg width="112" height="216" viewBox="0 0 112 216" fill="none" xmlns="http://www.w3.org/2000/svg">
<path d="M108.882 -5.32C110.027 -7.36709 112.973 -7.36708 114.118 -5.31999L130.739 24.391C131.564 25.8647 133.442 26.3679 134.893 25.5038L164.143 8.08403C166.158 6.8838 168.709 8.35673 168.677 10.7022L168.216 44.7433C168.193 46.4318 169.568 47.8065 171.257 47.7837L205.298 47.3226C207.643 47.2909 209.116 49.8421 207.916 51.8574L190.496 81.1074C189.632 82.5582 190.135 84.4361 191.609 85.2606L221.32 101.882C223.367 103.027 223.367 105.973 221.32 107.118L191.609 123.739C190.135 124.564 189.632 126.442 190.496 127.893L207.916 157.143C209.116 159.158 207.643 161.709 205.298 161.677L171.257 161.216C169.568 161.193 168.193 162.568 168.216 164.257L168.677 198.298C168.709 200.643 166.158 202.116 164.143 200.916L134.893 183.496C133.442 182.632 131.564 183.135 130.739 184.609L114.118 214.32C112.973 216.367 110.027 216.367 108.882 214.32L92.2606 184.609C91.4361 183.135 89.5582 182.632 88.1074 183.496L58.8574 200.916C56.8421 202.116 54.2909 200.643 54.3226 198.298L54.7837 164.257C54.8065 162.568 53.4318 161.193 51.7433 161.216L17.7022 161.677C15.3567 161.709 13.8838 159.158 15.084 157.143L32.5038 127.893C33.3679 126.442 32.8647 124.564 31.391 123.739L1.68 107.118C-0.36709 105.973 -0.367084 103.027 1.68001 101.882L31.391 85.2606C32.8647 84.4361 33.3679 82.5582 32.5038 81.1074L15.084 51.8574C13.8838 49.8421 15.3567 47.2909 17.7022 47.3226L51.7433 47.7837C53.4318 47.8065 54.8065 46.4318 54.7837 44.7433L54.3226 10.7022C54.2909 8.35672 56.8421 6.88379 58.8574 8.08402L88.1074 25.5039C89.5582 26.3679 91.4361 25.8647 92.2606 24.391L108.882 -5.32Z" fill="#8717F8"/>
</svg>
