<svg width="227" height="227" viewBox="0 0 227 227" fill="none" xmlns="http://www.w3.org/2000/svg">
<path d="M111.11 2.15265C112.31 0.569445 114.69 0.569445 115.89 2.15265L143.112 38.0526C143.767 38.9164 144.837 39.3597 145.911 39.212L190.544 33.0752C192.512 32.8046 194.195 34.4875 193.925 36.4559L187.788 81.0892C187.64 82.1632 188.084 83.2333 188.947 83.8883L224.847 111.11C226.431 112.31 226.431 114.69 224.847 115.89L188.947 143.112C188.084 143.767 187.64 144.837 187.788 145.911L193.925 190.544C194.195 192.512 192.512 194.195 190.544 193.925L145.911 187.788C144.837 187.64 143.767 188.084 143.112 188.947L115.89 224.847C114.69 226.431 112.31 226.431 111.11 224.847L83.8883 188.947C83.2333 188.084 82.1632 187.64 81.0892 187.788L36.4559 193.925C34.4875 194.195 32.8046 192.512 33.0752 190.544L39.212 145.911C39.3597 144.837 38.9164 143.767 38.0526 143.112L2.15265 115.89C0.569445 114.69 0.569445 112.31 2.15265 111.11L38.0526 83.8883C38.9164 83.2333 39.3597 82.1632 39.212 81.0892L33.0752 36.4559C32.8046 34.4875 34.4875 32.8046 36.4559 33.0752L81.0892 39.212C82.1632 39.3597 83.2333 38.9164 83.8883 38.0526L111.11 2.15265Z" fill="#8717F8"/>
</svg>
