<svg width="15" height="16" viewBox="0 0 15 16" fill="none" xmlns="http://www.w3.org/2000/svg">
<path d="M13.3935 9.26647L13.0975 9.09581C13.2308 8.37078 13.2308 7.62754 13.0975 6.90252L13.3935 6.73186C13.6211 6.60054 13.8206 6.42567 13.9807 6.21724C14.1407 6.00881 14.2581 5.7709 14.3262 5.51709C14.3943 5.26329 14.4118 4.99855 14.3775 4.738C14.3433 4.47746 14.2581 4.2262 14.1268 3.99858C13.9955 3.77096 13.8206 3.57144 13.6122 3.4114C13.4038 3.25136 13.1659 3.13394 12.9121 3.06584C12.6582 2.99775 12.3935 2.98031 12.133 3.01453C11.8724 3.04874 11.6212 3.13394 11.3935 3.26526L11.0969 3.43659C10.5366 2.95788 9.89268 2.58678 9.19759 2.34195V1.99996C9.19759 1.46954 8.98688 0.960839 8.61181 0.585774C8.23675 0.210709 7.72805 0 7.19763 0C6.66721 0 6.15851 0.210709 5.78344 0.585774C5.40838 0.960839 5.19767 1.46954 5.19767 1.99996V2.34195C4.50261 2.58766 3.85893 2.95967 3.29905 3.43926L3.00105 3.2666C2.54135 3.00139 1.99513 2.92965 1.48254 3.06718C0.969951 3.2047 0.532988 3.54022 0.267777 3.99991C0.002566 4.45961 -0.0691679 5.00584 0.0683559 5.51843C0.20588 6.03102 0.541396 6.46798 1.00109 6.73319L1.29709 6.90385C1.16383 7.62888 1.16383 8.37212 1.29709 9.09714L1.00109 9.2678C0.541396 9.53301 0.20588 9.96998 0.0683559 10.4826C-0.0691679 10.9952 0.002566 11.5414 0.267777 12.0011C0.532988 12.4608 0.969951 12.7963 1.48254 12.9338C1.99513 13.0713 2.54135 12.9996 3.00105 12.7344L3.29771 12.5631C3.85821 13.0418 4.50234 13.413 5.19767 13.6577V13.9997C5.19767 14.5301 5.40838 15.0388 5.78344 15.4139C6.15851 15.7889 6.66721 15.9997 7.19763 15.9997C7.72805 15.9997 8.23675 15.7889 8.61181 15.4139C8.98688 15.0388 9.19759 14.5301 9.19759 13.9997V13.6577C9.89264 13.412 10.5363 13.04 11.0962 12.5604L11.3942 12.7324C11.8539 12.9976 12.4001 13.0693 12.9127 12.9318C13.4253 12.7943 13.8623 12.4588 14.1275 11.9991C14.3927 11.5394 14.4644 10.9932 14.3269 10.4806C14.1894 9.96798 13.8539 9.53101 13.3942 9.2658L13.3935 9.26647ZM11.6949 6.74919C11.9206 7.56721 11.9206 8.43111 11.6949 9.24914C11.6554 9.39151 11.6644 9.54295 11.7204 9.67967C11.7764 9.81638 11.8762 9.93062 12.0042 10.0045L12.7268 10.4218C12.88 10.5102 12.9919 10.6558 13.0377 10.8267C13.0835 10.9975 13.0596 11.1796 12.9712 11.3328C12.8828 11.486 12.7371 11.5978 12.5663 11.6436C12.3954 11.6894 12.2134 11.6655 12.0602 11.5771L11.3362 11.1584C11.2081 11.0843 11.059 11.0548 10.9124 11.0747C10.7657 11.0946 10.6299 11.1628 10.5262 11.2684C9.93285 11.8742 9.1853 12.3064 8.36427 12.5184C8.22096 12.5552 8.09398 12.6387 8.00334 12.7557C7.9127 12.8726 7.86354 13.0164 7.86361 13.1644V13.9997C7.86361 14.1765 7.79338 14.3461 7.66836 14.4711C7.54333 14.5961 7.37377 14.6664 7.19696 14.6664C7.02015 14.6664 6.85059 14.5961 6.72557 14.4711C6.60055 14.3461 6.53031 14.1765 6.53031 13.9997V13.1651C6.53038 13.0171 6.48123 12.8733 6.39058 12.7563C6.29994 12.6394 6.17296 12.5559 6.02965 12.5191C5.20857 12.3062 4.46124 11.8731 3.86837 11.2664C3.76472 11.1608 3.62886 11.0926 3.48221 11.0727C3.33556 11.0528 3.18645 11.0823 3.05838 11.1564L2.33573 11.5744C2.25989 11.6189 2.176 11.6479 2.08889 11.6598C2.00178 11.6717 1.91318 11.6663 1.82818 11.6438C1.74318 11.6213 1.66347 11.5823 1.59363 11.5289C1.52379 11.4755 1.4652 11.4088 1.42124 11.3326C1.37728 11.2565 1.34882 11.1724 1.33749 11.0852C1.32615 10.9981 1.33218 10.9095 1.35521 10.8246C1.37825 10.7398 1.41784 10.6603 1.47171 10.5909C1.52557 10.5214 1.59265 10.4632 1.66908 10.4198L2.39173 10.0025C2.51969 9.92862 2.61951 9.81438 2.6755 9.67767C2.73149 9.54095 2.74048 9.38951 2.70106 9.24714C2.4753 8.42911 2.4753 7.56521 2.70106 6.74719C2.73977 6.60511 2.73035 6.45422 2.67427 6.31806C2.61819 6.1819 2.51861 6.06814 2.39106 5.99454L1.66841 5.57721C1.51521 5.48881 1.4034 5.34317 1.35758 5.17233C1.31176 5.00148 1.33568 4.81944 1.42409 4.66623C1.51249 4.51303 1.65813 4.40122 1.82897 4.3554C1.99982 4.30958 2.18186 4.3335 2.33507 4.42191L3.05905 4.84056C3.18677 4.9149 3.33556 4.9447 3.48206 4.92527C3.62855 4.90585 3.76444 4.83829 3.86837 4.73323C4.46174 4.12747 5.20929 3.69527 6.03032 3.48326C6.17407 3.4463 6.30138 3.36243 6.39207 3.24493C6.48276 3.12743 6.53164 2.98303 6.53098 2.83461V1.99996C6.53098 1.82315 6.60121 1.65358 6.72623 1.52856C6.85126 1.40354 7.02082 1.3333 7.19763 1.3333C7.37444 1.3333 7.544 1.40354 7.66902 1.52856C7.79404 1.65358 7.86428 1.82315 7.86428 1.99996V2.83461C7.86421 2.98257 7.91336 3.12636 8.00401 3.24332C8.09465 3.36027 8.22163 3.44375 8.36494 3.48059C9.18626 3.69336 9.93383 4.1265 10.5269 4.73323C10.6305 4.83887 10.7664 4.90702 10.913 4.92694C11.0597 4.94685 11.2088 4.9174 11.3369 4.84323L12.0595 4.42524C12.1354 4.38077 12.2193 4.35175 12.3064 4.33984C12.3935 4.32793 12.4821 4.33337 12.5671 4.35584C12.6521 4.37831 12.7318 4.41738 12.8016 4.47078C12.8715 4.52418 12.9301 4.59088 12.974 4.66702C13.018 4.74315 13.0464 4.82724 13.0578 4.91442C13.0691 5.00161 13.0631 5.09017 13.04 5.17502C13.017 5.25986 12.9774 5.33932 12.9236 5.4088C12.8697 5.47828 12.8026 5.53643 12.7262 5.57988L12.0035 5.9972C11.8762 6.07101 11.7769 6.18485 11.7211 6.32099C11.6653 6.45714 11.656 6.60792 11.6949 6.74986V6.74919Z" fill="#7000FF"/>
</svg>
