<svg width="23" height="21" viewBox="0 0 23 21" fill="none" xmlns="http://www.w3.org/2000/svg">
<path d="M2.42605 0.497398C2.26433 0.528843 1.94089 0.654625 1.7073 0.76693C1.3614 0.937633 1.21316 1.04544 0.916672 1.34642C0.611203 1.6474 0.512375 1.78666 0.346164 2.13705C-0.0221956 2.89623 0.00026537 2.31673 0.00026537 10.7126C0.00026537 19.1085 -0.0221956 18.529 0.346164 19.2882C0.512375 19.6386 0.611203 19.7779 0.916672 20.0788C1.21316 20.3798 1.3614 20.4876 1.7073 20.6583C2.453 21.0222 1.7073 20.9997 11.5003 20.9997C21.2932 20.9997 20.5475 21.0222 21.2932 20.6583C21.6391 20.4876 21.7874 20.3798 22.0794 20.0833C22.3759 19.7868 22.4837 19.6386 22.6544 19.2927C23.0227 18.5335 23.0048 18.9648 22.9913 11.9255L22.9778 5.70384L22.8565 5.34447C22.551 4.44154 21.8997 3.74076 21.0462 3.39486L20.7317 3.26908L20.7003 3.03548C20.5565 2.0472 19.8737 1.14877 18.9348 0.717516C18.27 0.407555 18.7911 0.425524 10.3458 0.430015C4.0073 0.430015 2.66862 0.443493 2.42605 0.497398ZM18.261 1.9933C18.4452 2.06966 18.6069 2.18197 18.7776 2.35267C19.0112 2.58627 19.2268 2.94564 19.2268 3.09838C19.2268 3.15677 18.2475 3.16576 10.8848 3.17474L2.53835 3.18822L2.2239 3.29603C2.05319 3.35443 1.81511 3.44877 1.69831 3.50716C1.58152 3.56556 1.4737 3.61498 1.45573 3.61498C1.43777 3.61498 1.43777 3.51166 1.45573 3.38588C1.55007 2.66713 2.0487 2.08763 2.71355 1.92591C2.89323 1.88099 4.5823 1.87201 10.4671 1.8765L17.9915 1.88548L18.261 1.9933ZM20.5071 4.73353C20.8755 4.88177 21.2843 5.29056 21.4325 5.65892C21.5358 5.92396 21.5403 5.95541 21.5403 7.36595V8.80345L16.2395 8.84838L15.8622 8.97865C15.3456 9.16283 14.7436 9.57162 14.4067 9.97142C14.0833 10.3577 13.7688 10.9867 13.6745 11.4314C13.5667 11.9345 13.6071 12.6937 13.7643 13.1609C14.1327 14.2525 14.9817 15.0431 16.1272 15.3665C16.3878 15.4384 16.6798 15.4474 18.9932 15.4609L21.5673 15.4788L21.5538 16.8579C21.5358 18.4482 21.5134 18.5515 21.1135 18.9917C20.853 19.2792 20.5565 19.4454 20.1926 19.5173C19.995 19.5533 17.6007 19.5622 11.343 19.5533L2.76296 19.5398L2.49343 19.432C2.12507 19.2837 1.71628 18.8749 1.56804 18.5066L1.46023 18.237V5.92845L1.56804 5.65892C1.7657 5.17377 2.30476 4.73802 2.81687 4.64818C2.93816 4.63021 6.90476 4.61674 11.635 4.62123L20.2376 4.62572L20.5071 4.73353ZM21.5628 13.9919H19.101C16.9807 13.9919 16.6034 13.9829 16.3923 13.9201C15.6196 13.6954 15.0536 12.9363 15.0491 12.1187C15.0491 11.8447 15.1704 11.4224 15.3321 11.1484C15.5522 10.7755 16.0464 10.4117 16.4731 10.3128C16.5675 10.2904 17.7489 10.2724 19.1055 10.2679L21.5628 10.2634V13.9919Z" fill="#282828"/>
<path d="M16.846 12.5302C16.3743 12.7683 16.3024 13.4062 16.7067 13.7476C17.2009 14.1654 17.9241 13.8419 17.9331 13.204C17.9376 12.6021 17.3805 12.2607 16.846 12.5302Z" fill="#282828"/>
</svg>
