<svg width="24" height="24" viewBox="0 0 24 24" fill="none" xmlns="http://www.w3.org/2000/svg">
<path fill-rule="evenodd" clip-rule="evenodd" d="M12 2C6.47715 2 2 6.47715 2 12C2 17.5228 6.47715 22 12 22C17.5228 22 22 17.5228 22 12C22 6.47715 17.5228 2 12 2ZM0 12C0 5.37258 5.37258 0 12 0C18.6274 0 24 5.37258 24 12C24 18.6274 18.6274 24 12 24C5.37258 24 0 18.6274 0 12Z" fill="#8717F8"/>
<rect x="14.8281" y="7.75735" width="2" height="10" rx="1" transform="rotate(45 14.8281 7.75735)" fill="#8717F8"/>
<rect x="16.2422" y="14.8284" width="2" height="10" rx="1" transform="rotate(135 16.2422 14.8284)" fill="#8717F8"/>
</svg>
