<svg width="11" height="11" viewBox="0 0 11 11" fill="none" xmlns="http://www.w3.org/2000/svg">
<path d="M0.2559 10.7441C0.419803 10.908 0.642073 11 0.873831 11C1.10559 11 1.32786 10.908 1.49176 10.7441L5.5 6.73586L9.50824 10.7441C9.67214 10.908 9.89441 11 10.1262 11C10.3579 11 10.5802 10.908 10.7441 10.7441C10.908 10.5802 11 10.3579 11 10.1262C11 9.89441 10.908 9.67214 10.7441 9.50824L6.73586 5.5L10.7441 1.49176C10.908 1.32786 11 1.10559 11 0.873831C11 0.642073 10.908 0.419803 10.7441 0.2559C10.5802 0.0920467 10.3579 9.53674e-07 10.1262 9.53674e-07C9.89441 9.53674e-07 9.67214 0.0920467 9.50824 0.2559L5.5 4.26414L1.49176 0.2559C1.32786 0.0920467 1.10559 9.53674e-07 0.873831 9.53674e-07C0.642073 9.53674e-07 0.419803 0.0920467 0.2559 0.2559C0.0920467 0.419803 9.53674e-07 0.642073 9.53674e-07 0.873831C9.53674e-07 1.10559 0.0920467 1.32786 0.2559 1.49176L4.26414 5.5L0.2559 9.50824C0.0920467 9.67214 9.53674e-07 9.89441 9.53674e-07 10.1262C9.53674e-07 10.3579 0.0920467 10.5802 0.2559 10.7441Z" fill="#00103C"/>
</svg>
