<svg width="11" height="19" viewBox="0 0 11 19" fill="none" xmlns="http://www.w3.org/2000/svg">
<path d="M1.37113 0.929012C1.25353 1.04852 1.16019 1.1907 1.0965 1.34736C1.0328 1.50402 1 1.67205 1 1.84176C1 2.01147 1.0328 2.17951 1.0965 2.33616C1.16019 2.49282 1.25353 2.63501 1.37113 2.75452L7.11755 8.64242C7.23515 8.76193 7.32849 8.90412 7.39219 9.06078C7.45589 9.21744 7.48869 9.38547 7.48869 9.55518C7.48869 9.72489 7.45589 9.89292 7.39219 10.0496C7.32849 10.2062 7.23515 10.3484 7.11755 10.4679L1.37113 16.3558C1.25353 16.4753 1.16019 16.6175 1.09649 16.7742C1.03279 16.9308 1 17.0989 1 17.2686C1 17.4383 1.03279 17.6063 1.09649 17.763C1.16019 17.9196 1.25353 18.0618 1.37113 18.1813C1.60621 18.4208 1.92421 18.5552 2.25568 18.5552C2.58715 18.5552 2.90515 18.4208 3.14023 18.1813L8.8992 12.2806C9.60408 11.5574 10 10.5772 10 9.55518C10 8.53315 9.60408 7.55291 8.8992 6.82977L3.14023 0.929013C2.90515 0.689574 2.58715 0.555176 2.25568 0.555176C1.92421 0.555176 1.60621 0.689573 1.37113 0.929012Z" fill="white" stroke="white" stroke-width="0.5"/>
</svg>
