<svg width="29" height="29" viewBox="0 0 29 29" fill="none" xmlns="http://www.w3.org/2000/svg">
<path d="M4.83333 15.7083H8.45833V18.125H4.83333V15.7083ZM10.875 18.125H14.5V15.7083H10.875V18.125ZM4.83333 22.9583H8.45833V20.5417H4.83333V22.9583ZM10.875 22.9583H14.5V20.5417H10.875V22.9583ZM4.83333 8.45833H8.45833V6.04167H4.83333V8.45833ZM10.875 8.45833H14.5V6.04167H10.875V8.45833ZM4.83333 13.2917H8.45833V10.875H4.83333V13.2917ZM10.875 13.2917H14.5V10.875H10.875V13.2917ZM29 9.66667V29H0V3.625C0 2.66359 0.381919 1.74156 1.06174 1.06174C1.74156 0.381919 2.66359 0 3.625 0L15.7083 0C16.6697 0 17.5918 0.381919 18.2716 1.06174C18.9514 1.74156 19.3333 2.66359 19.3333 3.625V6.04167H25.375C26.3364 6.04167 27.2584 6.42359 27.9383 7.1034C28.6181 7.78322 29 8.70526 29 9.66667ZM16.9167 3.625C16.9167 3.30453 16.7894 2.99719 16.5628 2.77058C16.3361 2.54397 16.0288 2.41667 15.7083 2.41667H3.625C3.30453 2.41667 2.99719 2.54397 2.77058 2.77058C2.54397 2.99719 2.41667 3.30453 2.41667 3.625V26.5833H16.9167V3.625ZM26.5833 9.66667C26.5833 9.3462 26.456 9.03885 26.2294 8.81225C26.0028 8.58564 25.6955 8.45833 25.375 8.45833H19.3333V26.5833H26.5833V9.66667ZM21.75 18.125H24.1667V15.7083H21.75V18.125ZM21.75 22.9583H24.1667V20.5417H21.75V22.9583ZM21.75 13.2917H24.1667V10.875H21.75V13.2917Z" fill="#0E0E0E"/>
</svg>
