<svg width="38" height="38" viewBox="0 0 38 38" fill="none" xmlns="http://www.w3.org/2000/svg">
<g clip-path="url(#clip0_16_10503)">
<path d="M28.4906 3.61953C26.558 1.89297 24.1912 0.726117 21.6448 0.244543C19.0984 -0.237032 16.4689 -0.0150943 14.0393 0.88647C11.6096 1.78803 9.47187 3.33509 7.856 5.36115C6.24014 7.38721 5.20737 9.81556 4.86884 12.3849C4.56481 14.6377 4.80796 16.9306 5.57773 19.0696C6.34749 21.2086 7.62121 23.1306 9.29109 24.6731C10.3237 25.5787 11.157 26.6889 11.7381 27.9334C12.3192 29.1779 12.6354 30.5295 12.6668 31.9026V32.1575C12.6684 33.7065 13.2845 35.1916 14.3798 36.2869C15.4752 37.3823 16.9602 37.9983 18.5093 38H19.4909C21.0399 37.9983 22.525 37.3823 23.6203 36.2869C24.7157 35.1916 25.3317 33.7065 25.3334 32.1575V31.2883C25.3571 30.0746 25.6427 28.8804 26.1707 27.7873C26.6987 26.6942 27.4565 25.728 28.3924 24.9549C29.9102 23.6256 31.1282 21.989 31.9657 20.1535C32.8032 18.3179 33.241 16.3253 33.2503 14.3078C33.2596 12.2902 32.8401 10.2937 32.0195 8.45052C31.1989 6.60734 29.9961 4.95957 28.4906 3.61636V3.61953ZM19.4909 34.8334H18.5093C17.7998 34.8325 17.1197 34.5503 16.6181 34.0487C16.1164 33.5471 15.8343 32.8669 15.8334 32.1575C15.8334 32.1575 15.8223 31.7459 15.8208 31.6667H22.1668V32.1575C22.1659 32.8669 21.8837 33.5471 21.3821 34.0487C20.8805 34.5503 20.2003 34.8325 19.4909 34.8334ZM26.2993 22.5768C24.4965 24.1404 23.1946 26.2006 22.5563 28.5H20.5834V17.1254C21.5064 16.7991 22.3059 16.1956 22.8728 15.3975C23.4396 14.5994 23.746 13.6456 23.7501 12.6667C23.7501 12.2468 23.5833 11.844 23.2863 11.5471C22.9894 11.2502 22.5867 11.0834 22.1668 11.0834C21.7468 11.0834 21.3441 11.2502 21.0472 11.5471C20.7502 11.844 20.5834 12.2468 20.5834 12.6667C20.5834 13.0866 20.4166 13.4893 20.1197 13.7863C19.8227 14.0832 19.42 14.25 19.0001 14.25C18.5802 14.25 18.1774 14.0832 17.8805 13.7863C17.5836 13.4893 17.4168 13.0866 17.4168 12.6667C17.4168 12.2468 17.2499 11.844 16.953 11.5471C16.6561 11.2502 16.2534 11.0834 15.8334 11.0834C15.4135 11.0834 15.0108 11.2502 14.7138 11.5471C14.4169 11.844 14.2501 12.2468 14.2501 12.6667C14.2541 13.6456 14.5606 14.5994 15.1274 15.3975C15.6942 16.1956 16.4938 16.7991 17.4168 17.1254V28.5H15.3236C14.6095 26.1396 13.2702 24.0163 11.4476 22.3551C9.9006 20.9136 8.79824 19.0597 8.27058 17.0121C7.74293 14.9645 7.81201 12.8087 8.46967 10.7991C9.12733 8.78954 10.3461 7.01 11.9822 5.67052C13.6183 4.33104 15.6035 3.48753 17.7033 3.23953C18.1386 3.19093 18.5763 3.16662 19.0143 3.16669C21.7338 3.15861 24.3592 4.16202 26.38 5.98186C27.5512 7.02622 28.487 8.3076 29.1254 9.74105C29.7638 11.1745 30.0903 12.7273 30.0831 14.2965C30.0759 15.8656 29.7353 17.4153 29.0837 18.8429C28.4322 20.2704 27.4847 21.5432 26.304 22.5768H26.2993Z" fill="#0E0E0E"/>
</g>
<defs>
<clipPath id="clip0_16_10503">
<rect width="38" height="38" fill="white"/>
</clipPath>
</defs>
</svg>
