<svg width="30" height="28" viewBox="0 0 30 28" fill="none" xmlns="http://www.w3.org/2000/svg">
<path d="M30 6.36335V7.63602C30 8.33853 29.4413 8.90869 28.75 8.90869C28.0588 8.90869 27.5 8.33853 27.5 7.63602V6.36335C27.5 4.25835 25.8175 2.54534 23.75 2.54534H6.25C4.1825 2.54534 2.5 4.25835 2.5 6.36335V19.09C2.5 21.195 4.1825 22.908 6.25 22.908H10C10.6912 22.908 11.25 23.4782 11.25 24.1807C11.25 24.8832 10.6912 25.4534 10 25.4534H6.25C2.80375 25.4534 0 22.5988 0 19.09V6.36335C0 2.8546 2.80375 0 6.25 0H23.75C27.1963 0 30 2.8546 30 6.36335ZM18.75 8.90869H23.75C24.4412 8.90869 25 8.33853 25 7.63602C25 6.9335 24.4412 6.36335 23.75 6.36335H18.75C18.0588 6.36335 17.5 6.9335 17.5 7.63602C17.5 8.33853 18.0588 8.90869 18.75 8.90869ZM28.9013 12.5727C29.6088 13.293 30 14.2526 30 15.272C30 16.2914 29.6088 17.251 28.9013 17.9726L20.5175 26.5084C19.5738 27.4693 18.3175 28 16.9825 28H15C14.3088 28 13.75 27.4298 13.75 26.7273V24.7089C13.75 23.3497 14.27 22.0706 15.215 21.1098L23.5988 12.574C25.0613 11.085 27.4388 11.085 28.9013 12.574V12.5727ZM27.5 15.272C27.5 14.9322 27.37 14.6128 27.1338 14.3723C26.645 13.8746 25.855 13.8759 25.3662 14.3723L16.9825 22.908C16.5175 23.3828 16.25 24.0382 16.25 24.7076V25.4534H16.9825C17.65 25.4534 18.2775 25.1887 18.75 24.7076L27.1338 16.1718C27.37 15.9313 27.5 15.6118 27.5 15.272ZM11.25 16.5447H8.415C7.97 16.5447 7.555 16.3004 7.33125 15.9084C6.9875 15.2988 6.22375 15.0888 5.62375 15.4438C5.02625 15.7964 4.82125 16.574 5.16875 17.1823C5.83625 18.3595 7.08125 19.09 8.41625 19.09H8.75125C8.75125 19.7926 9.31 20.3627 10.0013 20.3627C10.6925 20.3627 11.2513 19.7926 11.2513 19.09C13.3188 19.09 15.0013 17.377 15.0013 15.272C15.0013 13.5412 13.7838 12.0776 12.1075 11.7938L8.30625 11.1486C7.84 11.0697 7.50125 10.6624 7.50125 10.1814C7.50125 9.48011 8.06125 8.90869 8.75125 8.90869H11.5863C12.0313 8.90869 12.4462 9.15304 12.67 9.54502C13.0138 10.1534 13.7763 10.3621 14.3775 10.0095C14.975 9.65702 15.18 8.87941 14.8325 8.27108C14.165 7.09386 12.92 6.36207 11.585 6.36207H11.25C11.25 5.65956 10.6912 5.08941 10 5.08941C9.30875 5.08941 8.75 5.65956 8.75 6.36207C6.6825 6.36207 5 8.07509 5 10.1801C5 11.9109 6.2175 13.3745 7.89375 13.6583L11.695 14.3035C12.1613 14.3824 12.5 14.7897 12.5 15.2708C12.5 15.972 11.94 16.5434 11.25 16.5434V16.5447ZM17.5 12.7267C17.5 13.4292 18.06 13.9994 18.75 13.9994C19.44 13.9994 20 13.4292 20 12.7267C20 12.0242 19.44 11.454 18.75 11.454C18.06 11.454 17.5 12.0242 17.5 12.7267Z" fill="white"/>
</svg>
