<svg width="30" height="30" viewBox="0 0 30 30" fill="none" xmlns="http://www.w3.org/2000/svg">
<path d="M19.5649 28.75C19.5649 29.44 18.9818 30 18.2605 30H6.52162C2.9256 30 0 27.1963 0 23.75V6.25C0 2.80375 2.9256 0 6.52162 0H12.4106C14.8484 0 17.1414 0.91 18.867 2.5625L23.4113 6.92C23.7648 7.25875 24.0935 7.63 24.3869 8.02375C24.8056 8.585 24.67 9.36625 24.0843 9.7675C23.4987 10.1675 22.6822 10.0387 22.2648 9.47625C22.0548 9.195 21.82 8.92875 21.5683 8.68875L17.0227 4.33125C16.608 3.93375 16.1475 3.5975 15.6519 3.325V8.75C15.6519 9.43875 16.2362 10 16.9562 10H20.8692C21.5905 10 22.1735 10.56 22.1735 11.25C22.1735 11.94 21.5905 12.5 20.8692 12.5H16.9562C14.7989 12.5 13.0432 10.8175 13.0432 8.75V2.52875C12.8345 2.51 12.6233 2.5 12.4106 2.5H6.52162C4.36427 2.5 2.60865 4.1825 2.60865 6.25V23.75C2.60865 25.8175 4.36427 27.5 6.52162 27.5H18.2605C18.9818 27.5 19.5649 28.06 19.5649 28.75ZM26.9799 20.3337L23.0135 19.7C22.527 19.6225 22.1735 19.2225 22.1735 18.75C22.1735 18.0613 22.7578 17.5 23.4778 17.5H26.436C26.9004 17.5 27.3334 17.74 27.5669 18.125C27.9256 18.7225 28.7212 18.9263 29.3486 18.5812C29.9721 18.235 30.186 17.4712 29.8234 16.8737C29.1269 15.7175 27.8278 14.9987 26.4347 14.9987H26.0852V13.7487C26.0852 13.0587 25.5021 12.4987 24.7809 12.4987C24.0596 12.4987 23.4765 13.0587 23.4765 13.7487V14.9987C21.3192 14.9987 19.5636 16.6812 19.5636 18.7487C19.5636 20.4487 20.834 21.8862 22.5831 22.165L26.5495 22.7987C27.036 22.8763 27.3895 23.2763 27.3895 23.7488C27.3895 24.4375 26.8052 24.9988 26.0852 24.9988H23.127C22.6626 24.9988 22.2296 24.7588 21.9961 24.3738C21.6374 23.775 20.8405 23.5713 20.2144 23.9175C19.5909 24.2638 19.377 25.0275 19.7396 25.625C20.4362 26.7812 21.7353 27.4988 23.1283 27.4988H23.4778V28.7488C23.4778 29.4388 24.0609 29.9988 24.7822 29.9988C25.5035 29.9988 26.0865 29.4388 26.0865 28.7488V27.4988C28.2438 27.4988 29.9995 25.8162 29.9995 23.7488C29.9995 22.0487 28.729 20.6125 26.9799 20.3337ZM8.47811 18.75H15.6519C16.3732 18.75 16.9562 18.19 16.9562 17.5C16.9562 16.81 16.3732 16.25 15.6519 16.25H8.47811C6.68075 16.25 5.2173 17.6525 5.2173 19.375V21.875C5.2173 23.5975 6.68075 25 8.47811 25H15.6519C16.3732 25 16.9562 24.44 16.9562 23.75C16.9562 23.06 16.3732 22.5 15.6519 22.5H8.47811C8.11811 22.5 7.82594 22.22 7.82594 21.875V19.375C7.82594 19.03 8.11811 18.75 8.47811 18.75ZM6.52162 13.75H9.13027C9.85026 13.75 10.4346 13.19 10.4346 12.5C10.4346 11.81 9.85026 11.25 9.13027 11.25H6.52162C5.80163 11.25 5.2173 11.81 5.2173 12.5C5.2173 13.19 5.80163 13.75 6.52162 13.75ZM6.52162 8.75H9.13027C9.85026 8.75 10.4346 8.19 10.4346 7.5C10.4346 6.81 9.85026 6.25 9.13027 6.25H6.52162C5.80163 6.25 5.2173 6.81 5.2173 7.5C5.2173 8.19 5.80163 8.75 6.52162 8.75Z" fill="white"/>
</svg>
