<svg width="33" height="33" viewBox="0 0 33 33" fill="none" xmlns="http://www.w3.org/2000/svg">
<g clip-path="url(#clip0_16_10501)">
<path d="M23.375 0C23.0103 0 22.6606 0.144866 22.4027 0.402728C22.1449 0.660591 22 1.01033 22 1.375C22 5.42987 18.4484 6.875 15.125 6.875H5.5C4.04131 6.875 2.64236 7.45446 1.61091 8.48591C0.579463 9.51736 0 10.9163 0 12.375L0 15.125C0.00300323 15.9483 0.19176 16.7602 0.552203 17.5004C0.912647 18.2406 1.43548 18.8899 2.08175 19.3999L6.99325 30.3614C7.34255 31.1466 7.91199 31.8138 8.63262 32.2821C9.35326 32.7504 10.1942 32.9998 11.0536 33C11.7374 32.9996 12.4103 32.8281 13.0109 32.5013C13.6115 32.1744 14.1209 31.7025 14.4926 31.1286C14.8643 30.5546 15.0865 29.8968 15.1391 29.215C15.1917 28.5333 15.0729 27.8492 14.7936 27.225L11.7686 20.625H15.125C18.4484 20.625 22 22.0701 22 26.125C22 26.4897 22.1449 26.8394 22.4027 27.0973C22.6606 27.3551 23.0103 27.5 23.375 27.5C23.7397 27.5 24.0894 27.3551 24.3473 27.0973C24.6051 26.8394 24.75 26.4897 24.75 26.125V1.375C24.75 1.01033 24.6051 0.660591 24.3473 0.402728C24.0894 0.144866 23.7397 0 23.375 0ZM12.2884 28.3511C12.3795 28.5568 12.4178 28.782 12.3998 29.0062C12.3819 29.2304 12.3082 29.4466 12.1856 29.6352C12.063 29.8238 11.8952 29.9788 11.6976 30.0861C11.4999 30.1935 11.2786 30.2498 11.0536 30.25C10.7255 30.2498 10.4046 30.1543 10.1297 29.9751C9.8549 29.796 9.63799 29.5408 9.50538 29.2408L5.64438 20.625H8.74363L12.2884 28.3511ZM22 20.075C20.0355 18.5614 17.6033 17.7831 15.125 17.875H5.5C4.77066 17.875 4.07118 17.5853 3.55546 17.0695C3.03973 16.5538 2.75 15.8543 2.75 15.125V12.375C2.75 11.6457 3.03973 10.9462 3.55546 10.4305C4.07118 9.91473 4.77066 9.625 5.5 9.625H15.125C17.6024 9.71891 20.0346 8.94304 22 7.43188V20.075ZM32.8625 21.2465C32.7818 21.4082 32.6701 21.5523 32.5337 21.6708C32.3973 21.7893 32.2389 21.8797 32.0675 21.9369C31.8962 21.9941 31.7152 22.017 31.535 22.0042C31.3548 21.9914 31.1788 21.9433 31.0173 21.8625L28.2673 20.4875C27.9409 20.3245 27.6926 20.0385 27.5771 19.6925C27.4616 19.3464 27.4882 18.9686 27.6513 18.6423C27.8143 18.3159 28.1002 18.0676 28.4463 17.9521C28.7924 17.8366 29.1701 17.8632 29.4965 18.0262L32.2465 19.4012C32.5712 19.5642 32.8182 19.8489 32.9337 20.1934C33.0491 20.5378 33.0235 20.914 32.8625 21.2396V21.2465ZM27.6513 8.8715C27.5705 8.70991 27.5223 8.53398 27.5095 8.35376C27.4968 8.17355 27.5197 7.99259 27.5769 7.82122C27.6341 7.64985 27.7245 7.49144 27.843 7.35503C27.9614 7.21863 28.1056 7.10691 28.2673 7.02625L31.0173 5.65125C31.3436 5.48824 31.7214 5.46156 32.0675 5.57709C32.4135 5.69261 32.6995 5.94087 32.8625 6.26725C33.0255 6.59363 33.0522 6.9714 32.9367 7.31745C32.8211 7.6635 32.5729 7.94949 32.2465 8.1125L29.4965 9.4875C29.3349 9.56829 29.159 9.61644 28.9788 9.62921C28.7986 9.64197 28.6176 9.6191 28.4462 9.56189C28.2749 9.50468 28.1164 9.41426 27.98 9.2958C27.8436 9.17734 27.7319 9.03316 27.6513 8.8715ZM27.5 13.75C27.5 13.3853 27.6449 13.0356 27.9027 12.7777C28.1606 12.5199 28.5103 12.375 28.875 12.375H31.625C31.9897 12.375 32.3394 12.5199 32.5973 12.7777C32.8551 13.0356 33 13.3853 33 13.75C33 14.1147 32.8551 14.4644 32.5973 14.7223C32.3394 14.9801 31.9897 15.125 31.625 15.125H28.875C28.5103 15.125 28.1606 14.9801 27.9027 14.7223C27.6449 14.4644 27.5 14.1147 27.5 13.75Z" fill="#0E0E0E"/>
</g>
<defs>
<clipPath id="clip0_16_10501">
<rect width="33" height="33" fill="white"/>
</clipPath>
</defs>
</svg>
