<svg width="30" height="27" viewBox="0 0 30 27" fill="none" xmlns="http://www.w3.org/2000/svg">
<path d="M27.5712 5.21335L18.3539 0.906526C16.325 -0.282125 13.7997 -0.303216 11.7503 0.851357L2.42938 5.21335C2.3944 5.23053 2.35813 5.24892 2.32438 5.26851C0.112404 6.509 -0.655506 9.27334 0.609266 11.4428C1.03799 12.1783 1.66861 12.7809 2.42938 13.1821L5.00058 14.3836V20.3908C5.0021 23.077 6.78419 25.4502 9.39922 26.2485C11.219 26.7649 13.106 27.0177 15.0003 26.9988C16.8944 27.0196 18.7814 26.7689 20.6015 26.2547C23.2165 25.4564 24.9986 23.0832 25.0001 20.397V14.3811L27.5001 13.2091V23.3208C27.5001 23.9979 28.0597 24.5468 28.75 24.5468C29.4403 24.5468 30 23.9979 30 23.3208V8.60925C30.0083 7.16964 28.8493 5.83974 27.5712 5.21335ZM22.5001 20.397C22.5007 22.0037 21.4379 23.4249 19.8752 23.9069C18.2905 24.351 16.6483 24.5666 15.0003 24.5469C13.3523 24.5666 11.7101 24.351 10.1254 23.9069C8.5627 23.4249 7.49983 22.0037 7.50048 20.397V15.552L11.6466 17.489C12.6697 18.0848 13.838 18.3979 15.0278 18.395C16.1603 18.4029 17.2737 18.1088 18.249 17.5442L22.5001 15.5519V20.397ZM26.5 10.9693L17.0728 15.3827C15.7583 16.1334 14.129 16.1122 12.8354 15.3276L3.61183 11.0244C2.58371 10.4807 2.19969 9.22243 2.75409 8.21411C2.94159 7.8731 3.22271 7.59042 3.5656 7.39802L12.9341 3.00908C14.249 2.26005 15.8774 2.28126 17.1715 3.06425L26.3887 7.37107C27.0666 7.74023 27.4907 8.43737 27.4999 9.19777C27.5012 9.91807 27.123 10.5879 26.5 10.9693Z" fill="white"/>
</svg>
