<svg width="33" height="33" viewBox="0 0 33 33" fill="none" xmlns="http://www.w3.org/2000/svg">
<path d="M28.875 8.25H24.75C24.75 6.06196 23.8808 3.96354 22.3336 2.41637C20.7865 0.869194 18.688 0 16.5 0C14.312 0 12.2135 0.869194 10.6664 2.41637C9.11919 3.96354 8.25 6.06196 8.25 8.25H4.125C3.03098 8.25 1.98177 8.6846 1.20818 9.45818C0.434597 10.2318 0 11.281 0 12.375L0 26.125C0.0021833 27.9477 0.727213 29.6951 2.01605 30.9839C3.30489 32.2728 5.05231 32.9978 6.875 33H26.125C27.9477 32.9978 29.6951 32.2728 30.9839 30.9839C32.2728 29.6951 32.9978 27.9477 33 26.125V12.375C33 11.281 32.5654 10.2318 31.7918 9.45818C31.0182 8.6846 29.969 8.25 28.875 8.25ZM16.5 2.75C17.9587 2.75 19.3576 3.32946 20.3891 4.36091C21.4205 5.39236 22 6.79131 22 8.25H11C11 6.79131 11.5795 5.39236 12.6109 4.36091C13.6424 3.32946 15.0413 2.75 16.5 2.75ZM30.25 26.125C30.25 27.219 29.8154 28.2682 29.0418 29.0418C28.2682 29.8154 27.219 30.25 26.125 30.25H6.875C5.78098 30.25 4.73177 29.8154 3.95818 29.0418C3.1846 28.2682 2.75 27.219 2.75 26.125V12.375C2.75 12.0103 2.89487 11.6606 3.15273 11.4027C3.41059 11.1449 3.76033 11 4.125 11H8.25V13.75C8.25 14.1147 8.39487 14.4644 8.65273 14.7223C8.91059 14.9801 9.26033 15.125 9.625 15.125C9.98967 15.125 10.3394 14.9801 10.5973 14.7223C10.8551 14.4644 11 14.1147 11 13.75V11H22V13.75C22 14.1147 22.1449 14.4644 22.4027 14.7223C22.6606 14.9801 23.0103 15.125 23.375 15.125C23.7397 15.125 24.0894 14.9801 24.3473 14.7223C24.6051 14.4644 24.75 14.1147 24.75 13.75V11H28.875C29.2397 11 29.5894 11.1449 29.8473 11.4027C30.1051 11.6606 30.25 12.0103 30.25 12.375V26.125Z" fill="#0E0E0E"/>
</svg>
