<svg width="16" height="16" viewBox="0 0 16 16" fill="none" xmlns="http://www.w3.org/2000/svg">
<g clip-path="url(#clip0_96_9907)">
<path d="M15.9327 4.66797H0V4.0013C0 2.1633 1.49533 0.667969 3.33333 0.667969H5.01867C5.32733 0.667969 5.63667 0.740635 5.91267 0.878635L8.01667 1.93064C8.10867 1.97664 8.212 2.00064 8.31467 2.00064H12.6667C14.276 2.00064 15.6227 3.14864 15.9327 4.66797ZM16 6.0013V12.0013C16 13.8393 14.5047 15.3346 12.6667 15.3346H3.33333C1.49533 15.3346 0 13.8393 0 12.0013V6.0013H16ZM10.4713 11.406C10.2107 11.1453 9.78933 11.1453 9.52867 11.406L8.66667 12.268V8.0013C8.66267 7.1293 7.33667 7.12997 7.33333 8.0013V12.268L6.47133 11.406C5.852 10.792 4.91467 11.73 5.52867 12.3486L6.60467 13.424C7.374 14.1933 8.62667 14.1933 9.396 13.424L10.4713 12.3486C10.732 12.088 10.732 11.6666 10.4713 11.406Z" fill="black"/>
</g>
<defs>
<clipPath id="clip0_96_9907">
<rect width="16" height="16" fill="white"/>
</clipPath>
</defs>
</svg>
