<svg width="14" height="14" viewBox="0 0 14 14" fill="none" xmlns="http://www.w3.org/2000/svg">
<g clip-path="url(#clip0_96_8845)">
<path d="M13.4865 0.514152C13.2773 0.302476 13.0171 0.148318 12.731 0.06657C12.4449 -0.0151777 12.1425 -0.0217509 11.8531 0.0474854L2.51981 2.01332C1.98231 2.08703 1.47607 2.30935 1.05809 2.65523C0.640117 3.00111 0.327008 3.45681 0.154028 3.97102C-0.0189527 4.48524 -0.0449341 5.03753 0.0790096 5.56571C0.202953 6.09389 0.471899 6.57698 0.855559 6.96057L1.85773 7.96215C1.91197 8.01638 1.95498 8.08077 1.98431 8.15163C2.01364 8.2225 2.0287 8.29846 2.02864 8.37515V10.2232C2.02993 10.483 2.08974 10.7392 2.20364 10.9727L2.19898 10.9768L2.21414 10.992C2.38507 11.3356 2.66423 11.6136 3.00864 11.783L3.02381 11.7982L3.02789 11.7935C3.26144 11.9074 3.51764 11.9672 3.77748 11.9685H5.62548C5.78009 11.9684 5.92843 12.0296 6.03789 12.1388L7.03948 13.1404C7.30812 13.412 7.62785 13.6278 7.98026 13.7752C8.33267 13.9227 8.71079 13.999 9.09281 13.9997C9.41116 13.9993 9.72735 13.9472 10.0291 13.8457C10.5386 13.6783 10.9912 13.372 11.3359 12.9612C11.6805 12.5503 11.9035 12.0513 11.9797 11.5205L13.9485 2.16674C14.0213 1.87486 14.017 1.56906 13.936 1.27935C13.855 0.98963 13.7001 0.725943 13.4865 0.514152ZM2.68373 7.13849L1.68098 6.1369C1.44748 5.90903 1.28383 5.61928 1.20923 5.30166C1.13463 4.98404 1.15217 4.65173 1.25981 4.34374C1.36416 4.02776 1.55708 3.7484 1.81561 3.53889C2.07414 3.32938 2.3874 3.19853 2.71814 3.1619L11.9587 1.21649L3.19414 9.98224V8.37515C3.19503 8.14552 3.15037 7.91798 3.06276 7.70571C2.97515 7.49344 2.84632 7.30065 2.68373 7.13849ZM10.8335 11.321C10.7887 11.6432 10.655 11.9465 10.4474 12.1969C10.2398 12.4474 9.96645 12.635 9.65814 12.7387C9.34982 12.8424 9.0187 12.8581 8.70194 12.7841C8.38518 12.7101 8.09532 12.5493 7.86489 12.3197L6.86156 11.3163C6.69961 11.1535 6.50698 11.0244 6.29481 10.9365C6.08263 10.8485 5.85514 10.8036 5.62548 10.8042H4.01839L12.7841 2.04132L10.8335 11.321Z" fill="#FFD600"/>
</g>
<defs>
<clipPath id="clip0_96_8845">
<rect width="14" height="14" fill="white"/>
</clipPath>
</defs>
</svg>
