<svg width="16" height="14" viewBox="0 0 16 14" fill="none" xmlns="http://www.w3.org/2000/svg">
<path d="M11.6652 0C10.9148 0.0116235 10.1808 0.220228 9.53722 0.604749C8.89368 0.989269 8.36343 1.53609 8 2.18999C7.63657 1.53609 7.10632 0.989269 6.46278 0.604749C5.81924 0.220228 5.08521 0.0116235 4.33481 0C3.13859 0.0517571 2.01155 0.572883 1.19993 1.44953C0.38831 2.32617 -0.0419227 3.48707 0.0032261 4.67861C0.0032261 7.69614 3.19261 10.9917 5.86753 13.2262C6.46476 13.726 7.21988 14 8 14C8.78012 14 9.53523 13.726 10.1325 13.2262C12.8074 10.9917 15.9968 7.69614 15.9968 4.67861C16.0419 3.48707 15.6117 2.32617 14.8001 1.44953C13.9884 0.572883 12.8614 0.0517571 11.6652 0ZM9.27615 12.2108C8.91895 12.5104 8.46698 12.6746 8 12.6746C7.53302 12.6746 7.08105 12.5104 6.72385 12.2108C3.2999 9.34991 1.33602 6.60513 1.33602 4.67861C1.29047 3.83892 1.58017 3.01537 2.14194 2.38755C2.70371 1.75973 3.49197 1.3786 4.33481 1.32726C5.17765 1.3786 5.96591 1.75973 6.52769 2.38755C7.08946 3.01537 7.37916 3.83892 7.3336 4.67861C7.3336 4.85461 7.40381 5.02341 7.52879 5.14786C7.65376 5.27232 7.82326 5.34224 8 5.34224C8.17674 5.34224 8.34624 5.27232 8.47121 5.14786C8.59619 5.02341 8.6664 4.85461 8.6664 4.67861C8.62084 3.83892 8.91054 3.01537 9.47231 2.38755C10.0341 1.75973 10.8224 1.3786 11.6652 1.32726C12.508 1.3786 13.2963 1.75973 13.8581 2.38755C14.4198 3.01537 14.7095 3.83892 14.664 4.67861C14.664 6.60513 12.7001 9.34991 9.27615 12.2082V12.2108Z" fill="#FF6666"/>
</svg>
