<svg width="31" height="32" viewBox="0 0 31 32" fill="none" xmlns="http://www.w3.org/2000/svg">
<path d="M15.5 0.061789C11.3891 0.061789 7.44675 1.69475 4.53979 4.60154C1.63297 7.50834 0 11.451 0 15.5617C0 19.6723 1.63297 23.6148 4.53979 26.5218C7.44662 29.4286 11.3893 31.0615 15.5 31.0615C19.6107 31.0615 23.5533 29.4286 26.4602 26.5218C29.367 23.615 31 19.6723 31 15.5617C31 12.8409 30.2838 10.168 28.9235 7.81139C27.5631 5.45522 25.6062 3.49842 23.2501 2.13796C20.8936 0.777694 18.2206 0.0615234 15.4997 0.0615234L15.5 0.061789ZM24.2979 12.8294L14.9978 21.3543C14.7033 21.6244 14.3158 21.7702 13.9165 21.7617C13.5172 21.7528 13.1365 21.5904 12.8542 21.3078L8.20411 16.6578C7.90492 16.369 7.73444 15.9722 7.7308 15.5565C7.72717 15.1406 7.89091 14.741 8.18465 14.447C8.47865 14.153 8.8785 13.9895 9.29422 13.9929C9.70992 13.9965 10.1069 14.167 10.3958 14.4662L13.9964 18.0668L22.2025 10.5444C22.6106 10.1702 23.1872 10.042 23.7155 10.2084C24.2439 10.3744 24.6432 10.8099 24.7633 11.3506C24.8835 11.8911 24.706 12.4547 24.2981 12.8292L24.2979 12.8294Z" fill="#0E0E0E"/>
</svg>
