<svg width="17" height="17" viewBox="0 0 17 17" fill="none" xmlns="http://www.w3.org/2000/svg">
<path d="M8.19149 1.47584C10.3786 1.47584 10.638 1.48404 11.5015 1.52363C12.3944 1.56459 13.3139 1.76801 13.9645 2.41855C14.6211 3.07524 14.8184 3.98587 14.8594 4.88148C14.899 5.745 14.9072 6.0044 14.9072 8.19155C14.9072 10.3787 14.899 10.6381 14.8594 11.5016C14.8191 12.3897 14.6109 13.3181 13.9645 13.9645C13.3078 14.6212 12.3978 14.8185 11.5015 14.8595C10.638 14.8991 10.3786 14.9072 8.19149 14.9072C6.00437 14.9072 5.74497 14.8991 4.88145 14.8595C4.00018 14.8192 3.05952 14.6062 2.41854 13.9645C1.76527 13.3113 1.56458 12.3918 1.52362 11.5016C1.48403 10.6381 1.47583 10.3787 1.47583 8.19155C1.47583 6.0044 1.48403 5.745 1.52362 4.88148C1.56389 3.99679 1.77414 3.06296 2.41854 2.41855C3.07386 1.76323 3.98789 1.56459 4.88145 1.52363C5.74497 1.48404 6.00437 1.47584 8.19149 1.47584ZM8.19149 0C5.96682 0 5.68763 0.0095568 4.81387 0.0491493C3.5476 0.107173 2.29021 0.459409 1.37481 1.37481C0.455993 2.29363 0.107172 3.54831 0.049149 4.8139C0.00955674 5.68766 0 5.96686 0 8.19155C0 10.4162 0.00955674 10.6954 0.049149 11.5692C0.107172 12.8341 0.460772 14.0949 1.37481 15.0083C2.29294 15.9264 3.54965 16.2759 4.81387 16.3339C5.68763 16.3735 5.96682 16.3831 8.19149 16.3831C10.4162 16.3831 10.6954 16.3735 11.5691 16.3339C12.8347 16.2759 14.0935 15.923 15.0082 15.0083C15.9277 14.0888 16.2758 12.8348 16.3338 11.5692C16.3734 10.6954 16.383 10.4162 16.383 8.19155C16.383 5.96686 16.3734 5.68766 16.3338 4.8139C16.2758 3.54762 15.9229 2.28954 15.0082 1.37481C14.0914 0.458044 12.8313 0.10649 11.5691 0.0491493C10.6954 0.0095568 10.4162 0 8.19149 0Z" fill="white"/>
<path d="M8.19168 3.98535C5.86871 3.98535 3.98535 5.86872 3.98535 8.19171C3.98535 10.5147 5.86871 12.3981 8.19168 12.3981C10.5147 12.3981 12.398 10.5147 12.398 8.19171C12.398 5.86872 10.5147 3.98535 8.19168 3.98535ZM8.19168 10.9222C6.68377 10.9222 5.46119 9.69964 5.46119 8.19171C5.46119 6.68378 6.68377 5.4612 8.19168 5.4612C9.6996 5.4612 10.9222 6.68378 10.9222 8.19171C10.9222 9.69964 9.6996 10.9222 8.19168 10.9222Z" fill="white"/>
<path d="M12.564 4.80215C13.1069 4.80215 13.547 4.362 13.547 3.81904C13.547 3.27609 13.1069 2.83594 12.564 2.83594C12.0211 2.83594 11.5811 3.27609 11.5811 3.81904C11.5811 4.362 12.0211 4.80215 12.564 4.80215Z" fill="white"/>
</svg>
