<svg width="16" height="16" viewBox="0 0 16 16" fill="none" xmlns="http://www.w3.org/2000/svg">
<path d="M13.6335 13.6337H11.2626V9.92072C11.2626 9.03526 11.2468 7.89591 10.0294 7.89591C8.79467 7.89591 8.60543 8.86022 8.60543 9.85685V13.6337H6.23527V5.99805H8.5116V7.0412H8.54314C9.00756 6.248 9.87015 5.77412 10.7887 5.80803C13.192 5.80803 13.6343 7.38892 13.6343 9.44448L13.6335 13.6337ZM3.55997 4.95411C2.79988 4.95411 2.18408 4.33831 2.18408 3.57821C2.18408 2.81812 2.79988 2.20232 3.55997 2.20232C4.32006 2.20232 4.93586 2.81812 4.93586 3.57821C4.93586 4.33831 4.32006 4.95411 3.55997 4.95411ZM4.74505 13.6337H2.37174V5.99805H4.74505V13.6337ZM14.8155 0.000896176H1.18035C0.536164 -0.00620011 0.00788477 0.510252 0 1.15444V14.8455C0.00788477 15.4905 0.536164 16.007 1.18035 15.9999H14.8155C15.4612 16.0078 15.9919 15.4913 16.0006 14.8455V1.15365C15.9911 0.507886 15.4604 -0.00856558 14.8155 0.000107663" fill="white"/>
</svg>
