<svg width="185" height="202" viewBox="0 0 185 202" fill="none" xmlns="http://www.w3.org/2000/svg">
<path d="M108.072 0.198141C112.826 -0.238191 117.559 1.23183 121.229 4.28482L172.28 46.7522C175.95 49.8052 178.257 54.1911 178.693 58.945L184.762 125.072C185.199 129.826 183.729 134.559 180.676 138.229L138.208 189.28C135.155 192.95 130.769 195.257 126.015 195.693L59.8881 201.762C55.1342 202.199 50.4016 200.729 46.7316 197.676L-4.31924 155.208C-7.9893 152.155 -10.2963 147.77 -10.7326 143.016L-16.802 76.8883C-17.2383 72.1343 -15.7683 67.4018 -12.7153 63.7318L29.752 12.6809C32.805 9.01085 37.1909 6.7039 41.9448 6.26756L108.072 0.198141Z" fill="#0CFF00"/>
</svg>
