<svg width="35" height="35" viewBox="0 0 35 35" fill="none" xmlns="http://www.w3.org/2000/svg">
<g clip-path="url(#clip0_96_4178)">
<path d="M2.73955 26.0725C1.47251 27.822 0.563123 29.8043 0.0635073 31.9058C-0.0319287 32.3242 -0.0196316 32.76 0.0992474 33.1723C0.218126 33.5847 0.439699 33.9601 0.74322 34.2635C1.04674 34.5669 1.42228 34.7883 1.83469 34.9069C2.24709 35.0256 2.68287 35.0377 3.10122 34.9421C5.19954 34.4417 7.17874 33.5328 8.9258 32.2675C9.74731 31.4471 10.2093 30.334 10.2101 29.1731C10.2109 28.0121 9.75052 26.8984 8.93017 26.0769C8.10983 25.2554 6.99674 24.7934 5.83577 24.7925C4.6748 24.7917 3.56106 25.2521 2.73955 26.0725ZM6.86372 30.1981C5.68831 30.9509 4.41157 31.5323 3.07205 31.9248C3.46504 30.5855 4.04641 29.3088 4.79872 28.1331C5.07376 27.8675 5.44214 27.7205 5.82451 27.7238C6.20688 27.7271 6.57265 27.8805 6.84304 28.1509C7.11342 28.4213 7.26679 28.787 7.27012 29.1694C7.27344 29.5518 7.12645 29.9201 6.8608 30.1952L6.86372 30.1981ZM26.2493 12.3962C26.2493 13.3632 25.8652 14.2905 25.1815 14.9742C24.4978 15.658 23.5704 16.0421 22.6035 16.0421C21.6366 16.0421 20.7092 15.658 20.0255 14.9742C19.3418 14.2905 18.9577 13.3632 18.9577 12.3962C18.9577 11.4293 19.3418 10.502 20.0255 9.81824C20.7092 9.13451 21.6366 8.7504 22.6035 8.7504C23.5704 8.7504 24.4978 9.13451 25.1815 9.81824C25.8652 10.502 26.2493 11.4293 26.2493 12.3962ZM30.5835 0.000399111C27.113 -0.0202314 23.6845 0.759209 20.564 2.27821C17.4436 3.79722 14.7152 6.01491 12.5906 8.75915C10.2735 8.83925 8.00087 9.41773 5.92747 10.4552C3.52299 11.5624 1.56011 13.4452 0.353716 15.8014C0.0706086 16.4588 -0.0443073 17.1763 0.0193446 17.8892C0.0829965 18.6021 0.323212 19.288 0.718299 19.8848C1.11716 20.4962 1.66226 20.9985 2.30422 21.3461C2.94619 21.6937 3.66473 21.8756 4.39476 21.8754H8.02017C9.37188 21.8819 10.6664 22.4218 11.6222 23.3776C12.578 24.3334 13.1178 25.6279 13.1243 26.9796V30.605C13.1238 31.3347 13.3053 32.0531 13.6524 32.695C13.9995 33.337 14.5012 33.8822 15.1121 34.2814C15.7089 34.6765 16.3947 34.9167 17.1076 34.9804C17.8205 35.044 18.538 34.9291 19.1954 34.646C21.5517 33.4396 23.4344 31.4767 24.5416 29.0723C25.5791 26.9989 26.1576 24.7262 26.2377 22.4091C28.9863 20.2792 31.2067 17.544 32.7263 14.4163C34.2459 11.2886 35.0237 7.85262 34.9993 4.3754C34.9976 3.79791 34.8819 3.22644 34.6589 2.69375C34.4359 2.16106 34.1099 1.67763 33.6997 1.27118C33.2894 0.864736 32.803 0.543262 32.2683 0.325193C31.7335 0.107124 31.161 -0.00324995 30.5835 0.000399111ZM6.33726 18.9587H4.39476C4.14815 18.9606 3.90509 18.8999 3.6883 18.7824C3.47152 18.6648 3.28809 18.4942 3.15517 18.2864C3.0246 18.0935 2.94478 17.8707 2.92312 17.6388C2.90145 17.4068 2.93863 17.1731 3.03122 16.9594C3.97089 15.2372 5.44715 13.869 7.23559 13.0627C8.15965 12.5994 9.13524 12.2469 10.142 12.0127C8.69252 14.224 7.42028 16.5466 6.33726 18.9587ZM21.9414 27.7641C21.1351 29.5521 19.7675 31.0283 18.0462 31.9685C17.8322 32.0612 17.5983 32.0985 17.3661 32.0768C17.1338 32.0551 16.9108 31.9753 16.7177 31.8446C16.5099 31.7116 16.3393 31.5282 16.2217 31.3114C16.1042 31.0947 16.0435 30.8516 16.0454 30.605V28.6625C18.4575 27.5795 20.7801 26.3072 22.9914 24.8577C22.7558 25.8647 22.4019 26.8403 21.9371 27.7641H21.9414ZM22.1383 21.9016C20.1649 23.2723 18.0816 24.4775 15.9098 25.5052C15.6132 23.9128 14.8414 22.4475 13.6961 21.3022C12.5508 20.1568 11.0855 19.3851 9.49309 19.0885C10.5215 16.9186 11.7272 14.8373 13.0981 12.8658C18.0098 6.01457 23.0993 3.13144 30.6243 2.91707C31.0041 2.91692 31.369 3.06494 31.6414 3.32967C31.9137 3.59439 32.072 3.95491 32.0827 4.33457C31.8683 11.9004 28.9852 16.99 22.1339 21.9016H22.1383Z" fill="white"/>
</g>
<defs>
<clipPath id="clip0_96_4178">
<rect width="35" height="35" fill="white"/>
</clipPath>
</defs>
</svg>
