<svg width="39" height="39" viewBox="0 0 39 39" fill="none" xmlns="http://www.w3.org/2000/svg">
<g clip-path="url(#clip0_96_4180)">
<path d="M30.1941 3.47789L20.0135 0.0832663C19.6802 -0.0277554 19.3198 -0.0277554 18.9865 0.0832663L8.80588 3.47789C7.18722 4.01557 5.77918 5.04968 4.7818 6.4333C3.78442 7.81691 3.24844 9.47964 3.25 11.1853V19.5004C3.25 31.7903 18.2 38.5779 18.8403 38.8606C19.048 38.9529 19.2727 39.0006 19.5 39.0006C19.7273 39.0006 19.952 38.9529 20.1598 38.8606C20.8 38.5779 35.75 31.7903 35.75 19.5004V11.1853C35.7516 9.47964 35.2156 7.81691 34.2182 6.4333C33.2208 5.04968 31.8128 4.01557 30.1941 3.47789ZM32.5 19.5004C32.5 28.3648 22.2316 34.179 19.5 35.57C16.7651 34.1839 6.5 28.3875 6.5 19.5004V11.1853C6.5001 10.162 6.8222 9.16464 7.42067 8.3346C8.01914 7.50455 8.86364 6.88388 9.8345 6.56052L19.5 3.33814L29.1655 6.56052C30.1364 6.88388 30.9809 7.50455 31.5793 8.3346C32.1778 9.16464 32.4999 10.162 32.5 11.1853V19.5004Z" fill="white"/>
<path d="M24.862 13.4882L18.0565 20.3132L14.41 16.5107C14.2637 16.3507 14.0868 16.2216 13.8898 16.131C13.6928 16.0405 13.4797 15.9902 13.2629 15.9833C13.0462 15.9763 12.8303 16.0128 12.6279 16.0906C12.4255 16.1684 12.2407 16.2859 12.0845 16.4363C11.9282 16.5866 11.8036 16.7666 11.718 16.9659C11.6323 17.1651 11.5875 17.3794 11.586 17.5962C11.5845 17.8131 11.6264 18.028 11.7093 18.2284C11.7921 18.4288 11.9142 18.6105 12.0684 18.763L15.8157 22.663C16.0951 22.9648 16.4329 23.2069 16.8086 23.3744C17.1842 23.542 17.59 23.6317 18.0013 23.638H18.0549C18.458 23.6393 18.8573 23.5606 19.2298 23.4063C19.6022 23.252 19.9402 23.0253 20.2243 22.7394L27.1663 15.7974C27.3179 15.6461 27.4382 15.4664 27.5204 15.2686C27.6026 15.0708 27.645 14.8587 27.6452 14.6445C27.6455 14.4303 27.6035 14.2182 27.5217 14.0202C27.44 13.8222 27.32 13.6423 27.1687 13.4907C27.0174 13.3391 26.8377 13.2187 26.6399 13.1365C26.4421 13.0544 26.2301 13.0119 26.0159 13.0117C25.8017 13.0115 25.5896 13.0535 25.3916 13.1352C25.1936 13.217 25.0137 13.3369 24.862 13.4882Z" fill="white"/>
</g>
<defs>
<clipPath id="clip0_96_4180">
<rect width="39" height="39" fill="white"/>
</clipPath>
</defs>
</svg>
