<svg width="37" height="37" viewBox="0 0 37 37" fill="none" xmlns="http://www.w3.org/2000/svg">
<g clip-path="url(#clip0_96_4176)">
<path d="M22.5074 32.8377C22.0449 33.1861 21.5531 33.5531 21.1354 33.9169H24.6658C25.0746 33.9169 25.4668 34.0793 25.7559 34.3684C26.045 34.6575 26.2074 35.0497 26.2074 35.4586C26.2074 35.8674 26.045 36.2596 25.7559 36.5487C25.4668 36.8378 25.0746 37.0002 24.6658 37.0002H18.4991C18.0902 37.0002 17.6981 36.8378 17.409 36.5487C17.1199 36.2596 16.9574 35.8674 16.9574 35.4586C16.9574 33.1461 18.9231 31.6722 20.6574 30.3711C21.8137 29.5046 23.1241 28.5211 23.1241 27.7502C23.1241 27.3413 22.9617 26.9492 22.6726 26.6601C22.3834 26.371 21.9913 26.2086 21.5824 26.2086C21.1736 26.2086 20.7814 26.371 20.4923 26.6601C20.2032 26.9492 20.0408 27.3413 20.0408 27.7502C20.0408 28.1591 19.8783 28.5512 19.5892 28.8403C19.3001 29.1295 18.908 29.2919 18.4991 29.2919C18.0902 29.2919 17.6981 29.1295 17.409 28.8403C17.1199 28.5512 16.9574 28.1591 16.9574 27.7502C16.9574 26.5236 17.4447 25.3472 18.3121 24.4798C19.1794 23.6125 20.3558 23.1252 21.5824 23.1252C22.8091 23.1252 23.9855 23.6125 24.8528 24.4798C25.7202 25.3472 26.2074 26.5236 26.2074 27.7502C26.2074 30.0627 24.2418 31.5366 22.5074 32.8377ZM35.4574 23.1252C35.0486 23.1252 34.6564 23.2876 34.3673 23.5768C34.0782 23.8659 33.9158 24.258 33.9158 24.6669V29.2919H32.3741C31.9652 29.2919 31.5731 29.1295 31.284 28.8403C30.9949 28.5512 30.8324 28.1591 30.8324 27.7502V24.6669C30.8324 24.258 30.67 23.8659 30.3809 23.5768C30.0918 23.2876 29.6996 23.1252 29.2908 23.1252C28.8819 23.1252 28.4898 23.2876 28.2006 23.5768C27.9115 23.8659 27.7491 24.258 27.7491 24.6669V27.7502C27.7491 28.9768 28.2364 30.1532 29.1037 31.0206C29.9711 31.8879 31.1475 32.3752 32.3741 32.3752H33.9158V35.4586C33.9158 35.8674 34.0782 36.2596 34.3673 36.5487C34.6564 36.8378 35.0486 37.0002 35.4574 37.0002C35.8663 37.0002 36.2584 36.8378 36.5476 36.5487C36.8367 36.2596 36.9991 35.8674 36.9991 35.4586V24.6669C36.9991 24.258 36.8367 23.8659 36.5476 23.5768C36.2584 23.2876 35.8663 23.1252 35.4574 23.1252ZM20.0408 18.5002V10.7919C20.0408 10.383 19.8783 9.99088 19.5892 9.70176C19.3001 9.41264 18.908 9.25022 18.4991 9.25022C18.0902 9.25022 17.6981 9.41264 17.409 9.70176C17.1199 9.99088 16.9574 10.383 16.9574 10.7919V16.9586H12.3324C11.9236 16.9586 11.5314 17.121 11.2423 17.4101C10.9532 17.6992 10.7908 18.0913 10.7908 18.5002C10.7908 18.9091 10.9532 19.3012 11.2423 19.5903C11.5314 19.8795 11.9236 20.0419 12.3324 20.0419H18.4991C18.908 20.0419 19.3001 19.8795 19.5892 19.5903C19.8783 19.3012 20.0408 18.9091 20.0408 18.5002ZM35.4574 3.08355C35.0486 3.08355 34.6564 3.24598 34.3673 3.53509C34.0782 3.82421 33.9158 4.21634 33.9158 4.62522V8.28513C32.3095 5.86098 30.1543 3.84964 27.6251 2.41432C25.096 0.978998 22.2641 0.160126 19.3592 0.0241446C16.4543 -0.111837 13.5583 0.438903 10.9061 1.63168C8.25395 2.82445 5.92032 4.62566 4.09457 6.88916C2.26882 9.15266 1.0024 11.8147 0.398048 14.6592C-0.206302 17.5038 -0.131553 20.4508 0.616232 23.261C1.36402 26.0713 2.76377 28.6657 4.70192 30.8337C6.64008 33.0018 9.06203 34.6824 11.7713 35.7391C11.9503 35.8082 12.1405 35.8437 12.3324 35.844C12.6922 35.8445 13.0408 35.7192 13.3179 35.4898C13.5951 35.2604 13.7832 34.9413 13.8498 34.5877C13.9164 34.2342 13.8573 33.8685 13.6827 33.554C13.508 33.2394 13.2289 32.9959 12.8936 32.8655C10.5935 31.9761 8.54028 30.5478 6.90636 28.7007C5.27245 26.8535 4.1055 24.6413 3.50348 22.2499C2.90146 19.8584 2.88193 17.3574 3.44654 14.9568C4.01115 12.5562 5.14341 10.326 6.74828 8.4536C8.35316 6.58116 10.3838 5.12104 12.6698 4.19582C14.9557 3.2706 17.4303 2.90728 19.8857 3.13635C22.3412 3.36541 24.7058 4.18019 26.7812 5.51228C28.8566 6.84437 30.5821 8.6549 31.8129 10.7919H27.7491C27.3402 10.7919 26.9481 10.9543 26.659 11.2434C26.3699 11.5325 26.2074 11.9247 26.2074 12.3336C26.2074 12.7424 26.3699 13.1346 26.659 13.4237C26.9481 13.7128 27.3402 13.8752 27.7491 13.8752H32.3741C33.6007 13.8752 34.7771 13.3879 35.6445 12.5206C36.5118 11.6532 36.9991 10.4768 36.9991 9.25022V4.62522C36.9991 4.21634 36.8367 3.82421 36.5476 3.53509C36.2584 3.24598 35.8663 3.08355 35.4574 3.08355Z" fill="black"/>
</g>
<defs>
<clipPath id="clip0_96_4176">
<rect width="37" height="37" fill="white"/>
</clipPath>
</defs>
</svg>
