<svg width="327" height="255" viewBox="0 0 327 255" fill="none" xmlns="http://www.w3.org/2000/svg">
<circle cx="170.457" cy="137.866" r="117.135" fill="#EAEAEA"/>
<path d="M183.795 206.703C184.302 203.455 185.761 200.431 187.987 198.012C190.213 195.593 193.107 193.889 196.302 193.114C199.496 192.34 202.849 192.53 205.936 193.662C209.022 194.793 211.704 196.814 213.642 199.469C215.58 202.124 216.687 205.295 216.823 208.579C216.96 211.863 216.119 215.115 214.407 217.921C212.696 220.728 210.19 222.964 207.208 224.347C204.226 225.729 200.9 226.197 197.652 225.689C193.297 225.009 189.39 222.627 186.791 219.066C184.193 215.506 183.115 211.058 183.795 206.703ZM206.654 210.273C206.857 208.974 206.67 207.643 206.117 206.451C205.564 205.258 204.67 204.255 203.547 203.571C202.424 202.886 201.124 202.55 199.81 202.604C198.496 202.659 197.228 203.102 196.166 203.877C195.104 204.652 194.295 205.725 193.843 206.959C193.391 208.194 193.314 209.535 193.624 210.813C193.934 212.091 194.616 213.248 195.583 214.139C196.551 215.029 197.76 215.613 199.06 215.816C200.802 216.088 202.581 215.657 204.005 214.617C205.429 213.578 206.382 212.015 206.654 210.273Z" fill="#000"/>
<path d="M121.441 196.969C121.949 193.721 123.408 190.696 125.634 188.277C127.86 185.859 130.753 184.154 133.948 183.38C137.143 182.606 140.496 182.796 143.582 183.927C146.669 185.058 149.351 187.079 151.289 189.735C153.227 192.39 154.334 195.56 154.47 198.845C154.606 202.129 153.765 205.38 152.054 208.187C150.342 210.993 147.837 213.229 144.855 214.612C141.872 215.995 138.547 216.462 135.299 215.955C130.943 215.275 127.037 212.892 124.438 209.332C121.839 205.771 120.761 201.324 121.441 196.969ZM144.301 200.538C144.504 199.239 144.317 197.909 143.764 196.716C143.21 195.523 142.316 194.521 141.193 193.836C140.071 193.152 138.77 192.816 137.456 192.87C136.143 192.924 134.875 193.367 133.812 194.143C132.75 194.918 131.942 195.99 131.49 197.225C131.037 198.46 130.961 199.801 131.271 201.079C131.58 202.357 132.262 203.514 133.23 204.404C134.197 205.295 135.407 205.879 136.706 206.081C138.448 206.353 140.227 205.922 141.651 204.883C143.076 203.843 144.029 202.281 144.301 200.538Z" fill="#000"/>
<path d="M250.382 89.7902L261.484 91.5238C262.79 91.7278 263.962 92.4426 264.742 93.5107C265.521 94.5789 265.845 95.9131 265.641 97.2197C265.437 98.5263 264.722 99.6983 263.654 100.478C262.586 101.258 261.252 101.581 259.945 101.377L248.844 99.6433C247.668 99.4435 246.459 99.6718 245.437 100.287C244.415 100.902 243.647 101.863 243.273 102.996L216.262 185.261C215.888 186.394 215.121 187.355 214.099 187.97C213.077 188.585 211.868 188.814 210.692 188.614L129.765 175.976C128.459 175.772 127.287 175.057 126.507 173.989C125.727 172.921 125.404 171.587 125.608 170.28C125.812 168.974 126.527 167.802 127.595 167.022C128.663 166.242 129.997 165.919 131.304 166.123L208.125 178.12L211.399 167.932L137.5 156.392C133.49 155.736 129.813 153.763 127.049 150.785C124.285 147.807 122.592 143.992 122.237 139.945L118.112 93.1065C118.046 92.3531 118.152 91.5945 118.423 90.8881C118.693 90.1818 119.121 89.5463 119.673 89.0296C120.225 88.5129 120.888 88.1287 121.611 87.9059C122.334 87.6831 123.098 87.6277 123.845 87.7438L232.229 104.669L233.803 99.8684C234.918 96.4922 237.199 93.6236 240.237 91.7768C243.275 89.93 246.872 89.2257 250.382 89.7902ZM128.612 98.5817L132.164 139.072C132.326 140.921 133.102 142.663 134.369 144.019C135.636 145.376 137.32 146.269 139.154 146.557L214.694 158.353L229.196 114.289L128.612 98.5817Z" fill="#000"/>
<path d="M205.757 129.623L150.481 120.991C149.175 120.787 148.003 120.072 147.223 119.004C146.444 117.936 146.12 116.602 146.324 115.295C146.528 113.988 147.243 112.816 148.311 112.037C149.379 111.257 150.714 110.934 152.02 111.138L207.296 119.77C208.603 119.974 209.775 120.688 210.554 121.757C211.334 122.825 211.657 124.159 211.453 125.466C211.249 126.772 210.535 127.944 209.466 128.724C208.398 129.504 207.064 129.827 205.757 129.623Z" fill="#000"/>
<path d="M157.411 130.483L196.265 136.551C197.571 136.755 198.743 137.47 199.523 138.538C200.303 139.606 200.626 140.94 200.422 142.247C200.218 143.553 199.503 144.726 198.435 145.505C197.367 146.285 196.033 146.608 194.726 146.404L155.872 140.337C154.565 140.133 153.393 139.418 152.614 138.35C151.834 137.281 151.511 135.947 151.715 134.641C151.919 133.334 152.634 132.162 153.702 131.382C154.77 130.603 156.104 130.279 157.411 130.483Z" fill="#000"/>
<circle cx="94.8441" cy="69.2444" r="41.5218" fill="#0CFF00"/>
<g filter="url(#filter0_d_96_4105)">
<path d="M94.1616 93.1099C88.3806 93.1099 83.7418 90.8954 80.2452 86.4664C76.7953 82.0374 75.0703 76 75.0703 68.3541C75.0703 60.8948 76.7953 54.9273 80.2452 50.4517C83.6952 45.9761 88.334 43.7383 94.1616 43.7383C99.9426 43.7383 104.558 45.9528 108.008 50.3818C111.505 54.7641 113.253 60.7549 113.253 68.3541C113.253 75.9067 111.528 81.9208 108.078 86.3965C104.675 90.8721 100.036 93.1099 94.1616 93.1099ZM94.1616 82.5502C96.4926 82.5502 98.3109 81.3614 99.6162 78.9837C100.968 76.5594 101.644 73.0162 101.644 68.3541C101.644 64.0184 100.992 60.5918 99.6862 58.0742C98.4274 55.5567 96.5859 54.2979 94.1616 54.2979C91.8772 54.2979 90.0589 55.5101 88.7069 57.9344C87.4016 60.312 86.7489 63.7853 86.7489 68.3541C86.7489 72.6899 87.3782 76.1398 88.637 78.704C89.9424 81.2682 91.7839 82.5502 94.1616 82.5502Z" fill="white"/>
</g>
<rect x="23.625" y="30.6523" width="28.842" height="2.62243" rx="1.31121" transform="rotate(21.1767 23.625 30.6523)" fill="#0CFF00"/>
<rect x="53.8398" width="28.842" height="2.62243" rx="1.31121" transform="rotate(61.5734 53.8398 0)" fill="#0CFF00"/>
<rect x="23.5605" y="3.20312" width="35.2107" height="2.62243" rx="1.31121" transform="rotate(38.9621 23.5605 3.20312)" fill="#0CFF00"/>
<path d="M32.7242 162.992C31.1178 157.047 36.5496 151.592 42.5015 153.173L84.7763 164.406C90.7282 165.987 92.7362 173.419 88.3907 177.783L57.5258 208.777C53.1803 213.141 45.7405 211.164 44.1341 205.219L32.7242 162.992Z" fill="#000"/>
<rect x="249.131" y="102.625" width="55.3192" height="55.3192" rx="12" transform="rotate(-35.4318 249.131 102.625)" fill="#1F7D1B"/>
<defs>
<filter id="filter0_d_96_4105" x="75.0703" y="43.7383" width="42.1816" height="53.3711" filterUnits="userSpaceOnUse" color-interpolation-filters="sRGB">
<feFlood flood-opacity="0" result="BackgroundImageFix"/>
<feColorMatrix in="SourceAlpha" type="matrix" values="0 0 0 0 0 0 0 0 0 0 0 0 0 0 0 0 0 0 127 0" result="hardAlpha"/>
<feOffset dx="4" dy="4"/>
<feComposite in2="hardAlpha" operator="out"/>
<feColorMatrix type="matrix" values="0 0 0 0 0 0 0 0 0 0 0 0 0 0 0 0 0 0 0.25 0"/>
<feBlend mode="normal" in2="BackgroundImageFix" result="effect1_dropShadow_96_4105"/>
<feBlend mode="normal" in="SourceGraphic" in2="effect1_dropShadow_96_4105" result="shape"/>
</filter>
</defs>
</svg>
