<svg width="17" height="15" viewBox="0 0 17 15" fill="none" xmlns="http://www.w3.org/2000/svg">
<path d="M12.3943 0C11.597 0.0124537 10.8171 0.235959 10.1333 0.647945C9.44954 1.05993 8.88614 1.64581 8.5 2.34641C8.11386 1.64581 7.55046 1.05993 6.8667 0.647945C6.18294 0.235959 5.40303 0.0124537 4.60574 0C3.33475 0.0554541 2.13728 0.613803 1.27493 1.55306C0.41258 2.49233 -0.0445429 3.73615 0.00342773 5.01279C0.00342773 8.24587 3.39214 11.7769 6.23425 14.1709C6.86881 14.7064 7.67113 15 8.5 15C9.32887 15 10.1312 14.7064 10.7658 14.1709C13.6079 11.7769 16.9966 8.24587 16.9966 5.01279C17.0445 3.73615 16.5874 2.49233 15.7251 1.55306C14.8627 0.613803 13.6652 0.0554541 12.3943 0ZM9.85591 13.083C9.47639 13.404 8.99617 13.58 8.5 13.58C8.00383 13.58 7.52361 13.404 7.14409 13.083C3.50614 10.0178 1.41952 7.07693 1.41952 5.01279C1.37112 4.11313 1.67893 3.23075 2.27581 2.55809C2.87269 1.88543 3.71022 1.47707 4.60574 1.42207C5.50125 1.47707 6.33878 1.88543 6.93567 2.55809C7.53255 3.23075 7.84035 4.11313 7.79195 5.01279C7.79195 5.20137 7.86655 5.38223 7.99933 5.51557C8.13212 5.64891 8.31221 5.72383 8.5 5.72383C8.68779 5.72383 8.86788 5.64891 9.00066 5.51557C9.13345 5.38223 9.20805 5.20137 9.20805 5.01279C9.15965 4.11313 9.46745 3.23075 10.0643 2.55809C10.6612 1.88543 11.4987 1.47707 12.3943 1.42207C13.2898 1.47707 14.1273 1.88543 14.7242 2.55809C15.3211 3.23075 15.6289 4.11313 15.5805 5.01279C15.5805 7.07693 13.4939 10.0178 9.85591 13.0802V13.083Z" fill="#FF6666"/>
</svg>
