<svg width="67" height="67" viewBox="0 0 67 67" fill="none" xmlns="http://www.w3.org/2000/svg">
<path d="M39.3534 0.858391C42.5226 0.567502 45.6777 1.54752 48.1244 3.58285L61.1188 14.3924C63.5655 16.4278 65.1034 19.3517 65.3943 22.521L66.9392 39.3529C67.2301 42.5222 66.2501 45.6772 64.2148 48.1239L53.4052 61.1184C51.3699 63.5651 48.446 65.103 45.2767 65.3939L28.4447 66.9388C25.2754 67.2297 22.1204 66.2497 19.6737 64.2144L6.67928 53.4048C4.23257 51.3694 2.69461 48.4455 2.40372 45.2762L0.858818 28.4443C0.567929 25.275 1.54795 22.12 3.58327 19.6733L14.3929 6.67885C16.4282 4.23215 19.3521 2.69418 22.5214 2.40329L39.3534 0.858391Z" fill="#656565"/>
</svg>
