<svg width="147" height="203" viewBox="0 0 147 203" fill="none" xmlns="http://www.w3.org/2000/svg">
<path d="M70.0722 1.02236C74.8261 0.586028 79.5586 2.05605 83.2287 5.10904L134.28 47.5764C137.95 50.6294 140.257 55.0153 140.693 59.7692L146.762 125.897C147.199 130.65 145.729 135.383 142.676 139.053L100.208 190.104C97.1553 193.774 92.7694 196.081 88.0155 196.517L21.8881 202.587C17.1342 203.023 12.4016 201.553 8.7316 198.5L-42.3192 156.033C-45.9893 152.98 -48.2963 148.594 -48.7326 143.84L-54.802 77.7125C-55.2383 72.9586 -53.7683 68.226 -50.7153 64.556L-8.24797 13.5051C-5.19498 9.83507 -0.809089 7.52812 3.94482 7.09178L70.0722 1.02236Z" fill="#656565"/>
</svg>
