<svg width="27" height="27" viewBox="0 0 27 27" fill="none" xmlns="http://www.w3.org/2000/svg">
<g clip-path="url(#clip0_96_4313)">
<path d="M13.5 0C9.91958 0 6.4858 1.42232 3.95406 3.95406C1.42232 6.4858 0 9.91958 0 13.5C0 17.0804 1.42232 20.5142 3.95406 23.0459C6.4858 25.5777 9.91958 27 13.5 27H27V13.5C26.9961 9.92077 25.5726 6.48924 23.0417 3.95833C20.5108 1.42743 17.0792 0.00387122 13.5 0ZM13.5 5.625C13.8338 5.625 14.16 5.72397 14.4375 5.9094C14.715 6.09482 14.9313 6.35837 15.059 6.66672C15.1868 6.97507 15.2202 7.31437 15.1551 7.64172C15.09 7.96906 14.9292 8.26974 14.6932 8.50574C14.4572 8.74174 14.1566 8.90246 13.8292 8.96758C13.5019 9.03269 13.1626 8.99927 12.8542 8.87155C12.5459 8.74382 12.2823 8.52753 12.0969 8.25002C11.9115 7.97252 11.8125 7.64626 11.8125 7.3125C11.8125 6.86495 11.9903 6.43572 12.3068 6.11926C12.6232 5.80279 13.0524 5.625 13.5 5.625ZM15.75 21.375H13.5V13.5H11.25V11.25H13.5C14.0967 11.25 14.669 11.4871 15.091 11.909C15.5129 12.331 15.75 12.9033 15.75 13.5V21.375Z" fill="#0CFF00"/>
</g>
<defs>
<clipPath id="clip0_96_4313">
<rect width="27" height="27" fill="white"/>
</clipPath>
</defs>
</svg>
