<svg width="10" height="12" viewBox="0 0 10 12" fill="none" xmlns="http://www.w3.org/2000/svg">
<path d="M7.5 7.00001C7.5 7.13262 7.44732 7.2598 7.35355 7.35356C7.25979 7.44733 7.13261 7.50001 7 7.50001H3C2.86739 7.50001 2.74021 7.44733 2.64645 7.35356C2.55268 7.2598 2.5 7.13262 2.5 7.00001C2.5 6.8674 2.55268 6.74023 2.64645 6.64646C2.74021 6.55269 2.86739 6.50001 3 6.50001H7C7.13261 6.50001 7.25979 6.55269 7.35355 6.64646C7.44732 6.74023 7.5 6.8674 7.5 7.00001ZM5.5 8.50001H3C2.86739 8.50001 2.74021 8.55269 2.64645 8.64646C2.55268 8.74023 2.5 8.8674 2.5 9.00001C2.5 9.13262 2.55268 9.2598 2.64645 9.35357C2.74021 9.44733 2.86739 9.50001 3 9.50001H5.5C5.63261 9.50001 5.75979 9.44733 5.85355 9.35357C5.94732 9.2598 6 9.13262 6 9.00001C6 8.8674 5.94732 8.74023 5.85355 8.64646C5.75979 8.55269 5.63261 8.50001 5.5 8.50001ZM10 5.24251V9.50001C9.99921 10.1628 9.73556 10.7982 9.26689 11.2669C8.79822 11.7356 8.1628 11.9992 7.5 12H2.5C1.8372 11.9992 1.20178 11.7356 0.73311 11.2669C0.264441 10.7982 0.000793929 10.1628 0 9.50001V2.50001C0.000793929 1.83721 0.264441 1.20179 0.73311 0.733121C1.20178 0.264452 1.8372 0.000805453 2.5 1.15243e-05H4.7575C5.21731 -0.00117194 5.67279 0.0888054 6.09761 0.264741C6.52243 0.440677 6.90816 0.699081 7.2325 1.02501L8.9745 2.76801C9.30062 3.09213 9.55918 3.47774 9.73521 3.9025C9.91124 4.32726 10.0012 4.78272 10 5.24251ZM6.5255 1.73201C6.36814 1.57959 6.19147 1.44847 6 1.34201V3.50001C6 3.63262 6.05268 3.7598 6.14645 3.85356C6.24021 3.94733 6.36739 4.00001 6.5 4.00001H8.658C8.55148 3.80861 8.42018 3.63208 8.2675 3.47501L6.5255 1.73201ZM9 5.24251C9 5.16001 8.984 5.08101 8.9765 5.00001H6.5C6.10218 5.00001 5.72064 4.84198 5.43934 4.56067C5.15804 4.27937 5 3.89784 5 3.50001V1.02351C4.919 1.01601 4.8395 1.00001 4.7575 1.00001H2.5C2.10218 1.00001 1.72064 1.15805 1.43934 1.43935C1.15804 1.72066 1 2.10219 1 2.50001V9.50001C1 9.89784 1.15804 10.2794 1.43934 10.5607C1.72064 10.842 2.10218 11 2.5 11H7.5C7.89782 11 8.27936 10.842 8.56066 10.5607C8.84196 10.2794 9 9.89784 9 9.50001V5.24251Z" fill="white"/>
</svg>
