<svg width="12" height="12" viewBox="0 0 12 12" fill="none" xmlns="http://www.w3.org/2000/svg">
<path d="M0 5L1.1 0H10.9L11.988 4.8915L12 5.5C11.9982 5.98264 11.8204 6.44805 11.5 6.809V10.5C11.5 10.8978 11.342 11.2794 11.0607 11.5607C10.7794 11.842 10.3978 12 10 12H2C1.60218 12 1.22064 11.842 0.93934 11.5607C0.658035 11.2794 0.5 10.8978 0.5 10.5V6.809C0.179587 6.44805 0.00181293 5.98264 0 5.5V5ZM11 5.0545L10.1 1H8.5V3H7.5V1H4.5V3H3.5V1H1.9L1 5.0545V5.5C1 5.76522 1.10536 6.01957 1.29289 6.20711C1.48043 6.39464 1.73478 6.5 2 6.5H2.5C2.76522 6.5 3.01957 6.39464 3.20711 6.20711C3.39464 6.01957 3.5 5.76522 3.5 5.5H4.5C4.5 5.76522 4.60536 6.01957 4.79289 6.20711C4.98043 6.39464 5.23478 6.5 5.5 6.5H6.5C6.76522 6.5 7.01957 6.39464 7.20711 6.20711C7.39464 6.01957 7.5 5.76522 7.5 5.5H8.5C8.5 5.76522 8.60536 6.01957 8.79289 6.20711C8.98043 6.39464 9.23478 6.5 9.5 6.5H10C10.2652 6.5 10.5196 6.39464 10.7071 6.20711C10.8946 6.01957 11 5.76522 11 5.5V5.0545ZM2 11H10C10.1326 11 10.2598 10.9473 10.3536 10.8536C10.4473 10.7598 10.5 10.6326 10.5 10.5V7.429C10.3371 7.47403 10.169 7.49789 10 7.5H9.5C9.21505 7.49908 8.93364 7.4369 8.67483 7.31768C8.41602 7.19845 8.18588 7.02497 8 6.809C7.81412 7.02497 7.58398 7.19845 7.32517 7.31768C7.06636 7.4369 6.78495 7.49908 6.5 7.5H5.5C5.21609 7.50015 4.93542 7.4397 4.67675 7.32269C4.41807 7.20569 4.18735 7.03481 4 6.8215C3.81265 7.03481 3.58193 7.20569 3.32325 7.32269C3.06458 7.4397 2.78391 7.50015 2.5 7.5H2C1.83098 7.49789 1.66293 7.47403 1.5 7.429V10.5C1.5 10.6326 1.55268 10.7598 1.64645 10.8536C1.74021 10.9473 1.86739 11 2 11Z" fill="white"/>
</svg>
