<svg width="176" height="38" viewBox="0 0 176 38" fill="none" xmlns="http://www.w3.org/2000/svg">
<path d="M0.870498 22.8671C-0.290166 21.7043 -0.290166 19.8209 0.870498 18.6581L18.6197 0.872104C19.7803 -0.290701 21.6603 -0.290701 22.8209 0.872104C23.9816 2.03491 23.9816 3.91833 22.8209 5.08113L5.07178 22.8671C3.91111 24.03 2.03116 24.03 0.870498 22.8671Z" fill="#7000FF"/>
<path d="M13.1351 24.8939C11.9745 23.7311 11.9745 21.8477 13.1351 20.6849L20.6427 13.1635C21.8033 12.0007 23.6833 12.0007 24.844 13.1635C26.0046 14.3263 26.0046 16.2097 24.844 17.3725L17.3364 24.8939C16.1758 26.0567 14.2958 26.0567 13.1351 24.8939Z" fill="#FFCE00"/>
<path d="M15.1088 37.1279C13.9481 35.9651 13.9481 34.0817 15.1088 32.9189L32.858 15.137C34.0186 13.9742 35.8986 13.9742 37.0592 15.137C38.2199 16.2998 38.2199 18.1832 37.0592 19.346L19.3101 37.1279C18.1494 38.2908 16.2694 38.2908 15.1088 37.1279Z" fill="#1C7CFF"/>
<path d="M52.3359 27.3505V9.09359C52.3359 8.27881 52.573 7.7056 53.0511 7.37805C53.5293 7.05049 54.1546 6.88672 54.927 6.88672C55.5032 6.88672 56.0141 6.95632 56.4596 7.09553C56.905 7.23474 57.1911 7.32482 57.3096 7.36576V27.3546H52.3359V27.3505Z" fill="white"/>
<path d="M60.583 18.134C60.583 17.1023 60.7833 16.181 61.1797 15.3744C61.5761 14.5678 62.1237 13.8964 62.8185 13.36C63.5133 12.8236 64.3184 12.4142 65.2297 12.1358C66.1411 11.8573 67.126 11.7181 68.1764 11.7181C69.2267 11.7181 70.1871 11.8573 71.1107 12.1358C72.0343 12.4142 72.8395 12.8236 73.522 13.36C74.2045 13.8964 74.748 14.5678 75.1444 15.3744C75.5409 16.181 75.7411 17.0982 75.7411 18.134V27.3505H70.9472V19.2354C70.9472 18.1832 70.7102 17.4011 70.232 16.8934C69.7539 16.3857 69.0714 16.1319 68.1764 16.1319C66.3087 16.1319 65.3769 17.1678 65.3769 19.2354V27.3505H60.583V18.134Z" fill="white"/>
<path d="M79.8195 22.6952C79.9789 22.8139 80.2405 22.9572 80.6083 23.1292C80.9761 23.2971 81.4134 23.4567 81.9202 23.6082C82.4269 23.7597 83.0032 23.8867 83.6489 23.9972C84.2946 24.1078 84.973 24.161 85.6882 24.161C86.5015 24.161 87.1186 24.0873 87.5355 23.9358C87.9523 23.7884 88.1608 23.5223 88.1608 23.1456C88.1608 22.7484 87.985 22.4741 87.6377 22.3267C87.2903 22.1793 86.7508 22.0524 86.0152 21.9541L84.4663 21.774C83.6938 21.6757 82.946 21.5324 82.2348 21.3399C81.5196 21.1516 80.8903 20.8732 80.3426 20.5047C79.795 20.1362 79.3659 19.6653 79.0471 19.088C78.7283 18.5107 78.5689 17.786 78.5689 16.9098C78.5689 16.1728 78.7038 15.4932 78.9695 14.8667C79.2392 14.2403 79.6601 13.6916 80.2364 13.2249C80.8126 12.7581 81.5483 12.3896 82.4392 12.1194C83.3342 11.8492 84.3927 11.7181 85.6269 11.7181C86.8612 11.7181 87.9523 11.8 88.8596 11.9556C89.7628 12.1153 90.5434 12.3651 91.1973 12.7008C91.5733 12.9014 91.8757 13.143 92.1046 13.4337C92.3334 13.7244 92.4479 14.0765 92.4479 14.4941C92.4479 14.8135 92.3825 15.096 92.2558 15.3458C92.125 15.5955 91.9779 15.8084 91.8103 15.9886C91.6428 16.1687 91.4834 16.3079 91.3322 16.4062C91.185 16.5045 91.087 16.5659 91.0502 16.5864C90.9889 16.5249 90.8254 16.4185 90.5597 16.2588C90.29 16.0991 89.9345 15.9476 89.489 15.7961C89.0435 15.6488 88.5082 15.5136 87.8829 15.3949C87.2576 15.2762 86.5465 15.2147 85.7536 15.2147C84.8586 15.2147 84.2374 15.3171 83.8941 15.5259C83.5508 15.7347 83.3751 16.0091 83.3751 16.3448C83.3751 16.6805 83.5345 16.9221 83.8532 17.0613C84.172 17.2005 84.6461 17.3193 85.2836 17.4216L87.9932 17.8106C88.6675 17.9089 89.3174 18.0522 89.9426 18.2446C90.5679 18.437 91.1237 18.7073 91.6101 19.0635C92.0964 19.4238 92.4847 19.8783 92.7707 20.4351C93.0568 20.9919 93.2039 21.6675 93.2039 22.4659C93.2039 24.1364 92.5705 25.4384 91.2995 26.3719C90.0285 27.3055 88.2711 27.7722 86.0274 27.7722C84.8545 27.7722 83.8205 27.6903 82.9174 27.5348C82.0142 27.3751 81.2336 27.1908 80.5797 26.982C79.9258 26.7732 79.3945 26.5562 78.9858 26.3269C78.5771 26.0976 78.2951 25.9257 78.1357 25.8028L79.8318 22.6993L79.8195 22.6952Z" fill="white"/>
<path d="M95.4521 33.316V20.4268C95.4521 19.1535 95.5829 18.0521 95.8404 17.1145C96.0979 16.181 96.4657 15.3948 96.9439 14.7561C97.6999 13.7612 98.6603 13.0078 99.8332 12.4878C101.006 11.9719 102.306 11.714 103.732 11.714C104.905 11.714 105.988 11.9064 106.993 12.2954C107.995 12.6844 108.865 13.2248 109.601 13.9209C110.336 14.6169 110.913 15.4644 111.33 16.4553C111.746 17.4502 111.955 18.5434 111.955 19.7349C111.955 20.9264 111.763 22.0441 111.374 23.0145C110.986 23.989 110.463 24.8242 109.797 25.5203C109.131 26.2163 108.354 26.7527 107.459 27.1294C106.564 27.506 105.612 27.6944 104.603 27.6944C103.491 27.6944 102.571 27.5183 101.848 27.1744C101.125 26.8264 100.581 26.4743 100.226 26.1139V33.3037H95.4603L95.4521 33.316ZM103.609 23.383C104.603 23.383 105.42 23.0391 106.066 22.3553C106.711 21.6674 107.034 20.7871 107.034 19.7144C107.034 18.6417 106.711 17.7737 106.066 17.1186C105.42 16.4635 104.603 16.1359 103.609 16.1359C102.616 16.1359 101.799 16.4553 101.153 17.0899C100.508 17.7286 100.185 18.6007 100.185 19.7144C100.185 20.2303 100.271 20.7135 100.438 21.1597C100.606 21.606 100.847 21.995 101.153 22.3225C101.46 22.6501 101.824 22.908 102.24 23.0964C102.657 23.2847 103.115 23.3789 103.609 23.3789V23.383Z" fill="white"/>
<path d="M114.509 8.0495C114.509 7.29204 114.762 6.65741 115.269 6.14151C115.776 5.62562 116.405 5.36768 117.161 5.36768C117.917 5.36768 118.551 5.62562 119.066 6.14151C119.581 6.65741 119.838 7.29613 119.838 8.0495C119.838 8.80287 119.581 9.4375 119.066 9.9452C118.551 10.4529 117.913 10.7068 117.161 10.7068C116.409 10.7068 115.776 10.4529 115.269 9.9452C114.762 9.4375 114.509 8.80696 114.509 8.0495ZM114.779 14.2566C114.779 13.4827 115.007 12.9341 115.465 12.6147C115.923 12.2954 116.528 12.1357 117.28 12.1357C117.815 12.1357 118.301 12.2012 118.739 12.3281C119.176 12.4592 119.454 12.541 119.572 12.582V27.3504H114.779V14.2525V14.2566Z" fill="white"/>
<path d="M122.994 17.8024C122.994 16.8279 123.157 15.964 123.484 15.2066C123.811 14.4491 124.265 13.8145 124.837 13.2986C125.413 12.7827 126.108 12.3896 126.921 12.1194C127.734 11.8492 128.629 11.7181 129.602 11.7181C130.791 11.7181 131.719 11.8492 132.385 12.1071C133.051 12.3651 133.533 12.6435 133.828 12.9424C134.008 13.143 134.147 13.3518 134.245 13.5688C134.343 13.7899 134.392 14.0478 134.392 14.3426C134.392 14.6374 134.347 14.9199 134.257 15.1779C134.167 15.4358 134.057 15.6651 133.93 15.8658C133.799 16.0664 133.677 16.2342 133.558 16.3735C133.44 16.5127 133.35 16.6109 133.288 16.6723C132.949 16.5127 132.544 16.3653 132.066 16.2261C131.588 16.0869 131.065 16.0172 130.489 16.0172C129.733 16.0172 129.095 16.2383 128.568 16.6723C128.041 17.1104 127.779 17.8352 127.779 18.8506V27.3546H122.985V17.8065L122.994 17.8024Z" fill="white"/>
<path d="M140.236 21.7412C140.277 21.9787 140.379 22.2121 140.546 22.4413C140.714 22.6706 140.955 22.8835 141.262 23.0842C141.568 23.2848 141.961 23.4404 142.439 23.5632C142.917 23.6819 143.489 23.7434 144.167 23.7434C144.682 23.7434 145.169 23.6983 145.626 23.6082C146.084 23.5182 146.481 23.424 146.82 23.3257C147.159 23.2275 147.433 23.1251 147.654 23.0268C147.87 22.9286 148.001 22.859 148.042 22.818L149.709 26.159C149.55 26.2573 149.288 26.3965 148.92 26.5767C148.553 26.7568 148.091 26.9329 147.535 27.113C146.979 27.2932 146.329 27.4447 145.586 27.5757C144.842 27.7067 144.02 27.7681 143.129 27.7681C142.018 27.7681 140.976 27.588 140.003 27.2318C139.03 26.8715 138.18 26.3515 137.457 25.6636C136.733 24.9758 136.161 24.1364 135.744 23.1415C135.328 22.1465 135.119 21.0124 135.119 19.739C135.119 18.5476 135.328 17.4544 135.744 16.4594C136.161 15.4645 136.738 14.6211 137.473 13.925C138.209 13.229 139.071 12.6885 140.064 12.2995C141.057 11.9106 142.128 11.7181 143.281 11.7181C144.351 11.7181 145.316 11.8614 146.17 12.1521C147.024 12.4428 147.743 12.8318 148.328 13.3313C148.912 13.8267 149.362 14.3959 149.668 15.0305C149.975 15.6651 150.13 16.3243 150.13 16.9999C150.13 17.7369 149.999 18.3961 149.742 18.9857C149.484 19.5712 149.023 20.0707 148.356 20.476C147.69 20.8855 146.787 21.1966 145.647 21.4177C144.507 21.6347 143.052 21.7453 141.286 21.7453H140.244L140.236 21.7412ZM139.999 18.6377C141.327 18.6377 142.361 18.5885 143.097 18.4903C143.832 18.392 144.376 18.261 144.735 18.1013C145.095 17.9416 145.312 17.7615 145.389 17.5649C145.467 17.3643 145.508 17.1678 145.508 16.9671C145.508 16.5495 145.32 16.1851 144.944 15.878C144.568 15.571 144 15.4154 143.248 15.4154C142.713 15.4154 142.247 15.5095 141.85 15.6979C141.454 15.8862 141.119 16.1319 140.853 16.4308C140.583 16.7297 140.383 17.0736 140.244 17.4585C140.105 17.8474 140.023 18.2405 140.007 18.6377H139.999Z" fill="white"/>
<path d="M152.595 7.48039C152.595 6.70655 152.824 6.1579 153.281 5.83854C153.739 5.51918 154.344 5.3595 155.096 5.3595C155.631 5.3595 156.118 5.42501 156.555 5.55193C156.992 5.68295 157.27 5.76484 157.389 5.80579V27.3464H152.595V7.48039Z" fill="white"/>
<path d="M162.571 28.9923C162.648 29.0332 162.824 29.0946 163.09 29.1847C163.36 29.2748 163.691 29.3649 164.087 29.4549C164.483 29.545 164.937 29.6228 165.44 29.6924C165.947 29.762 166.466 29.7948 167.005 29.7948C168.534 29.7948 169.637 29.4672 170.311 28.8121C170.986 28.157 171.325 27.072 171.325 25.5612C170.949 26.0198 170.373 26.3801 169.596 26.6503C168.824 26.9205 168.047 27.0515 167.275 27.0515C166.363 27.0515 165.513 26.9369 164.729 26.7076C163.944 26.4783 163.257 26.1262 162.673 25.6472C162.089 25.1681 161.631 24.5703 161.304 23.8415C160.977 23.1168 160.813 22.257 160.813 21.2621V14.2525C160.813 13.4786 161.042 12.93 161.5 12.6106C161.958 12.2913 162.563 12.1316 163.315 12.1316C163.85 12.1316 164.336 12.1971 164.774 12.324C165.211 12.455 165.489 12.5369 165.607 12.5779V20.2753C165.607 21.2293 165.832 21.9172 166.278 22.3348C166.723 22.7524 167.422 22.9612 168.378 22.9612C169.273 22.9612 169.964 22.7033 170.463 22.1874C170.957 21.6715 171.206 20.8731 171.206 19.8004V14.2525C171.206 13.4786 171.435 12.93 171.893 12.6106C172.351 12.2913 172.956 12.1316 173.707 12.1316C174.243 12.1316 174.729 12.1971 175.166 12.324C175.604 12.455 175.882 12.5369 176 12.5779V25.2254C176 26.7363 175.8 28.026 175.404 29.0905C175.007 30.1551 174.439 31.019 173.707 31.6864C172.972 32.3538 172.101 32.841 171.088 33.1481C170.074 33.4552 168.942 33.6107 167.692 33.6107C166.817 33.6107 166.012 33.5616 165.28 33.4633C164.545 33.3651 163.899 33.2504 163.343 33.1194C162.787 32.9884 162.342 32.8656 162.003 32.7468C161.664 32.6281 161.467 32.5462 161.406 32.5094L162.567 28.9882L162.571 28.9923Z" fill="white"/>
</svg>
