<svg width="118" height="118" viewBox="0 0 118 118" fill="none" xmlns="http://www.w3.org/2000/svg">
<path d="M69.5877 0.0768026C74.3416 -0.35953 79.0741 1.11049 82.7442 4.16349L107.768 24.9802C111.438 28.0332 113.745 32.419 114.182 37.173L117.157 69.5873C117.593 74.3412 116.123 79.0738 113.07 82.7438L92.2534 107.768C89.2004 111.438 84.8145 113.745 80.0606 114.181L47.6463 117.156C42.8923 117.593 38.1598 116.123 34.4897 113.07L9.4656 92.253C5.79554 89.2001 3.48859 84.8142 3.05225 80.0603L0.077137 47.6459C-0.359195 42.892 1.11083 38.1595 4.16382 34.4894L24.9805 9.46526C28.0335 5.7952 32.4194 3.48825 37.1733 3.05192L69.5877 0.0768026Z" fill="#0CFF00"/>
</svg>
